<svg width="18" height="16" viewBox="0 0 18 16" fill="none" xmlns="http://www.w3.org/2000/svg">
<path d="M10.9 0.799999L4.84 15L6.74 15.08L12.8 0.879999L10.9 0.799999ZM0.6 4.36C0.6 5.05333 0.74 5.66 1.02 6.18C1.31333 6.68667 1.7 7.07333 2.18 7.34C2.67333 7.60667 3.22 7.74 3.82 7.74C4.39333 7.74 4.92667 7.6 5.42 7.32C5.91333 7.04 6.30667 6.64667 6.6 6.14C6.89333 5.62 7.04 5.02667 7.04 4.36C7.04 3.30667 6.73333 2.48 6.12 1.88C5.50667 1.26667 4.74 0.96 3.82 0.96C3.24667 0.96 2.71333 1.1 2.22 1.38C1.72667 1.66 1.33333 2.06 1.04 2.58C0.746667 3.1 0.6 3.69333 0.6 4.36ZM2.32 4.34C2.32 3.71333 2.46667 3.24 2.76 2.92C3.05333 2.58667 3.40667 2.42 3.82 2.42C4.24667 2.42 4.6 2.58667 4.88 2.92C5.17333 3.24 5.32 3.72 5.32 4.36C5.32 5 5.17333 5.48667 4.88 5.82C4.58667 6.14 4.23333 6.3 3.82 6.3C3.38 6.3 3.02 6.14 2.74 5.82C2.46 5.48667 2.32 4.99333 2.32 4.34ZM10.7 11.62C10.7 12.66 11.0067 13.4867 11.62 14.1C12.2333 14.7 13 15 13.92 15C14.48 15 15 14.86 15.48 14.58C15.9733 14.3 16.3667 13.9067 16.66 13.4C16.9533 12.88 17.1 12.2867 17.1 11.62C17.1 10.5667 16.8 9.74 16.2 9.14C15.6 8.54 14.84 8.24 13.92 8.24C13.3333 8.24 12.7933 8.38 12.3 8.66C11.82 8.94 11.4333 9.34 11.14 9.86C10.8467 10.3667 10.7 10.9533 10.7 11.62ZM12.4 11.6C12.4 10.9733 12.5467 10.5 12.84 10.18C13.1467 9.84667 13.5067 9.68 13.92 9.68C14.3333 9.68 14.68 9.85333 14.96 10.2C15.2533 10.5333 15.4 11.0067 15.4 11.62C15.4 12.26 15.2533 12.7467 14.96 13.08C14.6667 13.4133 14.32 13.58 13.92 13.58C13.48 13.58 13.1133 13.4133 12.82 13.08C12.54 12.7467 12.4 12.2533 12.4 11.6Z" fill="#E6E6E6"/>
</svg>
