<?xml version="1.0" encoding="UTF-8" standalone="no"?>
<svg
   xmlns:dc="http://purl.org/dc/elements/1.1/"
   xmlns:cc="http://creativecommons.org/ns#"
   xmlns:rdf="http://www.w3.org/1999/02/22-rdf-syntax-ns#"
   xmlns:svg="http://www.w3.org/2000/svg"
   xmlns="http://www.w3.org/2000/svg"
   xmlns:sodipodi="http://sodipodi.sourceforge.net/DTD/sodipodi-0.dtd"
   xmlns:inkscape="http://www.inkscape.org/namespaces/inkscape"
   id="bea18b66-86ba-42fe-9190-76147bd64da7"
   data-name="Layer 1"
   width="517.7782"
   height="595.17151"
   viewBox="0 0 517.7782 595.17151"
   version="1.1"
   sodipodi:docname="undraw_meditating_0nae.svg"
   inkscape:version="0.92.4 (5da689c313, 2019-01-14)">
  <metadata
     id="metadata198">
    <rdf:RDF>
      <cc:Work
         rdf:about="">
        <dc:format>image/svg+xml</dc:format>
        <dc:type
           rdf:resource="http://purl.org/dc/dcmitype/StillImage" />
        <dc:title>meditating</dc:title>
      </cc:Work>
    </rdf:RDF>
  </metadata>
  <sodipodi:namedview
     pagecolor="#ffffff"
     bordercolor="#666666"
     borderopacity="1"
     objecttolerance="10"
     gridtolerance="10"
     guidetolerance="10"
     inkscape:pageopacity="0"
     inkscape:pageshadow="2"
     inkscape:window-width="1920"
     inkscape:window-height="1057"
     id="namedview196"
     showgrid="false"
     fit-margin-top="0"
     fit-margin-left="0"
     fit-margin-right="0"
     fit-margin-bottom="0"
     inkscape:zoom="0.53736991"
     inkscape:cx="167.10886"
     inkscape:cy="552.56803"
     inkscape:window-x="-8"
     inkscape:window-y="-8"
     inkscape:window-maximized="1"
     inkscape:current-layer="bea18b66-86ba-42fe-9190-76147bd64da7" />
  <defs
     id="defs9">
    <linearGradient
       id="e9b7614d-2d40-4533-bad7-5d0811b316bd"
       x1="890.27002"
       y1="819.42999"
       x2="890.27002"
       y2="453.22"
       gradientUnits="userSpaceOnUse"
       gradientTransform="translate(-610.7218,-247.04852)">
      <stop
         offset="0"
         stop-color="gray"
         stop-opacity="0.25"
         id="stop2" />
      <stop
         offset="0.54"
         stop-color="gray"
         stop-opacity="0.12"
         id="stop4" />
      <stop
         offset="1"
         stop-color="gray"
         stop-opacity="0.1"
         id="stop6" />
    </linearGradient>
  </defs>
  <title
     id="title11">meditating</title>
  <ellipse
     cx="258.8891"
     cy="522.17151"
     rx="258.8891"
     ry="73"
     id="ellipse45"
     style="opacity:0.1;fill:#000000;stroke-width:0.70222652" />
  <path
     d="m 294.19383,66.73 h -0.17 a 19.23,19.23 0 0 0 -16.07,8.8 19.25,19.25 0 0 0 -16.07,-8.8 h -0.17 a 19.12,19.12 0 0 0 -19,19.12 c 0,6.26 2.74,15.14 8.09,22.45 10.18,13.92 27.1,26.1 27.1,26.1 0,0 16.92,-12.18 27.1,-26.1 5.35,-7.31 8.09,-16.19 8.09,-22.45 a 19.13,19.13 0 0 0 -18.9,-19.12 z"
     id="path89"
     inkscape:connector-curvature="0"
     style="fill:#f86d70" />
  <path
     d="m 352.45383,0 h -0.13 a 14.78,14.78 0 0 0 -12.33,6.75 14.78,14.78 0 0 0 -12.33,-6.75 h -0.13 a 14.68,14.68 0 0 0 -14.54,14.67 c 0,4.8 2.11,11.62 6.21,17.22 7.81,10.68 20.79,20 20.79,20 0,0 13,-9.35 20.79,-20 4.1,-5.6 6.2,-12.42 6.2,-17.22 A 14.68,14.68 0 0 0 352.45383,0 Z"
     id="path91"
     inkscape:connector-curvature="0"
     style="fill:#f86d70" />
  <path
     d="m 420.38383,74.92 h -0.13 a 14.76,14.76 0 0 0 -12.32,6.75 14.79,14.79 0 0 0 -12.33,-6.75 h -0.13 a 14.68,14.68 0 0 0 -14.58,14.66 c 0,4.8 2.1,11.61 6.2,17.22 7.82,10.68 20.8,20 20.8,20 0,0 13,-9.35 20.79,-20 4.1,-5.61 6.2,-12.42 6.2,-17.22 a 14.68,14.68 0 0 0 -14.5,-14.66 z"
     id="path93"
     inkscape:connector-curvature="0"
     style="fill:#f86d70" />
  <path
     d="m 459.6082,297.77148 0.79,-0.54 a 40.58,40.58 0 0 1 -11.26,1.7 49.32,49.32 0 0 1 -18.82,-4.1 c -9.79,-4.23 -18.19,-11.28 -25.06,-19.45 -9.5,-11.3 -16.68,-25.22 -29.35,-32.77 a 22.81,22.81 0 0 0 -8.57,-3.24 c -5.36,-0.69 -10.63,1.35 -15.83,2.84 -22.47,6.46 -49.08,1.73 -64.58,-15.8 -3.28,-3.7 -6,-7.88 -9.64,-11.26 -12,-11.2 -31.16,-10.91 -46.34,-4.69 -0.92,0.37 -1.83,0.78 -2.72,1.22 a 6.23,6.23 0 0 1 0.15,-0.62 17.45,17.45 0 0 0 -7.14,5.14 c -2.82,3.77 -2.82,8.66 -2.07,13.11 a 13.92,13.92 0 0 0 1.14,4.15 12.25,12.25 0 0 0 -2.89,7.91 c 0,0.36 0,0.71 0.05,1.06 a 44.12,44.12 0 0 0 -34.19,38.11 c 0,-0.1 0,-0.2 0,-0.29 a 44.91,44.91 0 0 0 -0.25,4.67 c 0,0.1 0,0.2 0,0.3 0,0.1 0,0.19 0,0.29 a 44,44 0 0 0 13.61,31.88 32.81,32.81 0 0 0 13,16.37 c -0.12,0.5 -0.24,1 -0.38,1.51 -2.27,8.24 -7.57,16.94 -19.46,20.8 -0.5,0.17 -1,0.32 -1.54,0.47 l -2.46,0.69 -1,0.3 c -24.58,7.13 -31.61,12.89 -33.84,22.39 -1.84,7.82 -4,21.8 -4.89,27.4 -1.78,4.12 -13.88,32.75 -12.92,49.3 0.16,2.85 0.24,5.7 0.19,8.56 -0.11,5.79 1.55,15.12 13.83,12.66 7,-1.4 18,-4.75 28.84,-8.28 q -0.95,2.91 -2.14,5.73 c -1.61,3.81 -3.56,7.78 -4.57,11.78 v 0 0.11 l -0.12,0.49 c 0,0.1 0,0.19 0,0.29 0,0.1 -0.07,0.34 -0.11,0.51 -0.04,0.17 0,0.09 0,0.14 a 1.29,1.29 0 0 1 0,0.19 c 0,0.22 -0.07,0.43 -0.1,0.65 -0.03,0.22 -0.08,0.57 -0.11,0.86 v 0 c 0,0.18 0,0.36 0,0.54 a 2.46,2.46 0 0 1 0,0.26 c 0,0 0,0.06 0,0.08 v 0.09 c 0,0.15 0,0.31 0,0.46 0,0.15 0,0.18 0,0.26 0,0.08 0,0.27 0,0.41 a 2.71,2.71 0 0 1 0,0.29 c 0,0.26 0,0.52 0.05,0.78 0,0 0,0.07 0,0.1 0,0.03 0,0.33 0.06,0.49 0.06,0.16 0,0.26 0,0.39 0,0.13 0,0.12 0,0.18 l 0.09,0.46 c 0,0.11 0,0.23 0.07,0.34 l 0.12,0.47 v 0 0 c 0,0.15 0.08,0.29 0.13,0.44 a 16.27,16.27 0 0 1 1.06,3.72 6.52,6.52 0 0 1 -0.23,2.11 v 0 l -0.15,0.54 a 0.56,0.56 0 0 1 0,0.12 c -0.11,0.38 -0.24,0.76 -0.37,1.14 -0.07,0.21 -0.14,0.42 -0.2,0.63 0,0.06 0,0.12 -0.07,0.19 v 0 l -0.06,0.2 -0.06,0.21 v 0.09 l -0.15,0.61 c 0,0.06 0,0.11 0,0.18 v 0 a 1.85,1.85 0 0 0 0,0.23 v 0.15 a 2.89,2.89 0 0 0 0,0.29 v 0 a 1.11,1.11 0 0 1 0,0.19 v 0.09 a 4.7,4.7 0 0 0 0,0.53 10.23,10.23 0 0 0 1.67,4.55 c 0.19,0.33 0.4,0.65 0.59,1 l -42,-0.69 a 36.2,36.2 0 0 0 -24.25,8.62 c -12.070002,10.4 -7.420002,20.54 2.16,28.83 10.4,9 26.62,15.85 33.46,18.48 2,0.79 3.22,1.2 3.22,1.2 h 103 l 1.53,0.35 a 71,71 0 0 0 14.27,1.23 149.08,149.08 0 0 0 17.42,-1 c 1.74,-0.2 3.5,-0.43 5.26,-0.62 h 11 l 1,0.19 c 5.11,1.09 10.45,3.9 15.24,1.81 a 5.5,5.5 0 0 0 2.44,-2 h 12.29 c 22.77,0 35.84,-7.53 42.21,-17.87 4.57,-7.41 5.69,-16.26 4.47,-24.8 -2.48,-17.37 -63.41,-17.89 -81.75,-17.65 -0.26,-0.24 -0.53,-0.46 -0.8,-0.67 v 0 c -2.11,-1.66 -4.66,-3.39 -4.93,-6.08 -0.15,-1.61 0.59,-3.22 0.34,-4.82 -0.45,-2.78 -3.52,-4.13 -5.91,-5.6 -8.17,-5 -11.34,-15.61 -10.54,-25.15 0.06,-0.61 0.12,-1.23 0.2,-1.84 v 0 c 0.06,-0.48 0.14,-0.95 0.21,-1.42 a 1.87,1.87 0 0 1 0,-0.25 c 0,0 0,-0.06 0,-0.09 a 279.81,279.81 0 0 0 28.46,7.47 c 36.18,7.6 26.84,-10.53 26.84,-10.53 0,0 -4.08,-25.72 -6.42,-35.66 -2.34,-9.94 -14,-36.24 -14,-36.24 l -0.3,-0.69 c -0.09,-3.23 -1.35,-25.67 -18.66,-30 -5.16,-1.3 -10.72,-2.38 -16.07,-3.76 l -0.38,-0.11 c -1.79,-0.46 -3.55,-1 -5.26,-1.52 -9.48,-3.07 -17.36,-7.75 -19.49,-17.19 -0.11,-0.51 -0.21,-1 -0.29,-1.57 a 32.78,32.78 0 0 0 13,-17 44,44 0 0 0 12.74,-31 2.71,2.71 0 0 0 0,-0.29 c 0,-0.1 0,-0.2 0,-0.3 a 42.31,42.31 0 0 0 -0.25,-4.67 v 0.29 a 44,44 0 0 0 -2.24,-9.77 46,46 0 0 0 11.16,7.44 36,36 0 0 0 15.49,3.21 35.5,35.5 0 0 0 10.2,-1.32 c 8.13,-2.31 15.41,-7.47 23.78,-8.64 a 28.71,28.71 0 0 1 3.19,-0.24 c 8.33,0.17 16.47,3.93 23.93,8 a 276.12,276.12 0 0 1 28.06,17.36 c 8.87,6.25 17.81,13.22 28.47,15.22 a 36.27,36.27 0 0 0 7.2,0.59 55.9,55.9 0 0 0 19.63,-3.76 93.25,93.25 0 0 0 21.79,-11.32 c -0.61,0.15 -1.25,0.33 -1.92,0.49 z m -216,-53.16 c -0.63,-0.26 -1.28,-0.51 -1.93,-0.74 q 0.08,-0.39 0.12,-0.78 c 0.61,0.49 1.21,1 1.8,1.52 z m -81.92,205.17 c 0,0 7.37,-20.61 7.41,-25.74 l 4.56,-13.09 1.69,2.7 c -0.15,0.9 -0.29,1.8 -0.43,2.7 -0.14,0.9 -0.26,1.68 -0.37,2.52 v 0 c -0.12,0.86 -0.22,1.71 -0.29,2.57 v 0 c 0,0.24 0,0.48 -0.05,0.72 0,0.06 0,0.13 0,0.19 v 0.62 c 0,0.09 0,0.19 0,0.28 0,0.09 0,0.31 0,0.46 v 0.32 c 0,0.24 0,0.47 0,0.7 a 2.09,2.09 0 0 0 0,0.25 c 0,0.11 0,0.23 0,0.35 0,0.33 0.05,0.66 0.08,1 0,0 0,0 0,0.06 0,0.06 0,0.1 0,0.14 a 1,1 0 0 1 0,0.17 c 0,0.35 0.1,0.7 0.17,1 0.07,0.3 0.16,0.73 0.25,1.1 v 0.11 c 0.88,3.25 2.81,6.11 3.86,9.31 v 0 c 0.09,0.29 0.18,0.59 0.26,0.88 l 0.09,0.36 0.15,0.62 0.09,0.45 0.12,0.66 c 0,0.09 0,0.18 0,0.27 0,0.32 0.09,0.64 0.13,0.95 v 0 a 39.28,39.28 0 0 1 0.2,5.53 c 0,0.57 0,1.13 -0.06,1.7 -7.89,1.31 -15.27,1.77 -17.86,0.14 z m 119.82,-38.27 c 1.83,7.61 12.64,32.42 12.64,32.42 -2,1.51 -9.48,1.18 -17.38,0.32 0.15,-0.38 0.29,-0.75 0.43,-1.13 l 0.22,-0.6 0.39,-1 c 0.24,-0.67 0.49,-1.33 0.73,-2 l 0.45,-1.32 c 0,-0.05 0,-0.11 0,-0.17 0.15,-0.46 0.29,-0.92 0.42,-1.39 0.06,-0.18 0.11,-0.37 0.16,-0.56 v -0.06 l 0.23,-0.89 c 0,-0.15 0.07,-0.29 0.11,-0.44 l 0.18,-0.76 c 0,-0.11 0,-0.22 0.07,-0.34 a 2,2 0 0 0 0,-0.24 c 0,-0.13 0.06,-0.26 0.08,-0.38 0.07,-0.31 0.13,-0.63 0.18,-0.94 a 2.74,2.74 0 0 0 0,-0.28 1,1 0 0 0 0,-0.17 c 0,-0.22 0.08,-0.45 0.11,-0.68 q 0.15,-1 0.27,-1.95 c 0,-0.13 0,-0.26 0,-0.4 a 5.42,5.42 0 0 0 0.06,-0.58 c 0,-0.18 0,-0.36 0,-0.54 v -0.41 c 0,-0.24 0,-0.48 0.05,-0.72 0.05,-0.24 0,-0.32 0,-0.48 a 0.92,0.92 0 0 0 0,-0.16 v 0 c 0,-0.6 0,-1.2 0,-1.8 v -0.67 c 0,-0.21 0,-0.43 0,-0.64 v 0 c 0,-0.28 0,-0.55 0,-0.83 a 0.25,0.25 0 0 0 0,-0.08 c 0,-0.19 0,-0.39 0,-0.58 0,0 0,0 0,-0.08 0,-0.08 0,-0.16 0,-0.24 0,-0.48 -0.06,-1 -0.1,-1.45 0,-0.16 0,-0.32 0,-0.48 a 44.78,44.78 0 0 0 -0.64,-4.44 z"
     id="path95"
     inkscape:connector-curvature="0"
     style="fill:url(#e9b7614d-2d40-4533-bad7-5d0811b316bd)" />
  <path
     d="m 304.0082,389.79148 -23.17,21.43 -1.72,4.49 -1.17,3 -97.9,4.64 -5.26,-8.34 -1.69,-2.67 -4.63,13.32 -23.19,-14.44 c 0,0 2.89,-19.69 5.21,-29.54 2.21,-9.41 9.19,-15.12 33.6,-22.18 l 1,-0.31 2.44,-0.68 c 0.52,-0.14 1,-0.29 1.53,-0.46 11.8,-3.83 17.06,-12.45 19.31,-20.61 a 47.74,47.74 0 0 0 1.17,-18.32 c 0,0 35.63,-11.29 34.47,11.3 a 25.47,25.47 0 0 0 0.52,6.88 c 2.12,9.35 9.94,14 19.35,17 q 2.55,0.82 5.22,1.51 l 0.38,0.1 c 5.31,1.37 10.83,2.45 16,3.73 18.53,4.66 18.53,30.15 18.53,30.15 z"
     id="path97"
     inkscape:connector-curvature="0"
     style="fill:#db8b8b" />
  <path
     d="m 221.4982,219.45148 c 2.06,-2.75 5.28,-4.38 8.47,-5.68 15.08,-6.16 34.09,-6.45 46,4.65 3.59,3.34 6.31,7.49 9.57,11.16 15.39,17.37 41.8,22.05 64.11,15.65 5.16,-1.48 10.4,-3.5 15.72,-2.81 a 22.5,22.5 0 0 1 8.5,3.21 c 12.58,7.48 19.71,21.27 29.14,32.47 6.81,8.09 15.16,15.07 24.88,19.27 9.72,4.2 20.88,5.44 31,2.38 a 92.85,92.85 0 0 1 -21.61,11.2 c -8.14,2.94 -17,4.73 -25.47,3.13 -10.59,-2 -19.46,-8.89 -28.27,-15.08 a 273.43,273.43 0 0 0 -27.85,-17.19 c -8.69,-4.68 -18.3,-9 -28.08,-7.64 -8.31,1.15 -15.53,6.27 -23.61,8.55 a 36,36 0 0 1 -24.43,-1.77 c -20.67,-9.4 -30.13,-37.12 -52.26,-42.23 -5.66,-1.3 -6.7,0.7 -7.86,-6.23 -0.75,-4.46 -0.76,-9.29 2.05,-13.04 z"
     id="path99"
     inkscape:connector-curvature="0"
     style="fill:#35323e" />
  <path
     d="m 445.0982,301.95148 c -8.14,2.94 -17,4.73 -25.47,3.13 -10.59,-2 -19.46,-8.88 -28.27,-15.08 a 273.43,273.43 0 0 0 -27.85,-17.19 c -8.69,-4.68 -18.3,-9 -28.08,-7.64 -8.31,1.15 -15.53,6.27 -23.61,8.56 a 36,36 0 0 1 -24.43,-1.78 c -20.67,-9.4 -30.13,-37.12 -52.26,-42.22 -5.66,-1.31 -6.7,0.69 -7.87,-6.24 a 21.15,21.15 0 0 1 0.16,-9.1 17.33,17.33 0 0 0 -7.08,5.1 c -2.81,3.74 -2.8,8.57 -2,13 1.17,6.93 2.2,4.93 7.86,6.23 22.13,5.11 31.59,32.83 52.26,42.23 a 36,36 0 0 0 24.43,1.84 c 8.08,-2.28 15.3,-7.4 23.61,-8.55 9.78,-1.36 19.39,3 28.08,7.64 a 274.67,274.67 0 0 1 27.86,17.19 c 8.81,6.19 17.68,13.1 28.26,15.08 8.51,1.6 17.33,-0.19 25.47,-3.13 a 92.85,92.85 0 0 0 21.64,-11.22 40.51,40.51 0 0 1 -11.2,1.68 z"
     id="path101"
     inkscape:connector-curvature="0"
     style="opacity:0.1" />
  <circle
     cx="226.09821"
     cy="288.13147"
     r="43.73"
     id="circle103"
     style="fill:#35323e" />
  <path
     d="m 226.0982,322.02148 a 43.74,43.74 0 0 1 -43.48,-39.07 44.29,44.29 0 0 0 -0.25,4.63 43.74,43.74 0 1 0 87.47,0 44.29,44.29 0 0 0 -0.25,-4.63 43.74,43.74 0 0 1 -43.49,39.07 z"
     id="path105"
     inkscape:connector-curvature="0"
     style="opacity:0.1" />
  <path
     d="m 244.5782,337.30148 a 32.47,32.47 0 0 1 -36.16,0.14 47.74,47.74 0 0 0 1.17,-18.32 c 0,0 35.63,-11.29 34.47,11.3 a 25.47,25.47 0 0 0 0.52,6.88 z"
     id="path107"
     inkscape:connector-curvature="0"
     style="opacity:0.1" />
  <circle
     cx="226.38818"
     cy="308.69147"
     r="32.439999"
     id="circle109"
     style="fill:#db8b8b" />
  <path
     d="m 221.8682,397.21148 a 25,25 0 0 1 4,5.66 c 1.69,3.32 2.62,7.35 1.11,10.77 a 15.32,15.32 0 0 1 2.18,-12.57 23.47,23.47 0 0 1 10.12,-8.12"
     id="path111"
     inkscape:connector-curvature="0"
     style="opacity:0.05" />
  <path
     d="m 367.6282,551.95148 c -6.32,10.24 -19.29,17.71 -41.89,17.71 h -182.46 c 0,0 -1.19,-0.41 -3.19,-1.19 -6.79,-2.61 -22.89,-9.39 -33.22,-18.32 -9.500002,-8.21 -14.130002,-18.25 -2.14,-28.57 a 36,36 0 0 1 24.07,-8.53 l 61.4,1 95.57,-4.1 c 0,0 83.41,-2.9 86.31,17.37 1.2,8.51 0.09,17.28 -4.45,24.63 z"
     id="path113"
     inkscape:connector-curvature="0"
     style="fill:#35323e" />
  <path
     d="m 293.2782,515.95148 c -1,2.18 -3.7,2.7 -6,3.37 -9.46,2.77 -15.3,12 -22.84,18.31 a 43.66,43.66 0 0 1 -12.77,7.45 c -10.56,4 -22.33,3.63 -33.3,1.07 -10.97,-2.56 -23.45,-4.72 -31.7,-12.4 a 91,91 0 0 1 -16.77,-21 10,10 0 0 1 -1.66,-4.51 4.52,4.52 0 0 1 0,-0.52 1.53,1.53 0 0 1 0,-0.3 1.43,1.43 0 0 1 0,-0.29 c 0,-0.13 0,-0.26 0.07,-0.38 a 3,3 0 0 1 0.1,-0.43 c 0,-0.15 0.07,-0.29 0.11,-0.44 0.04,-0.15 0.09,-0.28 0.13,-0.42 0.2,-0.66 0.44,-1.3 0.64,-2 0.07,-0.22 0.13,-0.44 0.18,-0.65 v 0 a 6.4,6.4 0 0 0 0.23,-2.09 16.82,16.82 0 0 0 -1.05,-3.69 c 0,-0.14 -0.09,-0.29 -0.13,-0.43 -0.04,-0.14 -0.09,-0.33 -0.13,-0.49 -0.07,-0.32 -0.14,-0.64 -0.2,-1 -0.06,-0.36 -0.09,-0.65 -0.12,-1 a 14.41,14.41 0 0 1 -0.07,-1.46 c 0,-0.27 0,-0.54 0,-0.8 a 0.14,0.14 0 0 1 0,-0.09 c 0,-0.27 0,-0.53 0.05,-0.79 0.06,-0.56 0.14,-1.13 0.25,-1.69 0,-0.31 0.11,-0.61 0.18,-0.93 q 0.06,-0.22 0.12,-0.48 a 0.45,0.45 0 0 1 0,-0.11 v 0 c 1,-4 2.94,-7.89 4.54,-11.68 a 74.36,74.36 0 0 0 5.83,-27 38.43,38.43 0 0 0 -0.2,-5.47 v 0 c 0,-0.2 -0.05,-0.39 -0.07,-0.59 -0.02,-0.2 -0.09,-0.64 -0.16,-1 -0.07,-0.36 -0.13,-0.7 -0.21,-1 -0.08,-0.3 -0.11,-0.44 -0.18,-0.66 -0.07,-0.22 -0.16,-0.58 -0.25,-0.87 -1,-3.18 -3,-6 -3.85,-9.26 q -0.15,-0.6 -0.27,-1.2 c -0.07,-0.35 -0.13,-0.69 -0.17,-1 0,-0.12 0,-0.24 0,-0.37 -0.06,-0.52 -0.09,-1 -0.1,-1.57 0,-0.23 0,-0.45 0,-0.69 0,-0.24 0,-0.52 0,-0.78 0,-0.26 0,-0.71 0.05,-1.07 0.05,-0.36 0,-0.48 0,-0.72 0,-0.44 0.08,-0.87 0.14,-1.29 0.06,-0.42 0.1,-0.86 0.16,-1.29 0.11,-0.83 0.24,-1.67 0.37,-2.5 0.13,-0.83 0.28,-1.79 0.43,-2.68 0.7,-4.09 1.63,-8.17 3.73,-11.72 3.08,-5.19 8.59,-9.2 9.54,-15.16 a 19.54,19.54 0 0 0 -0.55,-7.12 c -0.12,-0.52 -0.23,-1 -0.34,-1.55 a 151.88,151.88 0 0 1 -3.06,-20 l 1,-0.31 2.44,-0.68 c 0.52,-0.14 1,-0.29 1.53,-0.46 a 126.55,126.55 0 0 0 2.65,20 c 1.1,5.14 2.55,10.3 5.3,14.8 2.75,4.5 6.92,8.3 12,9.65 3.37,0.9 6.94,0.68 10.42,0.38 7,-0.61 13.95,-1.57 20.84,-2.86 5,-1 10.07,-2.09 14.55,-4.54 a 10,10 0 0 0 3.11,-2.39 11.87,11.87 0 0 0 1.95,-4.57 125.87,125.87 0 0 0 4,-34.24 q 2.55,0.82 5.22,1.51 l 0.38,0.1 c 0,1.89 -0.09,3.77 -0.18,5.65 -0.05,1.14 -0.12,2.28 -0.19,3.43 0,0.64 -0.09,1.29 -0.15,1.93 0,0.46 -0.09,0.93 -0.13,1.39 0,0.14 0,0.28 -0.05,0.42 -0.06,0.56 -0.12,1.12 -0.19,1.67 -0.09,0.75 -0.2,1.5 -0.31,2.25 l -0.15,1 c -0.21,1.44 -0.43,2.89 -0.61,4.34 v 0 a 41.69,41.69 0 0 0 -0.37,6.5 c 0.16,4.74 2.82,9.42 5.66,13.22 3.41,4.57 4.3,9.66 5.67,15.19 0.22,0.91 0.42,1.83 0.59,2.75 0.28,1.46 0.49,2.93 0.63,4.4 0,0.28 0,0.56 0.07,0.84 0.07,0.28 0,0.42 0,0.62 0,0.2 0,0.46 0,0.69 0,0.23 0,0.48 0,0.73 0,0.25 0,0.55 0,0.82 0,0.77 0,1.55 0,2.32 0,0.27 0,0.56 0,0.84 v 0.15 c 0,0.23 0,0.46 0,0.7 0,0.24 0,0.59 -0.07,0.9 -0.07,0.31 0,0.36 0,0.53 l -0.06,0.58 c 0,0.29 -0.07,0.59 -0.11,0.88 -0.04,0.29 -0.09,0.71 -0.14,1.06 -0.05,0.35 -0.11,0.71 -0.17,1.06 -0.11,0.66 -0.24,1.33 -0.39,2 -0.18,0.83 -0.38,1.65 -0.61,2.47 -0.06,0.25 -0.13,0.49 -0.2,0.73 -0.26,0.9 -0.55,1.79 -0.87,2.68 -1.13,3.13 -2.35,6.26 -3.5,9.4 -0.19,0.52 -0.38,1 -0.56,1.57 -0.18,0.57 -0.37,1 -0.54,1.55 v 0 c -0.18,0.53 -0.35,1.06 -0.53,1.58 -0.18,0.52 -0.33,1 -0.49,1.58 -0.33,1.08 -0.63,2.16 -0.91,3.25 -0.08,0.32 -0.17,0.64 -0.24,1 0,0.14 -0.07,0.3 -0.1,0.44 -0.03,0.14 -0.07,0.29 -0.1,0.44 -0.15,0.68 -0.29,1.36 -0.42,2.05 l -0.15,0.86 c -0.09,0.57 -0.17,1.13 -0.25,1.69 v 0 c -0.08,0.6 -0.14,1.22 -0.2,1.83 -0.8,9.45 2.35,20 10.46,24.92 2.38,1.45 5.42,2.79 5.87,5.54 0.25,1.59 -0.49,3.18 -0.33,4.78 0.26,2.66 2.79,4.38 4.89,6 v 0 c 2.34,1.72 4.34,4.38 3.34,6.82 z"
     id="path115"
     inkscape:connector-curvature="0"
     style="fill:#000000" />
  <g
     id="g129"
     style="opacity:0.1"
     transform="translate(-539.2218,-189.26852)">
    <path
       d="m 880,705.71 a 33.74,33.74 0 0 0 0.19,7.44 c 1.12,-8.77 4.8,-17 7.8,-25.4 a 47.39,47.39 0 0 0 2.53,-20.59 46.8,46.8 0 0 1 -2.53,11.32 c -3.26,8.93 -7.24,17.77 -7.99,27.23 z"
       transform="translate(-71.5,-57.78)"
       id="path117"
       inkscape:connector-curvature="0" />
    <path
       d="m 880.25,603 c 0,1.89 -0.09,3.77 -0.18,5.65 -0.05,1.14 -0.11,2.28 -0.19,3.43 0,0.64 -0.09,1.29 -0.15,1.93 0,0.46 -0.09,0.93 -0.13,1.39 0,0.14 0,0.28 -0.05,0.42 -0.06,0.56 -0.12,1.12 -0.19,1.67 -0.09,0.75 -0.2,1.5 -0.31,2.25 l -0.15,1 c -0.21,1.44 -0.43,2.89 -0.61,4.34 a 14.52,14.52 0 0 1 -0.37,-2.77 c -0.16,-4.73 0.85,-9.41 1.44,-14.12 0.22,-1.76 0.39,-3.54 0.51,-5.32 z"
       transform="translate(-71.5,-57.78)"
       id="path119"
       inkscape:connector-curvature="0" />
    <path
       d="m 788.74,686.56 a 21,21 0 0 1 0.87,4.15 c 0.1,-1.26 0.17,-2.53 0.2,-3.79 a 28.6,28.6 0 0 0 -1.07,-9.63 c -1,-3.18 -3,-6 -3.85,-9.25 -0.06,-0.26 -0.13,-0.51 -0.18,-0.76 a 25.2,25.2 0 0 0 0.18,10 c 0.88,3.25 2.81,6.1 3.85,9.28 z"
       transform="translate(-71.5,-57.78)"
       id="path121"
       inkscape:connector-curvature="0" />
    <path
       d="m 900.85,756.26 v 0 c -0.93,0.34 -1.93,0.59 -2.85,0.86 -9.46,2.77 -15.3,12 -22.84,18.31 a 43.69,43.69 0 0 1 -12.77,7.46 c -10.56,3.94 -22.33,3.62 -33.3,1.06 -10.97,-2.56 -23.45,-4.72 -31.7,-12.39 a 91.55,91.55 0 0 1 -16.77,-21 l -0.35,-0.62 c -0.45,1.79 -1.36,3.54 -1.3,5.38 a 9.89,9.89 0 0 0 1.65,4.51 91.28,91.28 0 0 0 16.77,21 c 8.25,7.68 20.73,9.84 31.7,12.4 10.97,2.56 22.74,2.88 33.3,-1.07 a 43.44,43.44 0 0 0 12.77,-7.45 c 7.54,-6.35 13.38,-15.54 22.84,-18.31 2.28,-0.67 5,-1.19 6,-3.37 1,-2.47 -1,-5.12 -3.15,-6.77 z"
       transform="translate(-71.5,-57.78)"
       id="path123"
       inkscape:connector-curvature="0" />
    <path
       d="m 780.48,738.54 a 15.86,15.86 0 0 0 -1,-3.64 16.81,16.81 0 0 0 -0.14,8.79 c 0.45,-1.69 1.26,-3.39 1.14,-5.15 z"
       transform="translate(-71.5,-57.78)"
       id="path125"
       inkscape:connector-curvature="0" />
    <path
       d="m 798.78,626 a 12.54,12.54 0 0 1 -0.55,2.15 c -0.12,-0.52 -0.23,-1 -0.34,-1.55 a 151.88,151.88 0 0 1 -3.06,-20 l 1,-0.31 q 0.81,5.57 2,11 c 0.69,2.85 1.41,5.78 0.95,8.71 z"
       transform="translate(-71.5,-57.78)"
       id="path127"
       inkscape:connector-curvature="0" />
  </g>
  <path
     d="m 152.5382,403.40148 -6.66,4.93 c 0,0 -14.08,31.62 -13.05,49.35 0.16,2.82 0.24,5.65 0.19,8.48 -0.11,5.74 1.54,15 13.73,12.55 17.37,-3.48 60.24,-19.12 60.24,-19.12 l -2.9,-13.9 c 0,0 -36.49,9.26 -42.81,5.26 0,0 8.4,-23.46 7.24,-26.35 -1.16,-2.89 -15.98,-21.2 -15.98,-21.2 z"
     id="path131"
     inkscape:connector-curvature="0"
     style="fill:#db8b8b" />
  <path
     d="m 300.2782,380.81148 4,9.27 c 0,0 11.59,26.07 13.9,35.91 2.31,9.84 6.38,35.34 6.38,35.34 0,0 9.26,18 -26.65,10.42 -35.91,-7.58 -51,-16.79 -51,-16.79 l 7,-12.75 c 0,0 34.17,6.37 38.81,2.9 0,0 -13.9,-31.86 -12.75,-34.18 1.15,-2.32 20.31,-30.12 20.31,-30.12 z"
     id="path133"
     inkscape:connector-curvature="0"
     style="fill:#db8b8b" />
  <path
     d="m 198.2782,449.74148 5.79,-5.21 c 0,0 11,-51 20.86,-43.44 9.86,7.56 -4.06,51 -4.06,51 l -13.9,7.53 z"
     id="path135"
     inkscape:connector-curvature="0"
     style="fill:#db8b8b" />
  <path
     d="m 257.3782,446.27148 -3.47,-4.06 c 0,0 -12.17,-50.39 -22.59,-41.7 -10.42,8.69 10.96,50.44 10.96,50.44 l 4.64,4.06 9.26,-2.32 z"
     id="path137"
     inkscape:connector-curvature="0"
     style="fill:#db8b8b" />
  <path
     d="m 281.1282,539.53148 c 0,0 -43.51,4.54 -47.24,7.19 -3.73,2.65 -1.41,18.87 -1.41,18.87 l 57.34,-3.47 z"
     id="path139"
     inkscape:connector-curvature="0"
     style="fill:#db8b8b" />
  <path
     d="m 281.1282,539.53148 c 0,0 -43.51,4.54 -47.24,7.19 -3.73,2.65 -1.41,18.87 -1.41,18.87 l 57.34,-3.47 z"
     id="path141"
     inkscape:connector-curvature="0"
     style="opacity:0.1" />
  <path
     d="m 355.5682,552.56148 c -6.32,10.24 -8.39,15.93 -31,15.93 h -49.81 v -30.12 l 6.37,-3.48 c 27.23,-12.16 57.35,-8.11 57.35,-8.11 z"
     id="path143"
     inkscape:connector-curvature="0"
     style="opacity:0.1" />
  <path
     d="m 367.6282,551.95148 c -6.32,10.24 -19.29,17.71 -41.89,17.71 h -49.82 v -30.13 l 6.36,-3.48 c 27.23,-12.16 57.35,-8.11 57.35,-8.11 z"
     id="path145"
     inkscape:connector-curvature="0"
     style="fill:#35323e" />
  <path
     d="m 260.0982,544.72148 c 2,-0.52 4.15,-1.13 6.23,-0.8 a 8.84,8.84 0 0 1 6,4.32 7.71,7.71 0 0 0 1.74,2.38 5.53,5.53 0 0 0 2.84,0.81 c 6.85,0.65 13.83,0.64 20.49,2.39 6.66,1.75 13.19,5.62 16.09,11.87 a 5.27,5.27 0 0 1 0.6,2.29 4.54,4.54 0 0 1 -3,3.65 c -4.75,2.07 -10.06,-0.71 -15.13,-1.8 -5.72,-1.23 -11.64,-0.23 -17.46,0.43 a 149,149 0 0 1 -17.29,1 70.78,70.78 0 0 1 -14.15,-1.31 c -2.61,-0.55 -5.18,-1.32 -7.82,-1.67 a 53.27,53.27 0 0 0 -7.58,-0.28 q -17.57,0.2 -35.1,-0.53 c -3.71,-0.15 -7.49,-0.34 -10.94,-1.7 a 3.46,3.46 0 0 1 -1.86,-1.34 3.51,3.51 0 0 1 -0.37,-1.63 33.11,33.11 0 0 1 3.32,-16.4 c 0.81,-1.67 2.4,-5.55 4.2,-6.37 1.8,-0.82 6.54,1.17 8.55,1.62 12.79,2.9 25.8,5.39 39,5.48 a 86.49,86.49 0 0 0 21.64,-2.41 z"
     id="path147"
     inkscape:connector-curvature="0"
     style="fill:#db8b8b" />
  <path
     d="m 195.3982,537.79148 -7.74,30.16 -47.58,-1.19 c -6.79,-2.61 10.33,-9.87 0,-18.79 l -12.45,-28.72 c 0,0 15.64,2.32 26.07,6.38 10.43,4.06 16.8,3.47 16.8,3.47 0,0 22.59,5.79 24.9,8.69 z"
     id="path149"
     inkscape:connector-curvature="0"
     style="opacity:0.1" />
  <path
     d="m 195.3982,539.53148 -7.74,30.12 -47.58,-1.19 c -6.79,-2.61 -22.89,-9.39 -33.22,-18.32 l 20.77,-29.19 c 0,0 15.64,2.32 26.07,6.37 10.43,4.05 16.8,3.48 16.8,3.48 0,0 22.59,5.83 24.9,8.73 z"
     id="path151"
     inkscape:connector-curvature="0"
     style="fill:#35323e" />
  <ellipse
     cx="-251.26897"
     cy="257.59561"
     rx="16.799999"
     ry="34.700001"
     transform="rotate(-83.23)"
     id="ellipse153"
     style="fill:#35323e" />
  <circle
     cx="228.70819"
     cy="244.40149"
     r="12.16"
     id="circle155"
     style="fill:#35323e" />
  <path
     d="m 216.5482,244.40148 c 0,0 15.25,-2.94 22.68,2 7.43,4.94 -22.68,-2 -22.68,-2 z"
     id="path157"
     inkscape:connector-curvature="0"
     style="opacity:0.1" />
  <path
     d="m 269.7782,282.82148 c 0,1 -0.67,2.17 -3,0.13 -5.88,-5.13 -19.41,-18.65 -38,-18.65 -19.38,0 -35.09,13.87 -42,18.65 -2.34,1.62 -4,0.74 -4,-0.13 0,-3.41 20,-30.87 46,-30.87 26,0 41,27.46 41,30.87 z"
     id="path159"
     inkscape:connector-curvature="0"
     style="fill:#000000" />
  <path
     d="m 268.6382,279.54148 c -0.3,0.65 -1.12,0.93 -2.86,-0.59 -5.88,-5.13 -19.41,-18.65 -38,-18.65 -19.38,0 -35.09,13.87 -42,18.65 a 5.25,5.25 0 0 1 -1.63,0.79 8.3,8.3 0 0 0 -1.37,3.08 c 0,0.87 1.66,1.75 4,0.13 6.91,-4.78 22.62,-18.65 42,-18.65 18.59,0 32.12,13.52 38,18.65 2.33,2 3,0.84 3,-0.13 a 10.18,10.18 0 0 0 -1.14,-3.28 z"
     id="path161"
     inkscape:connector-curvature="0"
     style="opacity:0.1" />
  <rect
     x="266.88818"
     y="282.69147"
     width="3.27"
     height="18.51"
     id="rect163"
     style="fill:#6a5c99" />
  <path
     d="m 262.5282,294.66148 v 0 a 11.25,11.25 0 0 1 11.25,11.25 v 0.73 a 11.25,11.25 0 0 1 -11.25,11.25 v 0 z"
     id="path165"
     inkscape:connector-curvature="0"
     style="fill:#000000" />
  <rect
     x="260.34821"
     y="293.57147"
     width="5.0799999"
     height="25.4"
     rx="2.54"
     id="rect167"
     style="fill:#6a5c99" />
  <rect
     x="-186.05818"
     y="-301.56149"
     width="3.27"
     height="18.51"
     transform="scale(-1)"
     id="rect169"
     style="fill:#6a5c99" />
  <path
     d="m 190.4182,318.25148 v 0 a 11.25,11.25 0 0 1 -11.25,-11.25 v -0.73 a 11.25,11.25 0 0 1 11.25,-11.25 v 0 z"
     id="path171"
     inkscape:connector-curvature="0"
     style="fill:#000000" />
  <rect
     x="-192.58821"
     y="-319.34149"
     width="5.0799999"
     height="25.4"
     rx="2.54"
     transform="scale(-1)"
     id="rect173"
     style="fill:#6a5c99" />
  <ellipse
     cx="434.97821"
     cy="520.11151"
     rx="33.799999"
     ry="6.5"
     id="ellipse175"
     style="fill:#000000" />
  <ellipse
     cx="434.4082"
     cy="517.3515"
     rx="3.9400001"
     ry="5.1500001"
     id="ellipse177"
     style="fill:#3f3d56" />
  <ellipse
     cx="434.4082"
     cy="511.05148"
     rx="3.9400001"
     ry="5.1500001"
     id="ellipse179"
     style="fill:#3f3d56" />
  <ellipse
     cx="434.4082"
     cy="504.76151"
     rx="3.9400001"
     ry="5.1500001"
     id="ellipse181"
     style="fill:#3f3d56" />
  <ellipse
     cx="434.4082"
     cy="498.46146"
     rx="3.9400001"
     ry="5.1500001"
     id="ellipse183"
     style="fill:#3f3d56" />
  <ellipse
     cx="434.4082"
     cy="492.16147"
     rx="3.9400001"
     ry="5.1500001"
     id="ellipse185"
     style="fill:#3f3d56" />
  <ellipse
     cx="434.4082"
     cy="485.87149"
     rx="3.9400001"
     ry="5.1500001"
     id="ellipse187"
     style="fill:#3f3d56" />
  <ellipse
     cx="434.4082"
     cy="479.5715"
     rx="3.9400001"
     ry="5.1500001"
     id="ellipse189"
     style="fill:#3f3d56" />
  <path
     d="m 449.1482,436.48148 a 19.81,19.81 0 0 0 1.46,-2.15 l -10.34,-1.7 11.18,0.08 a 18.82,18.82 0 0 0 0.36,-14.93 l -15,7.78 13.84,-10.17 a 18.85,18.85 0 1 0 -31.14,21.09 19.65,19.65 0 0 0 -2.15,3.44 l 13.43,7 -14.32,-4.8 a 18.89,18.89 0 0 0 3,17.7 18.85,18.85 0 1 0 29.64,0 18.87,18.87 0 0 0 0,-23.31 z"
     id="path191"
     inkscape:connector-curvature="0"
     style="fill:#000000" />
  <path
     d="m 415.4782,448.14148 a 18.78,18.78 0 0 0 4,11.65 18.85,18.85 0 1 0 29.64,0 c 2.55,-3.2 -33.64,-13.77 -33.64,-11.65 z"
     id="path193"
     inkscape:connector-curvature="0"
     style="opacity:0.1" />
</svg>
