<?xml version="1.0" encoding="utf-8"?>
<svg xmlns="http://www.w3.org/2000/svg" xmlns:xlink="http://www.w3.org/1999/xlink" style="background: rgb(8, 170, 225); display: block; position: relative; shape-rendering: auto;" width="256" height="256" preserveAspectRatio="xMidYMid" viewBox="0 0 256 256"><g transform="scale(1)"><g transform="translate(39.1503 0)">
<path d="M94.6,56.2c-1-4.2-3.7-7.6-7.2-9.5c1.6-1.7,2.7-4.1,2.7-6.7c0-5.4-4.4-9.7-9.7-9.7c-3.2,0-6.1,1.6-7.8,4 c-2.5-4.5-7.3-7.6-12.8-7.6c-3.4,0-6.4,1.1-8.9,3.1c-2.4-4.7-7.3-7.9-13-7.9c-5.6,0-10.5,3.2-12.9,7.8c-1.3-0.3-2.7-0.6-4.1-0.6 C12.1,29.1,5,36.1,5,44.9c0,6,3.4,11.3,8.3,13.9c-0.2,1.3-0.2,2.6,0.1,3.9c1.2,5.3,6.5,8.6,11.8,7.4c0.3-0.1,0.6-0.1,0.8-0.2 c2.9,6,9.6,9.5,16.4,8c5.5-1.3,9.6-5.5,10.9-10.6c2.8,1.3,6.1,1.7,9.4,1c1.8-0.4,3.4-1.1,4.8-2.1c3,5.7,9.6,9,16.2,7.5 C91.5,71.9,96.4,64,94.6,56.2z" fill="#55bedb" transform="translate(51.37661065603834, 113.5590882282591) scale(0.4066666666666667) translate(-36, -24)"></path>
  <animateTransform attributeName="transform" type="translate" keyTimes="0;1" repeatCount="indefinite" dur="5s" values="0;256"></animateTransform>
</g><g transform="translate(39.1503 0)">
<path d="M94.6,56.2c-1-4.2-3.7-7.6-7.2-9.5c1.6-1.7,2.7-4.1,2.7-6.7c0-5.4-4.4-9.7-9.7-9.7c-3.2,0-6.1,1.6-7.8,4 c-2.5-4.5-7.3-7.6-12.8-7.6c-3.4,0-6.4,1.1-8.9,3.1c-2.4-4.7-7.3-7.9-13-7.9c-5.6,0-10.5,3.2-12.9,7.8c-1.3-0.3-2.7-0.6-4.1-0.6 C12.1,29.1,5,36.1,5,44.9c0,6,3.4,11.3,8.3,13.9c-0.2,1.3-0.2,2.6,0.1,3.9c1.2,5.3,6.5,8.6,11.8,7.4c0.3-0.1,0.6-0.1,0.8-0.2 c2.9,6,9.6,9.5,16.4,8c5.5-1.3,9.6-5.5,10.9-10.6c2.8,1.3,6.1,1.7,9.4,1c1.8-0.4,3.4-1.1,4.8-2.1c3,5.7,9.6,9,16.2,7.5 C91.5,71.9,96.4,64,94.6,56.2z" fill="#55bedb" transform="translate(-204.62338934396166, 113.5590882282591) scale(0.4066666666666667) translate(-36, -24)"></path>
  <animateTransform attributeName="transform" type="translate" keyTimes="0;1" repeatCount="indefinite" dur="5s" values="0;256"></animateTransform>
</g><g transform="translate(39.1503 0)">
<path d="M85.3,55.6c0.3-1.1,0.5-2.2,0.6-3.4c0.5-8.5-6-15.7-14.5-16.2c-2.1-0.1-4.2,0.2-6,0.9c-1.5-8.9-9-16-18.4-16.5 C36.1,19.7,26.8,28,26.2,38.9c-0.1,1.1,0,2.3,0.1,3.3c-6.3,0.1-11.6,5-11.9,11.4c0,0.8,0,1.5,0.1,2.2c-0.3,0-0.5-0.1-0.8-0.1 C9.2,55.6,5.3,59,5,63.6s3.2,8.4,7.8,8.7c0.8,0,1.5,0,2.2-0.2c2.5,2.9,8,5.1,14.6,5.5c3.7,0.2,7.2-0.2,10-1.1 c1.7,1.8,4.3,3.1,7.3,3.2c4,0.2,7.5-1.6,9.3-4.3c2.1,1,4.6,1.7,7.4,1.9c4.5,0.3,8.6-1,11.1-3c2,1.7,4.6,2.8,7.6,3 C89,77.6,94.6,73,95,67C95.3,61.5,91.1,56.7,85.3,55.6z" fill="#55bedb" transform="translate(271.25422068614733, 29.8995784708556) scale(0.4066666666666667) translate(-36, -24)"></path>
  <animateTransform attributeName="transform" type="translate" keyTimes="0;1" repeatCount="indefinite" dur="5s" values="0;256"></animateTransform>
</g><g transform="translate(39.1503 0)">
<path d="M85.3,55.6c0.3-1.1,0.5-2.2,0.6-3.4c0.5-8.5-6-15.7-14.5-16.2c-2.1-0.1-4.2,0.2-6,0.9c-1.5-8.9-9-16-18.4-16.5 C36.1,19.7,26.8,28,26.2,38.9c-0.1,1.1,0,2.3,0.1,3.3c-6.3,0.1-11.6,5-11.9,11.4c0,0.8,0,1.5,0.1,2.2c-0.3,0-0.5-0.1-0.8-0.1 C9.2,55.6,5.3,59,5,63.6s3.2,8.4,7.8,8.7c0.8,0,1.5,0,2.2-0.2c2.5,2.9,8,5.1,14.6,5.5c3.7,0.2,7.2-0.2,10-1.1 c1.7,1.8,4.3,3.1,7.3,3.2c4,0.2,7.5-1.6,9.3-4.3c2.1,1,4.6,1.7,7.4,1.9c4.5,0.3,8.6-1,11.1-3c2,1.7,4.6,2.8,7.6,3 C89,77.6,94.6,73,95,67C95.3,61.5,91.1,56.7,85.3,55.6z" fill="#55bedb" transform="translate(271.25422068614733, 285.8995784708556) scale(0.4066666666666667) translate(-36, -24)"></path>
  <animateTransform attributeName="transform" type="translate" keyTimes="0;1" repeatCount="indefinite" dur="5s" values="0;256"></animateTransform>
</g><g transform="translate(39.1503 0)">
<path d="M85.3,55.6c0.3-1.1,0.5-2.2,0.6-3.4c0.5-8.5-6-15.7-14.5-16.2c-2.1-0.1-4.2,0.2-6,0.9c-1.5-8.9-9-16-18.4-16.5 C36.1,19.7,26.8,28,26.2,38.9c-0.1,1.1,0,2.3,0.1,3.3c-6.3,0.1-11.6,5-11.9,11.4c0,0.8,0,1.5,0.1,2.2c-0.3,0-0.5-0.1-0.8-0.1 C9.2,55.6,5.3,59,5,63.6s3.2,8.4,7.8,8.7c0.8,0,1.5,0,2.2-0.2c2.5,2.9,8,5.1,14.6,5.5c3.7,0.2,7.2-0.2,10-1.1 c1.7,1.8,4.3,3.1,7.3,3.2c4,0.2,7.5-1.6,9.3-4.3c2.1,1,4.6,1.7,7.4,1.9c4.5,0.3,8.6-1,11.1-3c2,1.7,4.6,2.8,7.6,3 C89,77.6,94.6,73,95,67C95.3,61.5,91.1,56.7,85.3,55.6z" fill="#55bedb" transform="translate(15.254220686147335, 29.8995784708556) scale(0.4066666666666667) translate(-36, -24)"></path>
  <animateTransform attributeName="transform" type="translate" keyTimes="0;1" repeatCount="indefinite" dur="5s" values="0;256"></animateTransform>
</g><g transform="translate(39.1503 0)">
<path d="M85.3,55.6c0.3-1.1,0.5-2.2,0.6-3.4c0.5-8.5-6-15.7-14.5-16.2c-2.1-0.1-4.2,0.2-6,0.9c-1.5-8.9-9-16-18.4-16.5 C36.1,19.7,26.8,28,26.2,38.9c-0.1,1.1,0,2.3,0.1,3.3c-6.3,0.1-11.6,5-11.9,11.4c0,0.8,0,1.5,0.1,2.2c-0.3,0-0.5-0.1-0.8-0.1 C9.2,55.6,5.3,59,5,63.6s3.2,8.4,7.8,8.7c0.8,0,1.5,0,2.2-0.2c2.5,2.9,8,5.1,14.6,5.5c3.7,0.2,7.2-0.2,10-1.1 c1.7,1.8,4.3,3.1,7.3,3.2c4,0.2,7.5-1.6,9.3-4.3c2.1,1,4.6,1.7,7.4,1.9c4.5,0.3,8.6-1,11.1-3c2,1.7,4.6,2.8,7.6,3 C89,77.6,94.6,73,95,67C95.3,61.5,91.1,56.7,85.3,55.6z" fill="#55bedb" transform="translate(15.254220686147335, 285.8995784708556) scale(0.4066666666666667) translate(-36, -24)"></path>
  <animateTransform attributeName="transform" type="translate" keyTimes="0;1" repeatCount="indefinite" dur="5s" values="0;256"></animateTransform>
</g><g transform="translate(39.1503 0)">
<path d="M85.3,55.6c0.3-1.1,0.5-2.2,0.6-3.4c0.5-8.5-6-15.7-14.5-16.2c-2.1-0.1-4.2,0.2-6,0.9c-1.5-8.9-9-16-18.4-16.5 C36.1,19.7,26.8,28,26.2,38.9c-0.1,1.1,0,2.3,0.1,3.3c-6.3,0.1-11.6,5-11.9,11.4c0,0.8,0,1.5,0.1,2.2c-0.3,0-0.5-0.1-0.8-0.1 C9.2,55.6,5.3,59,5,63.6s3.2,8.4,7.8,8.7c0.8,0,1.5,0,2.2-0.2c2.5,2.9,8,5.1,14.6,5.5c3.7,0.2,7.2-0.2,10-1.1 c1.7,1.8,4.3,3.1,7.3,3.2c4,0.2,7.5-1.6,9.3-4.3c2.1,1,4.6,1.7,7.4,1.9c4.5,0.3,8.6-1,11.1-3c2,1.7,4.6,2.8,7.6,3 C89,77.6,94.6,73,95,67C95.3,61.5,91.1,56.7,85.3,55.6z" fill="#55bedb" transform="translate(-240.74577931385267, 29.8995784708556) scale(0.4066666666666667) translate(-36, -24)"></path>
  <animateTransform attributeName="transform" type="translate" keyTimes="0;1" repeatCount="indefinite" dur="5s" values="0;256"></animateTransform>
</g><g transform="translate(39.1503 0)">
<path d="M85.3,55.6c0.3-1.1,0.5-2.2,0.6-3.4c0.5-8.5-6-15.7-14.5-16.2c-2.1-0.1-4.2,0.2-6,0.9c-1.5-8.9-9-16-18.4-16.5 C36.1,19.7,26.8,28,26.2,38.9c-0.1,1.1,0,2.3,0.1,3.3c-6.3,0.1-11.6,5-11.9,11.4c0,0.8,0,1.5,0.1,2.2c-0.3,0-0.5-0.1-0.8-0.1 C9.2,55.6,5.3,59,5,63.6s3.2,8.4,7.8,8.7c0.8,0,1.5,0,2.2-0.2c2.5,2.9,8,5.1,14.6,5.5c3.7,0.2,7.2-0.2,10-1.1 c1.7,1.8,4.3,3.1,7.3,3.2c4,0.2,7.5-1.6,9.3-4.3c2.1,1,4.6,1.7,7.4,1.9c4.5,0.3,8.6-1,11.1-3c2,1.7,4.6,2.8,7.6,3 C89,77.6,94.6,73,95,67C95.3,61.5,91.1,56.7,85.3,55.6z" fill="#55bedb" transform="translate(-240.74577931385267, 285.8995784708556) scale(0.4066666666666667) translate(-36, -24)"></path>
  <animateTransform attributeName="transform" type="translate" keyTimes="0;1" repeatCount="indefinite" dur="5s" values="0;256"></animateTransform>
</g><g transform="translate(39.1503 0)">
<path d="M95,62.4c-0.5-5.9-5.7-10.3-11.9-10.5c0-0.6,0-1.2,0-1.8c-0.7-7.6-7.9-13.1-16.1-12.4c-0.9,0.1-1.9,0.3-2.7,0.5 c0-0.1,0-0.2,0-0.2c-1-10.9-10.7-19-21.6-18c-9.8,0.9-17.3,8.8-18,18.3C12.8,39.5,4.1,49.2,5.1,60C6.1,71,16.5,79,28.4,77.9 c3.4-0.3,6.4-1.3,9.2-2.8c5,3.7,12.4,5.7,20.5,4.9c6.9-0.6,13.1-3.2,17.3-6.8c2.3,1.4,5.2,2.2,8.2,1.9C90.4,74.4,95.5,68.8,95,62.4z" fill="#55bedb" transform="translate(162.37550935496694, 159.02960592583992) scale(0.4066666666666667) translate(-36, -24)"></path>
  <animateTransform attributeName="transform" type="translate" keyTimes="0;1" repeatCount="indefinite" dur="5s" values="0;256"></animateTransform>
</g><g transform="translate(39.1503 0)">
<path d="M95,62.4c-0.5-5.9-5.7-10.3-11.9-10.5c0-0.6,0-1.2,0-1.8c-0.7-7.6-7.9-13.1-16.1-12.4c-0.9,0.1-1.9,0.3-2.7,0.5 c0-0.1,0-0.2,0-0.2c-1-10.9-10.7-19-21.6-18c-9.8,0.9-17.3,8.8-18,18.3C12.8,39.5,4.1,49.2,5.1,60C6.1,71,16.5,79,28.4,77.9 c3.4-0.3,6.4-1.3,9.2-2.8c5,3.7,12.4,5.7,20.5,4.9c6.9-0.6,13.1-3.2,17.3-6.8c2.3,1.4,5.2,2.2,8.2,1.9C90.4,74.4,95.5,68.8,95,62.4z" fill="#55bedb" transform="translate(-93.62449064503306, 159.02960592583992) scale(0.4066666666666667) translate(-36, -24)"></path>
  <animateTransform attributeName="transform" type="translate" keyTimes="0;1" repeatCount="indefinite" dur="5s" values="0;256"></animateTransform>
</g><g transform="translate(39.1503 0)">
<path d="M95,62.1c0-7.9-5.6-14.5-13.1-15.9C82,45.4,82,44.7,82,44c0-12.3-10-22.3-22.3-22.3c-9.5,0-17.7,6-20.8,14.4 c-1.2-0.3-2.4-0.5-3.7-0.5c-7.6,0-13.8,5.9-14.3,13.3c-0.9-0.2-1.9-0.3-2.8-0.3c-7.2,0-13,5.8-13,13c0,4.8,2.6,9,6.5,11.2 c0,0.1,0,0.1,0,0.2c0,4.7,3.8,8.5,8.5,8.5c2.7,0,5.1-1.3,6.7-3.2c0.1,0,0.2,0,0.3,0h10.4c2.4,2,5.4,3.2,8.7,3.2s6.4-1.2,8.7-3.2h0.2 c3.3,3.8,8.2,6.2,13.6,6.2c5.6,0,10.7-2.6,14-6.6C89.6,76.2,95,69.8,95,62.1z" fill="#55bedb" transform="translate(258.55814360514665, 121.79668858777438) scale(0.4066666666666667) translate(-36, -24)"></path>
  <animateTransform attributeName="transform" type="translate" keyTimes="0;1" repeatCount="indefinite" dur="5s" values="0;256"></animateTransform>
</g><g transform="translate(39.1503 0)">
<path d="M95,62.1c0-7.9-5.6-14.5-13.1-15.9C82,45.4,82,44.7,82,44c0-12.3-10-22.3-22.3-22.3c-9.5,0-17.7,6-20.8,14.4 c-1.2-0.3-2.4-0.5-3.7-0.5c-7.6,0-13.8,5.9-14.3,13.3c-0.9-0.2-1.9-0.3-2.8-0.3c-7.2,0-13,5.8-13,13c0,4.8,2.6,9,6.5,11.2 c0,0.1,0,0.1,0,0.2c0,4.7,3.8,8.5,8.5,8.5c2.7,0,5.1-1.3,6.7-3.2c0.1,0,0.2,0,0.3,0h10.4c2.4,2,5.4,3.2,8.7,3.2s6.4-1.2,8.7-3.2h0.2 c3.3,3.8,8.2,6.2,13.6,6.2c5.6,0,10.7-2.6,14-6.6C89.6,76.2,95,69.8,95,62.1z" fill="#55bedb" transform="translate(2.558143605146654, 121.79668858777438) scale(0.4066666666666667) translate(-36, -24)"></path>
  <animateTransform attributeName="transform" type="translate" keyTimes="0;1" repeatCount="indefinite" dur="5s" values="0;256"></animateTransform>
</g><g transform="translate(39.1503 0)">
<path d="M95,62.1c0-7.9-5.6-14.5-13.1-15.9C82,45.4,82,44.7,82,44c0-12.3-10-22.3-22.3-22.3c-9.5,0-17.7,6-20.8,14.4 c-1.2-0.3-2.4-0.5-3.7-0.5c-7.6,0-13.8,5.9-14.3,13.3c-0.9-0.2-1.9-0.3-2.8-0.3c-7.2,0-13,5.8-13,13c0,4.8,2.6,9,6.5,11.2 c0,0.1,0,0.1,0,0.2c0,4.7,3.8,8.5,8.5,8.5c2.7,0,5.1-1.3,6.7-3.2c0.1,0,0.2,0,0.3,0h10.4c2.4,2,5.4,3.2,8.7,3.2s6.4-1.2,8.7-3.2h0.2 c3.3,3.8,8.2,6.2,13.6,6.2c5.6,0,10.7-2.6,14-6.6C89.6,76.2,95,69.8,95,62.1z" fill="#55bedb" transform="translate(-253.44185639485335, 121.79668858777438) scale(0.4066666666666667) translate(-36, -24)"></path>
  <animateTransform attributeName="transform" type="translate" keyTimes="0;1" repeatCount="indefinite" dur="5s" values="0;256"></animateTransform>
</g><g transform="translate(78.3007 0)">
<path d="M94.6,56.2c-1-4.2-3.7-7.6-7.2-9.5c1.6-1.7,2.7-4.1,2.7-6.7c0-5.4-4.4-9.7-9.7-9.7c-3.2,0-6.1,1.6-7.8,4 c-2.5-4.5-7.3-7.6-12.8-7.6c-3.4,0-6.4,1.1-8.9,3.1c-2.4-4.7-7.3-7.9-13-7.9c-5.6,0-10.5,3.2-12.9,7.8c-1.3-0.3-2.7-0.6-4.1-0.6 C12.1,29.1,5,36.1,5,44.9c0,6,3.4,11.3,8.3,13.9c-0.2,1.3-0.2,2.6,0.1,3.9c1.2,5.3,6.5,8.6,11.8,7.4c0.3-0.1,0.6-0.1,0.8-0.2 c2.9,6,9.6,9.5,16.4,8c5.5-1.3,9.6-5.5,10.9-10.6c2.8,1.3,6.1,1.7,9.4,1c1.8-0.4,3.4-1.1,4.8-2.1c3,5.7,9.6,9,16.2,7.5 C91.5,71.9,96.4,64,94.6,56.2z" fill="#90ddf0" transform="translate(72.98172613908247, 153.7390032473894) scale(0.5083333333333333) translate(-36, -24)"></path>
  <animateTransform attributeName="transform" type="translate" keyTimes="0;1" repeatCount="indefinite" dur="2.5s" values="0;256"></animateTransform>
</g><g transform="translate(78.3007 0)">
<path d="M94.6,56.2c-1-4.2-3.7-7.6-7.2-9.5c1.6-1.7,2.7-4.1,2.7-6.7c0-5.4-4.4-9.7-9.7-9.7c-3.2,0-6.1,1.6-7.8,4 c-2.5-4.5-7.3-7.6-12.8-7.6c-3.4,0-6.4,1.1-8.9,3.1c-2.4-4.7-7.3-7.9-13-7.9c-5.6,0-10.5,3.2-12.9,7.8c-1.3-0.3-2.7-0.6-4.1-0.6 C12.1,29.1,5,36.1,5,44.9c0,6,3.4,11.3,8.3,13.9c-0.2,1.3-0.2,2.6,0.1,3.9c1.2,5.3,6.5,8.6,11.8,7.4c0.3-0.1,0.6-0.1,0.8-0.2 c2.9,6,9.6,9.5,16.4,8c5.5-1.3,9.6-5.5,10.9-10.6c2.8,1.3,6.1,1.7,9.4,1c1.8-0.4,3.4-1.1,4.8-2.1c3,5.7,9.6,9,16.2,7.5 C91.5,71.9,96.4,64,94.6,56.2z" fill="#90ddf0" transform="translate(-183.01827386091753, 153.7390032473894) scale(0.5083333333333333) translate(-36, -24)"></path>
  <animateTransform attributeName="transform" type="translate" keyTimes="0;1" repeatCount="indefinite" dur="2.5s" values="0;256"></animateTransform>
</g><g transform="translate(78.3007 0)">
<path d="M85.3,55.6c0.3-1.1,0.5-2.2,0.6-3.4c0.5-8.5-6-15.7-14.5-16.2c-2.1-0.1-4.2,0.2-6,0.9c-1.5-8.9-9-16-18.4-16.5 C36.1,19.7,26.8,28,26.2,38.9c-0.1,1.1,0,2.3,0.1,3.3c-6.3,0.1-11.6,5-11.9,11.4c0,0.8,0,1.5,0.1,2.2c-0.3,0-0.5-0.1-0.8-0.1 C9.2,55.6,5.3,59,5,63.6s3.2,8.4,7.8,8.7c0.8,0,1.5,0,2.2-0.2c2.5,2.9,8,5.1,14.6,5.5c3.7,0.2,7.2-0.2,10-1.1 c1.7,1.8,4.3,3.1,7.3,3.2c4,0.2,7.5-1.6,9.3-4.3c2.1,1,4.6,1.7,7.4,1.9c4.5,0.3,8.6-1,11.1-3c2,1.7,4.6,2.8,7.6,3 C89,77.6,94.6,73,95,67C95.3,61.5,91.1,56.7,85.3,55.6z" fill="#90ddf0" transform="translate(145.7244340178462, 204.99602567900087) scale(0.5083333333333333) translate(-36, -24)"></path>
  <animateTransform attributeName="transform" type="translate" keyTimes="0;1" repeatCount="indefinite" dur="2.5s" values="0;256"></animateTransform>
</g><g transform="translate(78.3007 0)">
<path d="M85.3,55.6c0.3-1.1,0.5-2.2,0.6-3.4c0.5-8.5-6-15.7-14.5-16.2c-2.1-0.1-4.2,0.2-6,0.9c-1.5-8.9-9-16-18.4-16.5 C36.1,19.7,26.8,28,26.2,38.9c-0.1,1.1,0,2.3,0.1,3.3c-6.3,0.1-11.6,5-11.9,11.4c0,0.8,0,1.5,0.1,2.2c-0.3,0-0.5-0.1-0.8-0.1 C9.2,55.6,5.3,59,5,63.6s3.2,8.4,7.8,8.7c0.8,0,1.5,0,2.2-0.2c2.5,2.9,8,5.1,14.6,5.5c3.7,0.2,7.2-0.2,10-1.1 c1.7,1.8,4.3,3.1,7.3,3.2c4,0.2,7.5-1.6,9.3-4.3c2.1,1,4.6,1.7,7.4,1.9c4.5,0.3,8.6-1,11.1-3c2,1.7,4.6,2.8,7.6,3 C89,77.6,94.6,73,95,67C95.3,61.5,91.1,56.7,85.3,55.6z" fill="#90ddf0" transform="translate(-110.27556598215381, 204.99602567900087) scale(0.5083333333333333) translate(-36, -24)"></path>
  <animateTransform attributeName="transform" type="translate" keyTimes="0;1" repeatCount="indefinite" dur="2.5s" values="0;256"></animateTransform>
</g><g transform="translate(78.3007 0)">
<path d="M95,62.4c-0.5-5.9-5.7-10.3-11.9-10.5c0-0.6,0-1.2,0-1.8c-0.7-7.6-7.9-13.1-16.1-12.4c-0.9,0.1-1.9,0.3-2.7,0.5 c0-0.1,0-0.2,0-0.2c-1-10.9-10.7-19-21.6-18c-9.8,0.9-17.3,8.8-18,18.3C12.8,39.5,4.1,49.2,5.1,60C6.1,71,16.5,79,28.4,77.9 c3.4-0.3,6.4-1.3,9.2-2.8c5,3.7,12.4,5.7,20.5,4.9c6.9-0.6,13.1-3.2,17.3-6.8c2.3,1.4,5.2,2.2,8.2,1.9C90.4,74.4,95.5,68.8,95,62.4z" fill="#90ddf0" transform="translate(147.88814719253423, 180.87630987067752) scale(0.5083333333333333) translate(-36, -24)"></path>
  <animateTransform attributeName="transform" type="translate" keyTimes="0;1" repeatCount="indefinite" dur="2.5s" values="0;256"></animateTransform>
</g><g transform="translate(78.3007 0)">
<path d="M95,62.4c-0.5-5.9-5.7-10.3-11.9-10.5c0-0.6,0-1.2,0-1.8c-0.7-7.6-7.9-13.1-16.1-12.4c-0.9,0.1-1.9,0.3-2.7,0.5 c0-0.1,0-0.2,0-0.2c-1-10.9-10.7-19-21.6-18c-9.8,0.9-17.3,8.8-18,18.3C12.8,39.5,4.1,49.2,5.1,60C6.1,71,16.5,79,28.4,77.9 c3.4-0.3,6.4-1.3,9.2-2.8c5,3.7,12.4,5.7,20.5,4.9c6.9-0.6,13.1-3.2,17.3-6.8c2.3,1.4,5.2,2.2,8.2,1.9C90.4,74.4,95.5,68.8,95,62.4z" fill="#90ddf0" transform="translate(-108.11185280746577, 180.87630987067752) scale(0.5083333333333333) translate(-36, -24)"></path>
  <animateTransform attributeName="transform" type="translate" keyTimes="0;1" repeatCount="indefinite" dur="2.5s" values="0;256"></animateTransform>
</g><g transform="translate(78.3007 0)">
<path d="M95,62.1c0-7.9-5.6-14.5-13.1-15.9C82,45.4,82,44.7,82,44c0-12.3-10-22.3-22.3-22.3c-9.5,0-17.7,6-20.8,14.4 c-1.2-0.3-2.4-0.5-3.7-0.5c-7.6,0-13.8,5.9-14.3,13.3c-0.9-0.2-1.9-0.3-2.8-0.3c-7.2,0-13,5.8-13,13c0,4.8,2.6,9,6.5,11.2 c0,0.1,0,0.1,0,0.2c0,4.7,3.8,8.5,8.5,8.5c2.7,0,5.1-1.3,6.7-3.2c0.1,0,0.2,0,0.3,0h10.4c2.4,2,5.4,3.2,8.7,3.2s6.4-1.2,8.7-3.2h0.2 c3.3,3.8,8.2,6.2,13.6,6.2c5.6,0,10.7-2.6,14-6.6C89.6,76.2,95,69.8,95,62.1z" fill="#90ddf0" transform="translate(127.87708579170305, 144.58338494127435) scale(0.5083333333333333) translate(-36, -24)"></path>
  <animateTransform attributeName="transform" type="translate" keyTimes="0;1" repeatCount="indefinite" dur="2.5s" values="0;256"></animateTransform>
</g><g transform="translate(78.3007 0)">
<path d="M95,62.1c0-7.9-5.6-14.5-13.1-15.9C82,45.4,82,44.7,82,44c0-12.3-10-22.3-22.3-22.3c-9.5,0-17.7,6-20.8,14.4 c-1.2-0.3-2.4-0.5-3.7-0.5c-7.6,0-13.8,5.9-14.3,13.3c-0.9-0.2-1.9-0.3-2.8-0.3c-7.2,0-13,5.8-13,13c0,4.8,2.6,9,6.5,11.2 c0,0.1,0,0.1,0,0.2c0,4.7,3.8,8.5,8.5,8.5c2.7,0,5.1-1.3,6.7-3.2c0.1,0,0.2,0,0.3,0h10.4c2.4,2,5.4,3.2,8.7,3.2s6.4-1.2,8.7-3.2h0.2 c3.3,3.8,8.2,6.2,13.6,6.2c5.6,0,10.7-2.6,14-6.6C89.6,76.2,95,69.8,95,62.1z" fill="#90ddf0" transform="translate(-128.12291420829695, 144.58338494127435) scale(0.5083333333333333) translate(-36, -24)"></path>
  <animateTransform attributeName="transform" type="translate" keyTimes="0;1" repeatCount="indefinite" dur="2.5s" values="0;256"></animateTransform>
</g><g transform="translate(117.453 0)">
<path d="M94.6,56.2c-1-4.2-3.7-7.6-7.2-9.5c1.6-1.7,2.7-4.1,2.7-6.7c0-5.4-4.4-9.7-9.7-9.7c-3.2,0-6.1,1.6-7.8,4 c-2.5-4.5-7.3-7.6-12.8-7.6c-3.4,0-6.4,1.1-8.9,3.1c-2.4-4.7-7.3-7.9-13-7.9c-5.6,0-10.5,3.2-12.9,7.8c-1.3-0.3-2.7-0.6-4.1-0.6 C12.1,29.1,5,36.1,5,44.9c0,6,3.4,11.3,8.3,13.9c-0.2,1.3-0.2,2.6,0.1,3.9c1.2,5.3,6.5,8.6,11.8,7.4c0.3-0.1,0.6-0.1,0.8-0.2 c2.9,6,9.6,9.5,16.4,8c5.5-1.3,9.6-5.5,10.9-10.6c2.8,1.3,6.1,1.7,9.4,1c1.8-0.4,3.4-1.1,4.8-2.1c3,5.7,9.6,9,16.2,7.5 C91.5,71.9,96.4,64,94.6,56.2z" fill="#afecf6" transform="translate(39.98574167955309, 45.36293342229993) scale(0.61) translate(-36, -24)"></path>
  <animateTransform attributeName="transform" type="translate" keyTimes="0;1" repeatCount="indefinite" dur="1.6666666666666665s" values="0;256"></animateTransform>
</g><g transform="translate(117.453 0)">
<path d="M94.6,56.2c-1-4.2-3.7-7.6-7.2-9.5c1.6-1.7,2.7-4.1,2.7-6.7c0-5.4-4.4-9.7-9.7-9.7c-3.2,0-6.1,1.6-7.8,4 c-2.5-4.5-7.3-7.6-12.8-7.6c-3.4,0-6.4,1.1-8.9,3.1c-2.4-4.7-7.3-7.9-13-7.9c-5.6,0-10.5,3.2-12.9,7.8c-1.3-0.3-2.7-0.6-4.1-0.6 C12.1,29.1,5,36.1,5,44.9c0,6,3.4,11.3,8.3,13.9c-0.2,1.3-0.2,2.6,0.1,3.9c1.2,5.3,6.5,8.6,11.8,7.4c0.3-0.1,0.6-0.1,0.8-0.2 c2.9,6,9.6,9.5,16.4,8c5.5-1.3,9.6-5.5,10.9-10.6c2.8,1.3,6.1,1.7,9.4,1c1.8-0.4,3.4-1.1,4.8-2.1c3,5.7,9.6,9,16.2,7.5 C91.5,71.9,96.4,64,94.6,56.2z" fill="#afecf6" transform="translate(39.98574167955309, 301.36293342229993) scale(0.61) translate(-36, -24)"></path>
  <animateTransform attributeName="transform" type="translate" keyTimes="0;1" repeatCount="indefinite" dur="1.6666666666666665s" values="0;256"></animateTransform>
</g><g transform="translate(117.453 0)">
<path d="M94.6,56.2c-1-4.2-3.7-7.6-7.2-9.5c1.6-1.7,2.7-4.1,2.7-6.7c0-5.4-4.4-9.7-9.7-9.7c-3.2,0-6.1,1.6-7.8,4 c-2.5-4.5-7.3-7.6-12.8-7.6c-3.4,0-6.4,1.1-8.9,3.1c-2.4-4.7-7.3-7.9-13-7.9c-5.6,0-10.5,3.2-12.9,7.8c-1.3-0.3-2.7-0.6-4.1-0.6 C12.1,29.1,5,36.1,5,44.9c0,6,3.4,11.3,8.3,13.9c-0.2,1.3-0.2,2.6,0.1,3.9c1.2,5.3,6.5,8.6,11.8,7.4c0.3-0.1,0.6-0.1,0.8-0.2 c2.9,6,9.6,9.5,16.4,8c5.5-1.3,9.6-5.5,10.9-10.6c2.8,1.3,6.1,1.7,9.4,1c1.8-0.4,3.4-1.1,4.8-2.1c3,5.7,9.6,9,16.2,7.5 C91.5,71.9,96.4,64,94.6,56.2z" fill="#afecf6" transform="translate(-216.0142583204469, 45.36293342229993) scale(0.61) translate(-36, -24)"></path>
  <animateTransform attributeName="transform" type="translate" keyTimes="0;1" repeatCount="indefinite" dur="1.6666666666666665s" values="0;256"></animateTransform>
</g><g transform="translate(117.453 0)">
<path d="M94.6,56.2c-1-4.2-3.7-7.6-7.2-9.5c1.6-1.7,2.7-4.1,2.7-6.7c0-5.4-4.4-9.7-9.7-9.7c-3.2,0-6.1,1.6-7.8,4 c-2.5-4.5-7.3-7.6-12.8-7.6c-3.4,0-6.4,1.1-8.9,3.1c-2.4-4.7-7.3-7.9-13-7.9c-5.6,0-10.5,3.2-12.9,7.8c-1.3-0.3-2.7-0.6-4.1-0.6 C12.1,29.1,5,36.1,5,44.9c0,6,3.4,11.3,8.3,13.9c-0.2,1.3-0.2,2.6,0.1,3.9c1.2,5.3,6.5,8.6,11.8,7.4c0.3-0.1,0.6-0.1,0.8-0.2 c2.9,6,9.6,9.5,16.4,8c5.5-1.3,9.6-5.5,10.9-10.6c2.8,1.3,6.1,1.7,9.4,1c1.8-0.4,3.4-1.1,4.8-2.1c3,5.7,9.6,9,16.2,7.5 C91.5,71.9,96.4,64,94.6,56.2z" fill="#afecf6" transform="translate(-216.0142583204469, 301.36293342229993) scale(0.61) translate(-36, -24)"></path>
  <animateTransform attributeName="transform" type="translate" keyTimes="0;1" repeatCount="indefinite" dur="1.6666666666666665s" values="0;256"></animateTransform>
</g><g transform="translate(117.453 0)">
<path d="M85.3,55.6c0.3-1.1,0.5-2.2,0.6-3.4c0.5-8.5-6-15.7-14.5-16.2c-2.1-0.1-4.2,0.2-6,0.9c-1.5-8.9-9-16-18.4-16.5 C36.1,19.7,26.8,28,26.2,38.9c-0.1,1.1,0,2.3,0.1,3.3c-6.3,0.1-11.6,5-11.9,11.4c0,0.8,0,1.5,0.1,2.2c-0.3,0-0.5-0.1-0.8-0.1 C9.2,55.6,5.3,59,5,63.6s3.2,8.4,7.8,8.7c0.8,0,1.5,0,2.2-0.2c2.5,2.9,8,5.1,14.6,5.5c3.7,0.2,7.2-0.2,10-1.1 c1.7,1.8,4.3,3.1,7.3,3.2c4,0.2,7.5-1.6,9.3-4.3c2.1,1,4.6,1.7,7.4,1.9c4.5,0.3,8.6-1,11.1-3c2,1.7,4.6,2.8,7.6,3 C89,77.6,94.6,73,95,67C95.3,61.5,91.1,56.7,85.3,55.6z" fill="#afecf6" transform="translate(123.44962904773837, 17.563729256173815) scale(0.61) translate(-36, -24)"></path>
  <animateTransform attributeName="transform" type="translate" keyTimes="0;1" repeatCount="indefinite" dur="1.6666666666666665s" values="0;256"></animateTransform>
</g><g transform="translate(117.453 0)">
<path d="M85.3,55.6c0.3-1.1,0.5-2.2,0.6-3.4c0.5-8.5-6-15.7-14.5-16.2c-2.1-0.1-4.2,0.2-6,0.9c-1.5-8.9-9-16-18.4-16.5 C36.1,19.7,26.8,28,26.2,38.9c-0.1,1.1,0,2.3,0.1,3.3c-6.3,0.1-11.6,5-11.9,11.4c0,0.8,0,1.5,0.1,2.2c-0.3,0-0.5-0.1-0.8-0.1 C9.2,55.6,5.3,59,5,63.6s3.2,8.4,7.8,8.7c0.8,0,1.5,0,2.2-0.2c2.5,2.9,8,5.1,14.6,5.5c3.7,0.2,7.2-0.2,10-1.1 c1.7,1.8,4.3,3.1,7.3,3.2c4,0.2,7.5-1.6,9.3-4.3c2.1,1,4.6,1.7,7.4,1.9c4.5,0.3,8.6-1,11.1-3c2,1.7,4.6,2.8,7.6,3 C89,77.6,94.6,73,95,67C95.3,61.5,91.1,56.7,85.3,55.6z" fill="#afecf6" transform="translate(123.44962904773837, 273.5637292561738) scale(0.61) translate(-36, -24)"></path>
  <animateTransform attributeName="transform" type="translate" keyTimes="0;1" repeatCount="indefinite" dur="1.6666666666666665s" values="0;256"></animateTransform>
</g><g transform="translate(117.453 0)">
<path d="M85.3,55.6c0.3-1.1,0.5-2.2,0.6-3.4c0.5-8.5-6-15.7-14.5-16.2c-2.1-0.1-4.2,0.2-6,0.9c-1.5-8.9-9-16-18.4-16.5 C36.1,19.7,26.8,28,26.2,38.9c-0.1,1.1,0,2.3,0.1,3.3c-6.3,0.1-11.6,5-11.9,11.4c0,0.8,0,1.5,0.1,2.2c-0.3,0-0.5-0.1-0.8-0.1 C9.2,55.6,5.3,59,5,63.6s3.2,8.4,7.8,8.7c0.8,0,1.5,0,2.2-0.2c2.5,2.9,8,5.1,14.6,5.5c3.7,0.2,7.2-0.2,10-1.1 c1.7,1.8,4.3,3.1,7.3,3.2c4,0.2,7.5-1.6,9.3-4.3c2.1,1,4.6,1.7,7.4,1.9c4.5,0.3,8.6-1,11.1-3c2,1.7,4.6,2.8,7.6,3 C89,77.6,94.6,73,95,67C95.3,61.5,91.1,56.7,85.3,55.6z" fill="#afecf6" transform="translate(-132.55037095226163, 17.563729256173815) scale(0.61) translate(-36, -24)"></path>
  <animateTransform attributeName="transform" type="translate" keyTimes="0;1" repeatCount="indefinite" dur="1.6666666666666665s" values="0;256"></animateTransform>
</g><g transform="translate(117.453 0)">
<path d="M85.3,55.6c0.3-1.1,0.5-2.2,0.6-3.4c0.5-8.5-6-15.7-14.5-16.2c-2.1-0.1-4.2,0.2-6,0.9c-1.5-8.9-9-16-18.4-16.5 C36.1,19.7,26.8,28,26.2,38.9c-0.1,1.1,0,2.3,0.1,3.3c-6.3,0.1-11.6,5-11.9,11.4c0,0.8,0,1.5,0.1,2.2c-0.3,0-0.5-0.1-0.8-0.1 C9.2,55.6,5.3,59,5,63.6s3.2,8.4,7.8,8.7c0.8,0,1.5,0,2.2-0.2c2.5,2.9,8,5.1,14.6,5.5c3.7,0.2,7.2-0.2,10-1.1 c1.7,1.8,4.3,3.1,7.3,3.2c4,0.2,7.5-1.6,9.3-4.3c2.1,1,4.6,1.7,7.4,1.9c4.5,0.3,8.6-1,11.1-3c2,1.7,4.6,2.8,7.6,3 C89,77.6,94.6,73,95,67C95.3,61.5,91.1,56.7,85.3,55.6z" fill="#afecf6" transform="translate(-132.55037095226163, 273.5637292561738) scale(0.61) translate(-36, -24)"></path>
  <animateTransform attributeName="transform" type="translate" keyTimes="0;1" repeatCount="indefinite" dur="1.6666666666666665s" values="0;256"></animateTransform>
</g><g transform="translate(117.453 0)">
<path d="M95,62.4c-0.5-5.9-5.7-10.3-11.9-10.5c0-0.6,0-1.2,0-1.8c-0.7-7.6-7.9-13.1-16.1-12.4c-0.9,0.1-1.9,0.3-2.7,0.5 c0-0.1,0-0.2,0-0.2c-1-10.9-10.7-19-21.6-18c-9.8,0.9-17.3,8.8-18,18.3C12.8,39.5,4.1,49.2,5.1,60C6.1,71,16.5,79,28.4,77.9 c3.4-0.3,6.4-1.3,9.2-2.8c5,3.7,12.4,5.7,20.5,4.9c6.9-0.6,13.1-3.2,17.3-6.8c2.3,1.4,5.2,2.2,8.2,1.9C90.4,74.4,95.5,68.8,95,62.4z" fill="#afecf6" transform="translate(104.77862574354202, 209.41893485003567) scale(0.61) translate(-36, -24)"></path>
  <animateTransform attributeName="transform" type="translate" keyTimes="0;1" repeatCount="indefinite" dur="1.6666666666666665s" values="0;256"></animateTransform>
</g><g transform="translate(117.453 0)">
<path d="M95,62.4c-0.5-5.9-5.7-10.3-11.9-10.5c0-0.6,0-1.2,0-1.8c-0.7-7.6-7.9-13.1-16.1-12.4c-0.9,0.1-1.9,0.3-2.7,0.5 c0-0.1,0-0.2,0-0.2c-1-10.9-10.7-19-21.6-18c-9.8,0.9-17.3,8.8-18,18.3C12.8,39.5,4.1,49.2,5.1,60C6.1,71,16.5,79,28.4,77.9 c3.4-0.3,6.4-1.3,9.2-2.8c5,3.7,12.4,5.7,20.5,4.9c6.9-0.6,13.1-3.2,17.3-6.8c2.3,1.4,5.2,2.2,8.2,1.9C90.4,74.4,95.5,68.8,95,62.4z" fill="#afecf6" transform="translate(104.77862574354202, -46.58106514996433) scale(0.61) translate(-36, -24)"></path>
  <animateTransform attributeName="transform" type="translate" keyTimes="0;1" repeatCount="indefinite" dur="1.6666666666666665s" values="0;256"></animateTransform>
</g><g transform="translate(117.453 0)">
<path d="M95,62.4c-0.5-5.9-5.7-10.3-11.9-10.5c0-0.6,0-1.2,0-1.8c-0.7-7.6-7.9-13.1-16.1-12.4c-0.9,0.1-1.9,0.3-2.7,0.5 c0-0.1,0-0.2,0-0.2c-1-10.9-10.7-19-21.6-18c-9.8,0.9-17.3,8.8-18,18.3C12.8,39.5,4.1,49.2,5.1,60C6.1,71,16.5,79,28.4,77.9 c3.4-0.3,6.4-1.3,9.2-2.8c5,3.7,12.4,5.7,20.5,4.9c6.9-0.6,13.1-3.2,17.3-6.8c2.3,1.4,5.2,2.2,8.2,1.9C90.4,74.4,95.5,68.8,95,62.4z" fill="#afecf6" transform="translate(-151.22137425645798, 209.41893485003567) scale(0.61) translate(-36, -24)"></path>
  <animateTransform attributeName="transform" type="translate" keyTimes="0;1" repeatCount="indefinite" dur="1.6666666666666665s" values="0;256"></animateTransform>
</g><g transform="translate(117.453 0)">
<path d="M95,62.4c-0.5-5.9-5.7-10.3-11.9-10.5c0-0.6,0-1.2,0-1.8c-0.7-7.6-7.9-13.1-16.1-12.4c-0.9,0.1-1.9,0.3-2.7,0.5 c0-0.1,0-0.2,0-0.2c-1-10.9-10.7-19-21.6-18c-9.8,0.9-17.3,8.8-18,18.3C12.8,39.5,4.1,49.2,5.1,60C6.1,71,16.5,79,28.4,77.9 c3.4-0.3,6.4-1.3,9.2-2.8c5,3.7,12.4,5.7,20.5,4.9c6.9-0.6,13.1-3.2,17.3-6.8c2.3,1.4,5.2,2.2,8.2,1.9C90.4,74.4,95.5,68.8,95,62.4z" fill="#afecf6" transform="translate(-151.22137425645798, -46.58106514996433) scale(0.61) translate(-36, -24)"></path>
  <animateTransform attributeName="transform" type="translate" keyTimes="0;1" repeatCount="indefinite" dur="1.6666666666666665s" values="0;256"></animateTransform>
</g><g transform="translate(117.453 0)">
<path d="M95,62.1c0-7.9-5.6-14.5-13.1-15.9C82,45.4,82,44.7,82,44c0-12.3-10-22.3-22.3-22.3c-9.5,0-17.7,6-20.8,14.4 c-1.2-0.3-2.4-0.5-3.7-0.5c-7.6,0-13.8,5.9-14.3,13.3c-0.9-0.2-1.9-0.3-2.8-0.3c-7.2,0-13,5.8-13,13c0,4.8,2.6,9,6.5,11.2 c0,0.1,0,0.1,0,0.2c0,4.7,3.8,8.5,8.5,8.5c2.7,0,5.1-1.3,6.7-3.2c0.1,0,0.2,0,0.3,0h10.4c2.4,2,5.4,3.2,8.7,3.2s6.4-1.2,8.7-3.2h0.2 c3.3,3.8,8.2,6.2,13.6,6.2c5.6,0,10.7-2.6,14-6.6C89.6,76.2,95,69.8,95,62.1z" fill="#afecf6" transform="translate(98.42995783786682, 24.59294647850794) scale(0.61) translate(-36, -24)"></path>
  <animateTransform attributeName="transform" type="translate" keyTimes="0;1" repeatCount="indefinite" dur="1.6666666666666665s" values="0;256"></animateTransform>
</g><g transform="translate(117.453 0)">
<path d="M95,62.1c0-7.9-5.6-14.5-13.1-15.9C82,45.4,82,44.7,82,44c0-12.3-10-22.3-22.3-22.3c-9.5,0-17.7,6-20.8,14.4 c-1.2-0.3-2.4-0.5-3.7-0.5c-7.6,0-13.8,5.9-14.3,13.3c-0.9-0.2-1.9-0.3-2.8-0.3c-7.2,0-13,5.8-13,13c0,4.8,2.6,9,6.5,11.2 c0,0.1,0,0.1,0,0.2c0,4.7,3.8,8.5,8.5,8.5c2.7,0,5.1-1.3,6.7-3.2c0.1,0,0.2,0,0.3,0h10.4c2.4,2,5.4,3.2,8.7,3.2s6.4-1.2,8.7-3.2h0.2 c3.3,3.8,8.2,6.2,13.6,6.2c5.6,0,10.7-2.6,14-6.6C89.6,76.2,95,69.8,95,62.1z" fill="#afecf6" transform="translate(98.42995783786682, 280.59294647850794) scale(0.61) translate(-36, -24)"></path>
  <animateTransform attributeName="transform" type="translate" keyTimes="0;1" repeatCount="indefinite" dur="1.6666666666666665s" values="0;256"></animateTransform>
</g><g transform="translate(117.453 0)">
<path d="M95,62.1c0-7.9-5.6-14.5-13.1-15.9C82,45.4,82,44.7,82,44c0-12.3-10-22.3-22.3-22.3c-9.5,0-17.7,6-20.8,14.4 c-1.2-0.3-2.4-0.5-3.7-0.5c-7.6,0-13.8,5.9-14.3,13.3c-0.9-0.2-1.9-0.3-2.8-0.3c-7.2,0-13,5.8-13,13c0,4.8,2.6,9,6.5,11.2 c0,0.1,0,0.1,0,0.2c0,4.7,3.8,8.5,8.5,8.5c2.7,0,5.1-1.3,6.7-3.2c0.1,0,0.2,0,0.3,0h10.4c2.4,2,5.4,3.2,8.7,3.2s6.4-1.2,8.7-3.2h0.2 c3.3,3.8,8.2,6.2,13.6,6.2c5.6,0,10.7-2.6,14-6.6C89.6,76.2,95,69.8,95,62.1z" fill="#afecf6" transform="translate(-157.57004216213318, 24.59294647850794) scale(0.61) translate(-36, -24)"></path>
  <animateTransform attributeName="transform" type="translate" keyTimes="0;1" repeatCount="indefinite" dur="1.6666666666666665s" values="0;256"></animateTransform>
</g><g transform="translate(117.453 0)">
<path d="M95,62.1c0-7.9-5.6-14.5-13.1-15.9C82,45.4,82,44.7,82,44c0-12.3-10-22.3-22.3-22.3c-9.5,0-17.7,6-20.8,14.4 c-1.2-0.3-2.4-0.5-3.7-0.5c-7.6,0-13.8,5.9-14.3,13.3c-0.9-0.2-1.9-0.3-2.8-0.3c-7.2,0-13,5.8-13,13c0,4.8,2.6,9,6.5,11.2 c0,0.1,0,0.1,0,0.2c0,4.7,3.8,8.5,8.5,8.5c2.7,0,5.1-1.3,6.7-3.2c0.1,0,0.2,0,0.3,0h10.4c2.4,2,5.4,3.2,8.7,3.2s6.4-1.2,8.7-3.2h0.2 c3.3,3.8,8.2,6.2,13.6,6.2c5.6,0,10.7-2.6,14-6.6C89.6,76.2,95,69.8,95,62.1z" fill="#afecf6" transform="translate(-157.57004216213318, 280.59294647850794) scale(0.61) translate(-36, -24)"></path>
  <animateTransform attributeName="transform" type="translate" keyTimes="0;1" repeatCount="indefinite" dur="1.6666666666666665s" values="0;256"></animateTransform>
</g><g transform="translate(156.601 0)">
<path d="M94.6,56.2c-1-4.2-3.7-7.6-7.2-9.5c1.6-1.7,2.7-4.1,2.7-6.7c0-5.4-4.4-9.7-9.7-9.7c-3.2,0-6.1,1.6-7.8,4 c-2.5-4.5-7.3-7.6-12.8-7.6c-3.4,0-6.4,1.1-8.9,3.1c-2.4-4.7-7.3-7.9-13-7.9c-5.6,0-10.5,3.2-12.9,7.8c-1.3-0.3-2.7-0.6-4.1-0.6 C12.1,29.1,5,36.1,5,44.9c0,6,3.4,11.3,8.3,13.9c-0.2,1.3-0.2,2.6,0.1,3.9c1.2,5.3,6.5,8.6,11.8,7.4c0.3-0.1,0.6-0.1,0.8-0.2 c2.9,6,9.6,9.5,16.4,8c5.5-1.3,9.6-5.5,10.9-10.6c2.8,1.3,6.1,1.7,9.4,1c1.8-0.4,3.4-1.1,4.8-2.1c3,5.7,9.6,9,16.2,7.5 C91.5,71.9,96.4,64,94.6,56.2z" fill="#ffffff" transform="translate(89.84134330531714, 164.77914113178196) scale(0.7116666666666667) translate(-36, -24)"></path>
  <animateTransform attributeName="transform" type="translate" keyTimes="0;1" repeatCount="indefinite" dur="1.25s" values="0;256"></animateTransform>
</g><g transform="translate(156.601 0)">
<path d="M94.6,56.2c-1-4.2-3.7-7.6-7.2-9.5c1.6-1.7,2.7-4.1,2.7-6.7c0-5.4-4.4-9.7-9.7-9.7c-3.2,0-6.1,1.6-7.8,4 c-2.5-4.5-7.3-7.6-12.8-7.6c-3.4,0-6.4,1.1-8.9,3.1c-2.4-4.7-7.3-7.9-13-7.9c-5.6,0-10.5,3.2-12.9,7.8c-1.3-0.3-2.7-0.6-4.1-0.6 C12.1,29.1,5,36.1,5,44.9c0,6,3.4,11.3,8.3,13.9c-0.2,1.3-0.2,2.6,0.1,3.9c1.2,5.3,6.5,8.6,11.8,7.4c0.3-0.1,0.6-0.1,0.8-0.2 c2.9,6,9.6,9.5,16.4,8c5.5-1.3,9.6-5.5,10.9-10.6c2.8,1.3,6.1,1.7,9.4,1c1.8-0.4,3.4-1.1,4.8-2.1c3,5.7,9.6,9,16.2,7.5 C91.5,71.9,96.4,64,94.6,56.2z" fill="#ffffff" transform="translate(-166.15865669468286, 164.77914113178196) scale(0.7116666666666667) translate(-36, -24)"></path>
  <animateTransform attributeName="transform" type="translate" keyTimes="0;1" repeatCount="indefinite" dur="1.25s" values="0;256"></animateTransform>
</g><g transform="translate(156.601 0)">
<path d="M85.3,55.6c0.3-1.1,0.5-2.2,0.6-3.4c0.5-8.5-6-15.7-14.5-16.2c-2.1-0.1-4.2,0.2-6,0.9c-1.5-8.9-9-16-18.4-16.5 C36.1,19.7,26.8,28,26.2,38.9c-0.1,1.1,0,2.3,0.1,3.3c-6.3,0.1-11.6,5-11.9,11.4c0,0.8,0,1.5,0.1,2.2c-0.3,0-0.5-0.1-0.8-0.1 C9.2,55.6,5.3,59,5,63.6s3.2,8.4,7.8,8.7c0.8,0,1.5,0,2.2-0.2c2.5,2.9,8,5.1,14.6,5.5c3.7,0.2,7.2-0.2,10-1.1 c1.7,1.8,4.3,3.1,7.3,3.2c4,0.2,7.5-1.6,9.3-4.3c2.1,1,4.6,1.7,7.4,1.9c4.5,0.3,8.6-1,11.1-3c2,1.7,4.6,2.8,7.6,3 C89,77.6,94.6,73,95,67C95.3,61.5,91.1,56.7,85.3,55.6z" fill="#ffffff" transform="translate(101.2898741189203, 55.82641486762401) scale(0.7116666666666667) translate(-36, -24)"></path>
  <animateTransform attributeName="transform" type="translate" keyTimes="0;1" repeatCount="indefinite" dur="1.25s" values="0;256"></animateTransform>
</g><g transform="translate(156.601 0)">
<path d="M85.3,55.6c0.3-1.1,0.5-2.2,0.6-3.4c0.5-8.5-6-15.7-14.5-16.2c-2.1-0.1-4.2,0.2-6,0.9c-1.5-8.9-9-16-18.4-16.5 C36.1,19.7,26.8,28,26.2,38.9c-0.1,1.1,0,2.3,0.1,3.3c-6.3,0.1-11.6,5-11.9,11.4c0,0.8,0,1.5,0.1,2.2c-0.3,0-0.5-0.1-0.8-0.1 C9.2,55.6,5.3,59,5,63.6s3.2,8.4,7.8,8.7c0.8,0,1.5,0,2.2-0.2c2.5,2.9,8,5.1,14.6,5.5c3.7,0.2,7.2-0.2,10-1.1 c1.7,1.8,4.3,3.1,7.3,3.2c4,0.2,7.5-1.6,9.3-4.3c2.1,1,4.6,1.7,7.4,1.9c4.5,0.3,8.6-1,11.1-3c2,1.7,4.6,2.8,7.6,3 C89,77.6,94.6,73,95,67C95.3,61.5,91.1,56.7,85.3,55.6z" fill="#ffffff" transform="translate(-154.7101258810797, 55.82641486762401) scale(0.7116666666666667) translate(-36, -24)"></path>
  <animateTransform attributeName="transform" type="translate" keyTimes="0;1" repeatCount="indefinite" dur="1.25s" values="0;256"></animateTransform>
</g><g transform="translate(156.601 0)">
<path d="M95,62.4c-0.5-5.9-5.7-10.3-11.9-10.5c0-0.6,0-1.2,0-1.8c-0.7-7.6-7.9-13.1-16.1-12.4c-0.9,0.1-1.9,0.3-2.7,0.5 c0-0.1,0-0.2,0-0.2c-1-10.9-10.7-19-21.6-18c-9.8,0.9-17.3,8.8-18,18.3C12.8,39.5,4.1,49.2,5.1,60C6.1,71,16.5,79,28.4,77.9 c3.4-0.3,6.4-1.3,9.2-2.8c5,3.7,12.4,5.7,20.5,4.9c6.9-0.6,13.1-3.2,17.3-6.8c2.3,1.4,5.2,2.2,8.2,1.9C90.4,74.4,95.5,68.8,95,62.4z" fill="#ffffff" transform="translate(46.260604483609086, 11.014101335156624) scale(0.7116666666666667) translate(-36, -24)"></path>
  <animateTransform attributeName="transform" type="translate" keyTimes="0;1" repeatCount="indefinite" dur="1.25s" values="0;256"></animateTransform>
</g><g transform="translate(156.601 0)">
<path d="M95,62.4c-0.5-5.9-5.7-10.3-11.9-10.5c0-0.6,0-1.2,0-1.8c-0.7-7.6-7.9-13.1-16.1-12.4c-0.9,0.1-1.9,0.3-2.7,0.5 c0-0.1,0-0.2,0-0.2c-1-10.9-10.7-19-21.6-18c-9.8,0.9-17.3,8.8-18,18.3C12.8,39.5,4.1,49.2,5.1,60C6.1,71,16.5,79,28.4,77.9 c3.4-0.3,6.4-1.3,9.2-2.8c5,3.7,12.4,5.7,20.5,4.9c6.9-0.6,13.1-3.2,17.3-6.8c2.3,1.4,5.2,2.2,8.2,1.9C90.4,74.4,95.5,68.8,95,62.4z" fill="#ffffff" transform="translate(46.260604483609086, 267.0141013351566) scale(0.7116666666666667) translate(-36, -24)"></path>
  <animateTransform attributeName="transform" type="translate" keyTimes="0;1" repeatCount="indefinite" dur="1.25s" values="0;256"></animateTransform>
</g><g transform="translate(156.601 0)">
<path d="M95,62.4c-0.5-5.9-5.7-10.3-11.9-10.5c0-0.6,0-1.2,0-1.8c-0.7-7.6-7.9-13.1-16.1-12.4c-0.9,0.1-1.9,0.3-2.7,0.5 c0-0.1,0-0.2,0-0.2c-1-10.9-10.7-19-21.6-18c-9.8,0.9-17.3,8.8-18,18.3C12.8,39.5,4.1,49.2,5.1,60C6.1,71,16.5,79,28.4,77.9 c3.4-0.3,6.4-1.3,9.2-2.8c5,3.7,12.4,5.7,20.5,4.9c6.9-0.6,13.1-3.2,17.3-6.8c2.3,1.4,5.2,2.2,8.2,1.9C90.4,74.4,95.5,68.8,95,62.4z" fill="#ffffff" transform="translate(-209.7393955163909, 11.014101335156624) scale(0.7116666666666667) translate(-36, -24)"></path>
  <animateTransform attributeName="transform" type="translate" keyTimes="0;1" repeatCount="indefinite" dur="1.25s" values="0;256"></animateTransform>
</g><g transform="translate(156.601 0)">
<path d="M95,62.4c-0.5-5.9-5.7-10.3-11.9-10.5c0-0.6,0-1.2,0-1.8c-0.7-7.6-7.9-13.1-16.1-12.4c-0.9,0.1-1.9,0.3-2.7,0.5 c0-0.1,0-0.2,0-0.2c-1-10.9-10.7-19-21.6-18c-9.8,0.9-17.3,8.8-18,18.3C12.8,39.5,4.1,49.2,5.1,60C6.1,71,16.5,79,28.4,77.9 c3.4-0.3,6.4-1.3,9.2-2.8c5,3.7,12.4,5.7,20.5,4.9c6.9-0.6,13.1-3.2,17.3-6.8c2.3,1.4,5.2,2.2,8.2,1.9C90.4,74.4,95.5,68.8,95,62.4z" fill="#ffffff" transform="translate(-209.7393955163909, 267.0141013351566) scale(0.7116666666666667) translate(-36, -24)"></path>
  <animateTransform attributeName="transform" type="translate" keyTimes="0;1" repeatCount="indefinite" dur="1.25s" values="0;256"></animateTransform>
</g></g></svg>