<?xml version="1.0" encoding="UTF-8" standalone="no"?>
<svg
   xmlns:dc="http://purl.org/dc/elements/1.1/"
   xmlns:cc="http://creativecommons.org/ns#"
   xmlns:rdf="http://www.w3.org/1999/02/22-rdf-syntax-ns#"
   xmlns:svg="http://www.w3.org/2000/svg"
   xmlns="http://www.w3.org/2000/svg"
   xmlns:sodipodi="http://sodipodi.sourceforge.net/DTD/sodipodi-0.dtd"
   xmlns:inkscape="http://www.inkscape.org/namespaces/inkscape"
   id="d6147fb8-5a87-4dd3-b5f0-ace64eac798a"
   data-name="Layer 1"
   width="694.81628"
   height="640.98022"
   viewBox="0 0 694.81631 640.98024"
   version="1.1"
   sodipodi:docname="sleep.svg"
   inkscape:version="0.92.4 (5da689c313, 2019-01-14)">
  <metadata
     id="metadata134">
    <rdf:RDF>
      <cc:Work
         rdf:about="">
        <dc:format>image/svg+xml</dc:format>
        <dc:type
           rdf:resource="http://purl.org/dc/dcmitype/StillImage" />
        <dc:title>sleep analysis</dc:title>
      </cc:Work>
    </rdf:RDF>
  </metadata>
  <sodipodi:namedview
     pagecolor="#ffffff"
     bordercolor="#666666"
     borderopacity="1"
     objecttolerance="10"
     gridtolerance="10"
     guidetolerance="10"
     inkscape:pageopacity="0"
     inkscape:pageshadow="2"
     inkscape:window-width="1920"
     inkscape:window-height="1057"
     id="namedview132"
     showgrid="false"
     fit-margin-top="0"
     fit-margin-left="0"
     fit-margin-right="0"
     fit-margin-bottom="0"
     inkscape:zoom="0.75980489"
     inkscape:cx="411.7479"
     inkscape:cy="544.93895"
     inkscape:window-x="-8"
     inkscape:window-y="-8"
     inkscape:window-maximized="1"
     inkscape:current-layer="d6147fb8-5a87-4dd3-b5f0-ace64eac798a" />
  <defs
     id="defs9">
    <linearGradient
       id="4cde2cde-bd85-47c9-bab2-0e38d604e335"
       x1="490.54001"
       y1="647.09998"
       x2="490.54001"
       y2="388.67001"
       gradientUnits="userSpaceOnUse"
       gradientTransform="translate(-182.75,-204.12975)">
      <stop
         offset="0"
         stop-color="gray"
         stop-opacity="0.25"
         id="stop2" />
      <stop
         offset="0.54"
         stop-color="gray"
         stop-opacity="0.12"
         id="stop4" />
      <stop
         offset="1"
         stop-color="gray"
         stop-opacity="0.1"
         id="stop6" />
    </linearGradient>
  </defs>
  <title
     id="title11">sleep analysis</title>
  <polygon
     points="120.14,296.01 120.14,563.48 476.02,494.35 469.22,289.21 "
     id="polygon67"
     style="fill:#dbaca2"
     transform="translate(-111.36,-171.89975)" />
  <polygon
     points="111.36,653.3 111.36,287.79 479.7,275.89 481.97,478.76 467.23,483.3 461.56,293.55 137.42,304.79 135.16,579.63 417.36,703.17 417.58,703.12 789.11,611.37 789.11,699.77 412.83,809.71 408.99,807.72 "
     id="polygon69"
     style="fill:#e8c2b8"
     transform="translate(-111.36,-171.89975)" />
  <polygon
     points="417.58,703.12 789.11,611.37 789.11,699.77 412.83,809.71 408.99,807.72 "
     id="polygon71"
     style="opacity:0.1"
     transform="translate(-111.36,-171.89975)" />
  <path
     d="m 224.12,311.11025 c 0,0 -182.18,18.18 -199.87,44.51 -17.69,26.33 -0.15,58.63 -0.15,58.63 l 281.64,122.4 381.94,-98.6 c 0,0 -10.2,-69.14 -41.93,-77.07 -31.73,-7.93 -284.5,-62.33 -284.5,-62.33 0,0 -102,-6.24 -137.13,12.46 z"
     id="path73"
     inkscape:connector-curvature="0"
     style="fill:#ebecf0" />
  <path
     d="m 24.08,355.87025 287.31,99.17 c 0,0 306.45,-92.92 349.86,-84.17 0,0 -214.37,-76.73 -300,-73.39 -68.24,2.66 -139.69,13.86 -139.69,13.86 0,0 -189.54,19.04 -197.48,44.53 z"
     id="path75"
     inkscape:connector-curvature="0"
     style="fill:#f8f9fa" />
  <path
     d="m 466.13,419.67025 v 0 l 0.07,-0.1 v -0.06 l 0.05,-0.1 v -0.07 -0.1 -0.07 -0.11 -0.07 -0.13 -0.06 q 0,-0.09 0,-0.18 v 0 c 0,-0.07 0,-0.14 0,-0.21 0,-0.07 0,0 0,-0.07 0,-0.07 0,-0.1 0,-0.15 v -0.09 -0.15 -0.1 -0.15 -0.1 -0.16 -0.1 -0.17 -0.09 l -0.08,-0.25 v 0 l -0.1,-0.28 v -0.09 l -0.08,-0.2 v -0.11 l -0.08,-0.19 -0.05,-0.12 -0.08,-0.19 -0.06,-0.13 -0.09,-0.19 -0.06,-0.12 -0.11,-0.21 -0.06,-0.11 -0.15,-0.29 v 0 l -0.18,-0.34 -0.06,-0.11 -0.13,-0.24 -0.07,-0.13 -0.13,-0.22 -0.08,-0.14 -0.13,-0.22 -0.22,-0.33 -0.14,-0.22 -0.09,-0.14 -0.15,-0.24 -0.08,-0.13 -0.2,-0.32 v -0.06 l -0.25,-0.38 -0.08,-0.11 -0.18,-0.27 -0.1,-0.14 -0.17,-0.24 -0.1,-0.15 -0.17,-0.24 -0.11,-0.16 -0.18,-0.2 -0.11,-0.15 -0.19,-0.26 -0.1,-0.13 -0.25,-0.34 v -0.05 l -0.29,-0.4 -0.1,-0.14 -0.19,-0.26 -0.13,-0.17 -0.18,-0.24 -0.13,-0.17 -0.18,-0.24 -0.13,-0.16 -0.19,-0.25 -0.13,-0.16 -0.2,-0.26 -0.12,-0.15 -0.24,-0.3 -0.08,-0.1 v 0 c -0.9,-1.14 -1.83,-2.28 -2.76,-3.38 a 31,31 0 0 0 -21.08,-10.93 c -0.83,-0.07 -1.7,-0.16 -2.58,-0.27 h -0.37 l -0.65,-0.09 h -0.31 l -1,-0.14 v 0 l -0.95,-0.15 -0.33,-0.06 -0.67,-0.12 -0.4,-0.08 -0.61,-0.12 -0.43,-0.09 -0.58,-0.13 -0.44,-0.1 -0.58,-0.14 -0.45,-0.11 -0.57,-0.15 -0.45,-0.12 -0.57,-0.16 v 0 c -3,-4.46 -7.56,-8.43 -12,-9.2 a 9,9 0 0 0 -3.67,0.19 l -0.21,-0.23 -0.3,-0.34 -0.4,-0.51 -0.26,-0.34 -0.42,-0.59 -0.21,-0.29 q -0.31,-0.45 -0.59,-0.92 a 8.94,8.94 0 0 0 -1.84,-0.59 165.3,165.3 0 0 0 26.09,-6.15 5.56,5.56 0 0 0 1.17,-0.61 l 0.18,-0.06 c 7.41,-2.7 16.51,-29 10.11,-32.68 -6.4,-3.68 -16.17,-34 -21.9,-49.53 -5.73,-15.53 -22.24,-17.18 -22.24,-17.18 0,0 -23.92,-18.53 -34.7,-16.51 -10.78,2.02 -12.47,-14.15 -13.48,-14.82 a 1.22,1.22 0 0 1 -0.29,-0.35 c -2.6,-4.07 -23.27,-9.5 -34.42,-12.18 -10.9,-7.9 -23.9,-14.03 -34.41,-16.56 a 23.56,23.56 0 0 0 -20.56,4.1 c -22.08,1.12 -25.6,17.8 -25.6,17.8 a 16.55,16.55 0 0 0 1.16,6.66 26.81,26.81 0 0 1 -3.57,-0.19 c 2.56,-4.23 2.64,-9.67 4.55,-14.32 3.77,-9.2 14.17,-13.95 24,-15.19 5.73,-0.72 12,-0.72 16.52,-4.31 a 12.53,12.53 0 0 0 4.48,-7.41 2.66,2.66 0 0 0 -0.16,-1.9 2.71,2.71 0 0 0 -1.09,-0.88 c -5.92,-3.16 -13.05,-2.34 -19.77,-2.49 -10.92,-0.24 -21.56,-3.23 -32.12,-6 -4.47,-1.17 -9.3,-2.3 -13.62,-0.64 -4.08,1.56 -6.86,5.28 -10.13,8.17 -13.4,11.82 -35.65,10.11 -47.57,23.43 -2.76,3.09 -4.83,7.28 -3.82,11.3 0.41,1.64 1.32,3.15 1.61,4.82 0.58,3.3 -1.3,6.46 -2.89,9.41 -1.59,2.95 -3,6.53 -1.5,9.53 2.27,4.58 9.2,4.24 12.8,7.87 1.67,1.69 2.48,4.11 4.22,5.72 2.79,2.57 7.08,2.37 10.86,2 1.49,-0.14 3.72,-0.55 4.54,-1.86 a 25.93,25.93 0 0 0 40.81,-7 36.6,36.6 0 0 1 23,6.22 16.34,16.34 0 0 0 5.38,7.6 c 2.36,1.85 5.17,4.12 8,6.55 -7.17,1.89 -13.54,3.1 -13.54,3.1 0,0 -28.3,9.1 -28.3,15.16 a 7.49,7.49 0 0 0 1,3.11 12.39,12.39 0 0 0 -1.19,4.81 c -7.81,-1.32 -14.06,-3.31 -17.29,-6.24 0,0 -0.92,-0.25 -2.34,-0.53 -1.9,-2.43 -7.48,-9.18 -10.8,-8.91 -2.21,0.18 -3,5.32 -3.28,9.92 a 4.29,4.29 0 0 0 -0.76,0.86 c -3.37,5.05 2.7,15.16 6.74,16.85 4.04,1.69 26.28,1 41.44,12.13 6.72,4.93 18.27,5.88 29,5.42 -10.79,7.62 -25.9,19.33 -28,26.59 -1.13,3.85 -2.46,8.63 -2.38,13.54 -6.6,8.73 -16.59,27.16 8.11,36 20.36,7.27 75.56,6.34 114.89,4.56 18.3,3.23 33.41,6.48 39.75,9.59 0,0 15.16,2 21.23,5.73 6.07,3.73 17.18,2.7 17.18,2.7 0,0 21.56,3.71 26.28,8.42 4.72,4.71 12.8,-8.09 2.7,-14.15 -3.94,-2.36 -9.81,-6.25 -15.5,-10.51 7.31,0.86 13.76,1.8 17.86,2.76 l 0.41,0.09 h 0.13 0.26 0.15 0.22 0.14 0.21 1 0.26 0.08 0.16 0.09 0.13 0.08 0.12 0.08 l 0.11,-0.05 h 0.07 l 0.1,-0.07 h 0.05 l 0.13,-0.11 v 0 z m -93.07,-32.3 c 0,0 -2.84,-0.65 -7.08,-1.65 l -8.42,-3.4 c 0,0 14.37,-4.52 27.68,-10.27 3.81,1.67 7.16,3 8,4.21 a 2.27,2.27 0 0 0 1.39,0.73 c -5,1.24 -11.42,4.43 -18.95,11.79 a 16.78,16.78 0 0 1 -2.62,-1.41 z m -101.74,-81.2 8.31,-3.86 c 1.81,1.54 3.75,3 5.65,4.42 -4.56,0.27 -10.69,0.57 -17.62,0.76 2.12,-0.71 3.66,-1.32 3.66,-1.32 z"
     id="path77"
     inkscape:connector-curvature="0"
     style="fill:url(#4cde2cde-bd85-47c9-bab2-0e38d604e335)" />
  <path
     d="m 200.51,299.73025 c 0,0 -7.26,-9.86 -11.21,-9.56 -3.95,0.3 -3.3,16.82 -3.3,16.82 z"
     id="path79"
     inkscape:connector-curvature="0"
     style="fill:#ffd5d8" />
  <path
     d="m 293.85,306.33025 c 0,0 -77.18,6.27 -91.69,-6.93 0,0 -13.52,-3.63 -16.82,1.32 -3.3,4.95 2.64,14.84 6.6,16.49 3.96,1.65 25.73,1 40.57,11.87 14.84,10.87 53.76,2 53.76,2 l 16.16,-6.27 z"
     id="path81"
     inkscape:connector-curvature="0"
     style="fill:#4d4d4d" />
  <path
     d="m 404.34,343.27025 c 0,0 -16.49,-11.87 -50.46,3 -33.97,14.87 -118.73,22.76 -118.73,22.76 0,0 -28.36,28.36 4,39.91 32.36,11.55 154.35,2 154.35,2 0,0 49.8,3.3 65.3,6.93 9.38,2.2 2,-8.42 -5.35,-17.14 a 30.29,30.29 0 0 0 -20.64,-10.7 c -9.74,-0.83 -23.25,-3.89 -29.43,-14.05 0,0 -11.87,-5.94 -29.68,11.87 l -17.18,-6.98 c 0,0 47.16,-14.84 48.81,-24.74 1.65,-9.9 -0.99,-12.86 -0.99,-12.86 z"
     id="path85"
     inkscape:connector-curvature="0"
     style="fill:#ffd5d8" />
  <path
     d="m 404.34,343.27025 c 0,0 -16.49,-11.87 -50.46,3 -33.97,14.87 -118.73,22.76 -118.73,22.76 0,0 -28.36,28.36 4,39.91 32.36,11.55 154.35,2 154.35,2 0,0 49.8,3.3 65.3,6.93 8.22,1.92 3.55,-6 -2.64,-13.82 a 37.88,37.88 0 0 0 -25.4,-14.22 c -9.5,-1.08 -21.62,-4.39 -27.37,-13.85 0,0 -11.87,-5.94 -29.68,11.87 l -17.19,-6.98 c 0,0 47.16,-14.84 48.81,-24.74 1.65,-9.9 -0.99,-12.86 -0.99,-12.86 z"
     id="path87"
     inkscape:connector-curvature="0"
     style="opacity:0.05" />
  <path
     d="m 404.67,296.44025 c 0,0 -20.78,-33 -69.92,-4.29 l -63,35 c 0,0 -35,22.1 -38.26,33.31 -3.26,11.21 -8.25,30.34 26.06,37.6 34.31,7.26 114.12,16.49 130.94,24.74 0,0 14.84,2 20.78,5.61 5.94,3.61 16.82,2.64 16.82,2.64 0,0 21.11,3.63 25.73,8.25 4.62,4.62 12.53,-7.92 2.64,-13.85 -9.89,-5.93 -32.32,-21.77 -32,-28 0.32,-6.23 -7.59,-17.24 -15.21,-18.58 -7.62,-1.34 -17.48,9.89 -17.48,9.89 0,0 -12.53,2 -20.12,-3 0,0 -38.92,-8.91 -42.88,-11.54 -3.96,-2.63 -31,-12.86 -31,-12.86 0,0 64,-0.66 82.78,-17.81 0,0 7.26,-5.28 13.19,-3.63 0.05,0.05 29.4,-11.16 10.93,-43.48 z"
     id="path89"
     inkscape:connector-curvature="0"
     style="fill:#ffd5d8" />
  <path
     d="m 217.66,234.43025 c 0,0 18.8,13.19 33.31,0 14.51,-13.19 6.28,40.57 6.28,40.57 0,0 -20.12,-26.72 -50.13,-9.23 z"
     id="path91"
     inkscape:connector-curvature="0"
     style="fill:#ffd5d8" />
  <path
     d="m 217.66,234.43025 c 0,0 18.8,13.19 33.31,0 14.51,-13.19 6.28,40.57 6.28,40.57 0,0 -20.12,-26.72 -50.13,-9.23 z"
     id="path93"
     inkscape:connector-curvature="0"
     style="opacity:0.05" />
  <path
     d="m 137.19,347.56025 c 0,0 19.79,-16.82 31,-17.15 3.34,-0.1 7.2,-3.5 11,-8.22 a 42.22,42.22 0 0 1 40.79,-15 c 6.38,1.18 14.23,1.15 23.76,-1.21 34.63,-8.58 17.48,-30 17.48,-30 l -10.88,-9.23 c 0,0 -14.84,-10.22 -20.45,-9.56 -5.61,0.66 -20.12,15.5 -21.77,13.85 -1.65,-1.65 -21.77,-16.49 -25.07,-20.45 -3.3,-3.96 -29.7,-16.82 -23.1,-20.45 6.6,-3.63 39.9,-17.15 33.3,-19.79 -6.6,-2.64 -42.22,-6.6 -56.07,9.89 -13.85,16.49 -6.93,117.75 0.01,127.32 z"
     id="path95"
     inkscape:connector-curvature="0"
     style="fill:#f8f9fa" />
  <path
     d="m 137.19,347.56025 c 0,0 19.79,-16.82 31,-17.15 3.34,-0.1 7.2,-3.5 11,-8.22 a 42.22,42.22 0 0 1 40.79,-15 c 6.38,1.18 14.23,1.15 23.76,-1.21 34.63,-8.58 17.48,-30 17.48,-30 l -10.88,-9.23 c 0,0 -14.84,-10.22 -20.45,-9.56 -5.61,0.66 -20.12,15.5 -21.77,13.85 -1.65,-1.65 -21.77,-16.49 -25.07,-20.45 -3.3,-3.96 -29.7,-16.82 -23.1,-20.45 6.6,-3.63 39.9,-17.15 33.3,-19.79 -6.6,-2.64 -42.22,-6.6 -56.07,9.89 -13.85,16.49 -6.93,117.75 0.01,127.32 z"
     id="path97"
     inkscape:connector-curvature="0"
     style="opacity:0.05" />
  <path
     d="m 138.51,345.25025 c 0,0 19.79,-16.82 31,-17.15 3.34,-0.1 7.2,-3.5 11,-8.22 a 42.22,42.22 0 0 1 40.74,-15.01 c 6.38,1.18 14.23,1.15 23.76,-1.21 34.63,-8.58 17.48,-30 17.48,-30 l -10.88,-9.23 c 0,0 -14.84,-10.22 -20.45,-9.56 -5.61,0.66 -20.12,15.5 -21.77,13.85 -1.65,-1.65 -21.77,-16.49 -25.07,-20.45 -3.3,-3.96 -29.65,-16.81 -23.07,-20.4 6.58,-3.59 39.91,-17.15 33.31,-19.79 -6.6,-2.64 -42.22,-6.6 -56.07,9.89 -13.85,16.49 -6.91,117.71 0.02,127.28 z"
     id="path99"
     inkscape:connector-curvature="0"
     style="fill:#f8f9fa" />
  <path
     d="m 235.14,233.77025 c 0,0 5.28,-25.07 43.87,-15.17 38.59,9.9 57.72,31.33 57.72,31.33 l -35,16.16 -42.88,-14.51 c 0,0 -24.03,0.29 -23.71,-17.81 z"
     id="path101"
     inkscape:connector-curvature="0"
     style="fill:#ffd5d8" />
  <path
     d="m 305.73,227.50025 c 0,0 37.11,8 40.61,13.51 a 1.19,1.19 0 0 0 0.29,0.34 c 1,0.66 2.64,16.49 13.19,14.51 10.55,-1.98 34,16.16 34,16.16 0,0 16.16,1.65 21.77,16.82 5.61,15.17 15.17,44.86 21.44,48.48 6.27,3.62 -2.64,29.35 -9.89,32 -7.25,2.65 -33.31,8.91 -35.62,5.61 -2.31,-3.3 -22.43,-6.93 -21.11,-17.48 1.32,-10.55 9.23,-20.45 3,-26.72 -6.23,-6.27 -10.22,-22.76 -19.46,-26.06 -9.24,-3.3 -25.73,-4.29 -35.62,2.31 -9.89,6.6 -21.84,6.89 -21.84,6.89 0,0 -20.45,-11.87 -23.75,-20.12 -2.22,-5.56 -13.28,-14.86 -20.26,-20.33 a 16,16 0 0 1 -6.11,-12 c -0.29,-8.14 -0.55,-20.14 0.31,-22.08 1.32,-3 19.46,-20.78 19.46,-20.78 z"
     id="path103"
     inkscape:connector-curvature="0"
     style="opacity:0.05" />
  <path
     d="m 307.05,226.87025 c 0,0 37.11,8 40.61,13.51 a 1.19,1.19 0 0 0 0.29,0.34 c 1,0.66 2.64,16.49 13.19,14.51 10.55,-1.98 34,16.16 34,16.16 0,0 16.16,1.65 21.77,16.82 5.61,15.17 15.17,44.86 21.44,48.48 6.27,3.62 -2.64,29.35 -9.89,32 -7.25,2.65 -33.31,8.91 -35.62,5.61 -2.31,-3.3 -22.43,-6.93 -21.11,-17.48 1.32,-10.55 9.23,-20.45 3,-26.72 -6.23,-6.27 -10.22,-22.76 -19.46,-26.06 -9.24,-3.3 -25.73,-4.29 -35.62,2.31 -9.89,6.6 -22.92,7.75 -22.92,7.75 0,0 -19.29,-12.7 -22.59,-20.94 -2.22,-5.56 -13.28,-14.86 -20.26,-20.33 a 16,16 0 0 1 -6.11,-12 c -0.29,-8.14 -0.55,-20.14 0.31,-22.08 1.32,-3 19.46,-20.78 19.46,-20.78 z"
     id="path105"
     inkscape:connector-curvature="0"
     style="fill:#4d4d4d" />
  <path
     d="m 221.62,298.41025 c -0.33,0.33 -5.94,8.58 0.66,13.19 a 14.77,14.77 0 0 0 12.86,2.27 z"
     id="path107"
     inkscape:connector-curvature="0"
     style="fill:#ffd5d8" />
  <path
     d="m 253.25,226.51025 c 0,0 8.91,-17.81 28,-13.19 19.09,4.62 46.83,21.44 53.43,38.26 6.6,16.82 -25,37.29 -25,37.29 l -37.6,17.48 c 0,0 -11.54,4.62 -14.84,3 -3.3,-1.62 -19.13,12.52 -19.13,12.52 0,0 -17.81,-17.15 -17.81,-23.09 0,-5.94 27.71,-14.91 27.71,-14.91 0,0 33,-6.27 32.65,-12.53 0,0 5.61,-6.6 2.64,-8.58 -2.97,-1.98 -34.8,-11.38 -34.8,-11.38 0,0 -1.15,-20.91 4.75,-24.87 z"
     id="path109"
     inkscape:connector-curvature="0"
     style="opacity:0.1" />
  <path
     d="m 252.25,225.52025 c 0,0 8.91,-17.81 28,-13.19 19.09,4.62 46.83,21.44 53.43,38.26 6.6,16.82 -24.99,37.28 -24.99,37.28 l -37.6,17.48 c 0,0 -11.54,4.62 -14.84,3 -3.3,-1.62 -19.13,12.52 -19.13,12.52 0,0 -17.81,-17.15 -17.81,-23.09 0,-5.94 27.71,-14.91 27.71,-14.91 0,0 33,-6.27 32.65,-12.53 0,0 5.61,-6.6 2.64,-8.58 -2.97,-1.98 -34.8,-11.38 -34.8,-11.38 0,0 -1.15,-20.9 4.74,-24.86 z"
     id="path111"
     inkscape:connector-curvature="0"
     style="fill:#4d4d4d" />
  <path
     d="m 210.08,262.46025 a 41.14,41.14 0 0 1 17.61,-5.83 c 1.81,-3.49 -2.94,-7.29 -2.94,-11.49 0,-3.52 -1.34,-4.86 -2.64,-7.92 -4.72,-1.71 -1.48,-6.1 -1.48,-6.1 z"
     id="path113"
     inkscape:connector-curvature="0"
     style="opacity:0.1" />
  <circle
     cx="202.15999"
     cy="248.28024"
     r="25.4"
     id="circle115"
     style="fill:#ffd5d8" />
  <path
     d="m 183.12,258.70025 c 5.67,-4.38 13.05,-5.85 20.19,-6.49 4.46,-0.4 9,-0.54 13.28,-1.9 a 48.2,48.2 0 0 0 7.14,-3.16 c 3.06,-1.56 6.22,-3.2 8.31,-5.93 3.26,-4.26 3.16,-10.16 5.2,-15.13 3.69,-9 13.87,-13.66 23.53,-14.87 5.61,-0.71 11.74,-0.71 16.18,-4.22 a 12.27,12.27 0 0 0 4.39,-7.25 2.61,2.61 0 0 0 -0.16,-1.86 2.66,2.66 0 0 0 -1.07,-0.86 c -5.8,-3.09 -12.78,-2.29 -19.35,-2.44 -10.69,-0.23 -21.11,-3.17 -31.45,-5.88 -4.38,-1.15 -9.11,-2.25 -13.33,-0.63 -4,1.53 -6.71,5.17 -9.92,8 -13.12,11.58 -34.9,9.9 -46.57,22.94 -2.7,3 -4.73,7.13 -3.74,11.06 0.41,1.61 1.29,3.08 1.58,4.72 0.57,3.23 -1.27,6.33 -2.83,9.21 -1.56,2.88 -2.92,6.4 -1.47,9.33 2.23,4.48 9,4.15 12.53,7.7 1.64,1.65 2.42,4 4.13,5.6 2.74,2.52 6.93,2.32 10.63,2 2,-0.19 5.27,-0.85 4.7,-3.53 -0.48,-2.4 -3.65,-3.43 -1.9,-6.41 z"
     id="path117"
     inkscape:connector-curvature="0"
     style="fill:#85596b" />
  <path
     d="m 174.25,273.87025 c 0,0 17.32,-13 28.2,-8.74 10.88,4.26 13.85,6.6 20.78,4 6.93,-2.6 9.89,5.28 9.89,5.28 l -43.16,12.46 z"
     id="path119"
     inkscape:connector-curvature="0"
     style="fill:#f8f9fa" />
  <path
     d="m 150.88,296.60025 c 0,0 7.92,-20.45 17.48,-24.41"
     id="path121"
     inkscape:connector-curvature="0"
     style="opacity:0.05" />
  <path
     d="m 140.65,290.00025 c 0,0 7.92,-20.45 17.48,-24.41"
     id="path123"
     inkscape:connector-curvature="0"
     style="opacity:0.05" />
  <path
     d="m 326.01,294.95025 c 0,0 28,-13.52 46.83,-12.2 18.83,1.32 22.1,-10.55 22.1,-10.55"
     id="path125"
     inkscape:connector-curvature="0"
     style="opacity:0.05" />
  <path
     d="m 204.88,632.51025 c -2.33,-2.17 -4.52,-4.73 -5.2,-7.84 -0.68,-3.11 0.65,-6.85 3.63,-8 3.33,-1.28 6.9,1 9.6,3.37 2.7,2.37 5.8,5 9.33,4.5 a 14.21,14.21 0 0 1 -4.39,-13.3 5.56,5.56 0 0 1 1.22,-2.7 c 1.85,-2 5.21,-1.13 7.42,0.43 7,5 9,14.53 9.05,23.15 0.71,-3.11 0.11,-6.35 0.13,-9.54 0.02,-3.19 0.89,-6.72 3.58,-8.44 a 10.79,10.79 0 0 1 5.46,-1.28 c 3.17,-0.12 6.7,0.2 8.86,2.52 2.69,2.88 2,7.71 -0.35,10.88 -2.35,3.17 -5.9,5.16 -9.17,7.35 a 20.34,20.34 0 0 0 -6.55,6.25 6.19,6.19 0 0 0 -0.49,1.12 h -19.85 a 55.36,55.36 0 0 1 -12.28,-8.47 z"
     id="path127"
     inkscape:connector-curvature="0"
     style="fill:#000000" />
  <path
     d="m 663.41,543.36025 a 9.84,9.84 0 0 1 -3.23,-4.88 c -0.42,-1.94 0.41,-4.26 2.26,-5 2.07,-0.79 4.29,0.64 6,2.1 1.71,1.46 3.6,3.11 5.8,2.8 a 8.83,8.83 0 0 1 -2.73,-8.27 3.45,3.45 0 0 1 0.76,-1.68 c 1.15,-1.23 3.24,-0.7 4.62,0.27 4.38,3.08 5.6,9 5.63,14.39 0.44,-1.93 0.07,-3.95 0.08,-5.93 0.01,-1.98 0.55,-4.18 2.23,-5.24 a 6.71,6.71 0 0 1 3.4,-0.8 c 2,-0.07 4.16,0.13 5.51,1.57 1.67,1.79 1.24,4.79 -0.22,6.76 -1.46,1.97 -3.67,3.21 -5.7,4.57 a 12.64,12.64 0 0 0 -4.07,3.89 3.85,3.85 0 0 0 -0.3,0.69 h -12.41 a 34.41,34.41 0 0 1 -7.63,-5.24 z"
     id="path129"
     inkscape:connector-curvature="0"
     style="fill:#000000" />
</svg>
