<?xml version="1.0" encoding="UTF-8" standalone="no"?>
<svg xmlns="http://www.w3.org/2000/svg" xmlns:xlink="http://www.w3.org/1999/xlink" style="isolation:isolate" viewBox="0 0 800 800" width="800pt" height="800pt">
    <defs>
        <clipPath id="_clipPath_OfsFj7kWULR7cBwzL3dqcvzQQMh9xhXK">
            <rect width="800" height="800"/>
        </clipPath>
    </defs>
    <switch>
        <g clip-path="url(#_clipPath_OfsFj7kWULR7cBwzL3dqcvzQQMh9xhXK)">
            <g>
                <path d=" M 214.147 324.243 L 71.036 252.686 L 71.036 76.549 L 214.147 148.104 L 214.147 324.243 Z " fill="rgb(115,199,192)"/>
                <path d=" M 214.16 324.243 L 357.273 252.686 L 357.273 76.549 L 214.16 148.104 L 214.16 324.243 Z " fill="rgb(65,178,168)"/>
                <path d=" M 71.036 76.556 L 208.643 5 L 357.26 76.556 L 214.147 148.112 L 71.036 76.556 Z " fill="rgb(148,217,211)"/>
                <path d=" M 623.768 788.189 L 439.37 795 L 341.883 616.789 L 526.281 609.979 L 623.768 788.189 Z " fill="rgb(232,227,125)"/>
                <path d=" M 623.774 788.189 L 728.964 636.581 L 631.478 458.372 L 526.287 609.977 L 623.774 788.189 Z " fill="rgb(217,213,132)"/>
                <path d=" M 341.897 616.787 L 441.518 468.228 L 631.486 458.371 L 526.294 609.977 L 341.897 616.787 Z " fill="rgb(246,243,175)"/>
            </g>
        </g>

    </switch>

</svg>