<?xml version="1.0" encoding="UTF-8" standalone="no"?>
<svg xmlns="http://www.w3.org/2000/svg" xmlns:xlink="http://www.w3.org/1999/xlink" style="isolation:isolate" viewBox="0 0 800 800" width="800pt" height="800pt">
    <defs>
        <clipPath id="_clipPath_j1ZHxZNuWFQogTcNr42h1xSktmZlaAOM">
            <rect width="800" height="800"/>
        </clipPath>
    </defs>
    <switch>
        <g clip-path="url(#_clipPath_j1ZHxZNuWFQogTcNr42h1xSktmZlaAOM)">
            <path d=" M 400 5 C 181.845 5 5 181.845 5 400 C 5 618.155 181.845 795 400 795 C 618.155 795 795 618.155 795 400 C 795 181.845 618.155 5 400 5 Z  M 493.568 277.962 L 434.191 277.962 C 427.156 277.962 419.339 287.219 419.339 299.522 L 419.339 342.396 L 493.607 342.396 L 482.373 403.539 L 419.339 403.539 L 419.339 587.092 L 349.267 587.092 L 349.267 403.539 L 285.697 403.539 L 285.697 342.396 L 349.267 342.396 L 349.267 306.434 C 349.267 254.838 385.064 212.91 434.191 212.91 L 493.568 212.91 L 493.568 277.962 Z " fill="rgb(255,255,255)"/>
        </g>
    </switch>
</svg>