<?xml version="1.0" encoding="UTF-8" standalone="no"?>
<svg xmlns="http://www.w3.org/2000/svg" xmlns:xlink="http://www.w3.org/1999/xlink" style="isolation:isolate" viewBox="0 0 800 800" width="800pt" height="800pt">
    <defs>
        <clipPath id="_clipPath_sIgVxwI9KXms29RgdSPtVZcTWXSVM1I1">
            <rect width="800" height="800"/>
        </clipPath>
    </defs>
    <switch>
        <g clip-path="url(#_clipPath_sIgVxwI9KXms29RgdSPtVZcTWXSVM1I1)">
            <circle vector-effect="non-scaling-stroke" cx="400" cy="400" r="395" fill="rgb(235,235,235)"/>
            <g>
                <path d=" M 596.048 360.825 L 579.941 360.825 L 579.941 359.995 L 399.969 359.995 L 399.969 439.983 L 512.981 439.983 C 496.494 486.545 452.19 519.97 399.969 519.97 C 333.709 519.97 279.988 466.248 279.988 399.989 C 279.988 333.729 333.709 280.008 399.969 280.008 C 430.554 280.008 458.379 291.546 479.566 310.393 L 536.127 253.832 C 500.413 220.547 452.641 200.02 399.969 200.02 C 289.536 200.02 200 289.556 200 399.989 C 200 510.422 289.536 599.958 399.969 599.958 C 510.401 599.958 599.938 510.422 599.938 399.989 C 599.938 386.581 598.557 373.493 596.048 360.825 Z " fill="rgb(255,193,7)"/>
                <path d=" M 223.059 306.913 L 288.759 355.096 C 306.536 311.083 349.589 280.008 399.971 280.008 C 430.556 280.008 458.382 291.546 479.569 310.393 L 536.13 253.832 C 500.416 220.547 452.643 200.02 399.971 200.02 C 323.163 200.02 256.554 243.383 223.059 306.913 Z " fill="rgb(255,61,0)"/>
                <path d=" M 399.956 599.98 C 451.608 599.98 498.541 580.213 534.025 548.068 L 472.135 495.697 C 451.384 511.478 426.027 520.013 399.956 519.993 C 347.944 519.993 303.781 486.828 287.144 440.545 L 221.934 490.787 C 255.029 555.547 322.238 599.98 399.956 599.98 Z " fill="rgb(76,175,80)"/>
                <path d=" M 596.111 360.95 L 580.003 360.95 L 580.003 360.12 L 400.031 360.12 L 400.031 440.108 L 513.043 440.108 C 505.157 462.268 490.951 481.633 472.18 495.809 L 472.21 495.789 L 534.1 548.16 C 529.721 552.14 600 500.098 600 400.114 C 600 386.706 598.62 373.618 596.111 360.95 Z " fill="rgb(25,118,210)"/>
            </g>
        </g>
    </switch>
</svg>