<?xml version="1.0" encoding="UTF-8" standalone="no"?><!-- Generator: Gravit.io --><svg xmlns="http://www.w3.org/2000/svg" xmlns:xlink="http://www.w3.org/1999/xlink" style="isolation:isolate" viewBox="0.5 0.5 19 19" width="19pt" height="19pt"><path d=" M 19.436 11.076 C 19.475 10.723 19.5 10.365 19.5 10 C 19.5 9.636 19.475 9.278 19.436 8.924 L 16.723 7.959 C 16.588 7.516 16.411 7.092 16.196 6.689 L 17.431 4.092 C 16.981 3.529 16.471 3.017 15.908 2.568 L 13.31 3.804 C 12.906 3.587 12.48 3.411 12.04 3.278 L 11.076 0.565 C 10.722 0.525 10.364 0.5 10 0.5 C 9.636 0.5 9.278 0.525 8.924 0.565 L 7.96 3.278 C 7.516 3.412 7.092 3.589 6.69 3.804 L 4.092 2.568 C 3.528 3.017 3.017 3.528 2.568 4.092 L 3.804 6.688 C 3.589 7.091 3.412 7.515 3.278 7.958 L 0.565 8.925 C 0.525 9.278 0.5 9.637 0.5 10.001 C 0.5 10.365 0.525 10.723 0.565 11.077 L 3.278 12.042 C 3.412 12.485 3.589 12.909 3.804 13.312 L 2.568 15.909 C 3.017 16.473 3.529 16.983 4.092 17.432 L 6.688 16.196 C 7.09 16.412 7.515 16.589 7.958 16.724 L 8.923 19.436 C 9.276 19.475 9.634 19.5 9.999 19.5 C 10.364 19.5 10.721 19.475 11.075 19.436 L 12.04 16.723 C 12.483 16.588 12.908 16.411 13.31 16.196 L 15.908 17.431 C 16.472 16.981 16.981 16.47 17.431 15.908 L 16.196 13.311 C 16.411 12.91 16.589 12.484 16.724 12.041 L 19.436 11.076 Z  M 10 13.018 C 9.604 13.018 9.211 12.94 8.845 12.788 C 8.479 12.637 8.146 12.414 7.866 12.134 C 7.3 11.568 6.982 10.801 6.981 10 C 6.981 9.2 7.299 8.432 7.865 7.866 C 8.431 7.3 9.198 6.982 9.999 6.982 C 10.799 6.981 11.567 7.299 12.133 7.865 C 12.699 8.431 13.017 9.199 13.017 9.999 C 13.018 10.8 12.7 11.567 12.134 12.133 C 11.568 12.7 10.8 13.018 10 13.018 Z " fill="rgb(204,201,255)"/></svg>