<?xml version="1.0" encoding="UTF-8" standalone="no"?>
<svg
   xmlns:dc="http://purl.org/dc/elements/1.1/"
   xmlns:cc="http://creativecommons.org/ns#"
   xmlns:rdf="http://www.w3.org/1999/02/22-rdf-syntax-ns#"
   xmlns:svg="http://www.w3.org/2000/svg"
   xmlns="http://www.w3.org/2000/svg"
   xmlns:sodipodi="http://sodipodi.sourceforge.net/DTD/sodipodi-0.dtd"
   xmlns:inkscape="http://www.inkscape.org/namespaces/inkscape"
   id="956f524d-cf77-4eed-97ec-c6a3c87f2838"
   data-name="Layer 1"
   width="485.87097"
   height="701.88898"
   viewBox="0 0 485.87098 701.88896"
   version="1.1"
   sodipodi:docname="undraw_workout_gcgu.svg"
   inkscape:version="0.92.4 (5da689c313, 2019-01-14)">
  <metadata
     id="metadata164">
    <rdf:RDF>
      <cc:Work
         rdf:about="">
        <dc:format>image/svg+xml</dc:format>
        <dc:type
           rdf:resource="http://purl.org/dc/dcmitype/StillImage" />
        <dc:title>workout</dc:title>
      </cc:Work>
    </rdf:RDF>
  </metadata>
  <sodipodi:namedview
     pagecolor="#ffffff"
     bordercolor="#666666"
     borderopacity="1"
     objecttolerance="10"
     gridtolerance="10"
     guidetolerance="10"
     inkscape:pageopacity="0"
     inkscape:pageshadow="2"
     inkscape:window-width="1920"
     inkscape:window-height="1057"
     id="namedview162"
     showgrid="false"
     fit-margin-top="0"
     fit-margin-left="0"
     fit-margin-right="0"
     fit-margin-bottom="0"
     inkscape:zoom="0.78188867"
     inkscape:cx="284.65781"
     inkscape:cy="492.68599"
     inkscape:window-x="-8"
     inkscape:window-y="-8"
     inkscape:window-maximized="1"
     inkscape:current-layer="956f524d-cf77-4eed-97ec-c6a3c87f2838" />
  <defs
     id="defs9">
    <linearGradient
       id="60552b3d-cc23-4bcb-bcbd-c0b00e2743d7"
       x1="454.54001"
       y1="832.71002"
       x2="454.54001"
       y2="147.53"
       gradientUnits="userSpaceOnUse"
       gradientTransform="translate(-145.99999,-147.56102)">
      <stop
         offset="0"
         stop-color="gray"
         stop-opacity="0.25"
         id="stop2" />
      <stop
         offset="0.54"
         stop-color="gray"
         stop-opacity="0.12"
         id="stop4" />
      <stop
         offset="1"
         stop-color="gray"
         stop-opacity="0.1"
         id="stop6" />
    </linearGradient>
  </defs>
  <title
     id="title11">workout</title>
  <ellipse
     cx="227"
     cy="664.67896"
     rx="227"
     ry="37.209999"
     id="ellipse17"
     style="fill:#000000" />
  <path
     d="m 461.77001,424.97898 c -10.21,2.56 -20.69,-2.42 -20.69,-2.42 0,0 -8.94,-10.35 -16.48,-11.75 -7.54,-1.4 -10.46,10.85 -14.94,14 -3.1,2.21 -25.46,0.63 -39,-0.55 l -2.33,-0.21 c -0.23,-0.17 -0.46,-0.35 -0.71,-0.51 0,0 -13,-4 -15.71,-7.54 -2.71,-3.54 -20.82,-10.09 -26.44,-9.71 -5.62,0.38 -22.23,1.28 -22.23,1.28 0,0 -6.51,-7.41 -9.45,-6.64 -2.94,0.77 -13.16,-0.06 -13.16,-0.06 0,0 -2.81,-7.22 -5.62,-17.57 -1.31,-4.83 -5.67,-8.22 -9.94,-10.45 3.84,-13 -3,-50.08 -24.24,-57.33 -4.63,-1.58 -7,-6.83 -10.94,-9.71 -3.53,-2.57 -9.31,-8.63 -6.48,-19.58 4,-15.33 13.92,-39.47 13.92,-39.47 l 7.39,-14.76 a 20.62,20.62 0 0 1 -2.34,2.93 c 1,-1.28 2,-2.54 2.86,-3.6 a 62.13,62.13 0 0 0 23.66,6.52 c 8.34,3.37 16.67,6.34 19.91,6.23 7.41,-0.26 26.31,9.2 26.31,9.2 0,0 45.47,13 54.92,14.05 9.45,1.05 14.05,-11.24 14.05,-11.24 0,0 4.91,-24.23 -3.81,-30.65 -8.72,-6.42 -13.79,23 -13.79,23 l -59.49,-21.44 -3.67,-1.93 a 33.35,33.35 0 0 0 6.67,-10.38 c 0.92,-2.29 1.76,-4.91 3.95,-6.05 a 5.58,5.58 0 0 1 1.88,-0.55 12.67,12.67 0 0 1 1.63,0 c 10.32,0.63 19.19,8.75 29.53,8.79 0.38,0 0.76,0 1.14,0 a 9.94,9.94 0 0 0 5.53,-1.7 8.68,8.68 0 0 0 3.18,-6.14 10.54,10.54 0 0 1 -0.5,0.94 12.33,12.33 0 0 0 0,-4.45 c -0.64,-3.51 -2.47,-6.66 -4.11,-9.83 a 5,5 0 0 1 -0.76,-2.46 3.39,3.39 0 0 1 1.29,-2.33 2.8,2.8 0 0 0 0.06,0.28 13.07,13.07 0 0 1 2.58,-1.89 22.06,22.06 0 0 0 9.64,-14.69 c -0.25,0.74 -0.55,1.47 -0.87,2.19 a 21.71,21.71 0 0 0 -1.05,-15.36 8.69,8.69 0 0 0 -2.66,-3.49 c -3.73,-2.62 -8.74,0.17 -13.29,0.47 -4,0.26 -7.88,-1.53 -11.49,-3.34 -6.16,-3.09 -12.29,-6.43 -17.42,-11 -5.83,-5.23 -10.16,-11.9 -15.42,-17.69 -5.26,-5.79 -12.01,-10.95 -19.84,-11.53 -14.23,-1.1 -27.65,13 -41.18,8.4 -6.6,-2.23 -10.94,-8.33 -15.53,-13.57 -4.59,-5.24 -10.9,-10.269999 -17.78,-9.14 -4.78,0.8 -8.92,4.51 -13.76,4.37 -2.53,-0.08 -4.88,-1.21 -7.28,-2 -5.81,-1.95 -13.77,-1 -15.84,4.78 a 8.52,8.52 0 0 0 0.75,7.17 10.78,10.78 0 0 0 -0.82,1.35 4.62,4.62 0 0 0 -0.49,3 30.9,30.9 0 0 0 12.2,52.72 c 0.19,0.73 0.38,1.46 0.56,2.2 1.94,8.17 2.95,17.37 0.08,23.57 -0.18,0.38 -0.37,0.75 -0.58,1.11 l -0.25,0.11 0.11,0.11 v 0 l -0.11,-0.11 v 0 l -0.36,-0.37 v 0 l -2.18,-2.28 c -0.12,-2.38 -1.46,-8.76 -10.78,-20.6 -12.27,-15.59 -14.57,-41.39 -14.57,-41.39 0,0 -3.06,-13.28 0,-17.11 3.06,-3.83 8.18,-45.999999 8.18,-45.999999 l 8.46,-23.74 c 0,0 41.13,-41.9000005 24,-47.00000049 -11.63,-3.47000001 -25.5,14.41000049 -33.2,26.23000049 a 46.77,46.77 0 0 0 -7.16,19.24 l -23.25,63.609999 c 0,0 -2.3,7.67 0,20.95 2.3,13.28 7.41,36.79 7.41,36.79 l 13,32.95 c 0,0 4.79,14.23 4.37,20.41 -0.57,0.37 -2.57,4.33 -4.3,7.93 l -1.27,2 -0.09,0.81 c -0.85,1.81 -1.44,3.11 -1.44,3.11 0,0 -7.24,21.37 -1.19,34.48 6.05,13.11 6.29,19.19 6.29,19.19 l 4.51,19.42 1.88,17 16.22,40.11 14.94,21.33 c 0,0 -1.4,15.71 -4.47,17.88 -3.07,2.17 -1.66,13.41 -1.66,13.41 l -1.92,29.5 c 0,0 -6,8.82 -6.38,23.12 -0.38,14.3 -2.56,18.4 -2.56,18.4 0,0 -1,12 1.79,17.5 2.79,5.5 -4.47,11.24 -4.47,11.24 l 6.23,21.39 -2.43,27.08 c 0,0 1.13,0.31 3,0.78 l -0.38,1.94 -10.16,51.3 c 0,0 -5.49,14.06 -5.74,17.37 l -17.76,32.07 c 0,0 -14.82,14.69 -7.79,16.09 7.03,1.4 27.47,-11.24 27.47,-11.24 0,0 16.86,-18.14 23.5,-19.79 6.64,-1.65 14,-6.4 11.88,-13.29 -2.12,-6.89 -7,-17.37 -2.3,-28.49 3,-7 9.38,-26 13.76,-39.26 0.24,-0.73 0.47,-1.43 0.7,-2.11 a 17.77,17.77 0 0 0 3.42,-0.65 c 10.73,-3.32 16.35,-1 16.35,-1 l 19.16,-77.53 4.21,-38.9 26.83,22.38 a 32.25,32.25 0 0 0 18.8,7.43 c 10.57,0.62 27.06,2.15 39,5.84 l 5,-20.82 c 0,0 14.3,0.52 17.37,-4.34 1.25,-2 2.48,-3.7 3.49,-5 l 2.32,-0.36 63.29,-9.79 c 11.75,0 27.85,-7.93 27.85,-7.93 l 9.84,-1.91 c 0,0 14.68,-2.94 16,-5.37 1.32,-2.43 -13.79,-10.5 -24.02,-7.96 z"
     id="path19"
     inkscape:connector-curvature="0"
     style="fill:url(#60552b3d-cc23-4bcb-bcbd-c0b00e2743d7)" />
  <path
     d="m 174.58001,112.70898 c 2,-5.64 9.82,-6.59 15.51,-4.68 2.34,0.78 4.65,1.89 7.12,2 4.74,0.14 8.79,-3.5 13.47,-4.27 6.73,-1.12 12.9,3.8 17.39,8.93 4.49,5.13 8.75,11.1 15.21,13.29 13.23,4.46 26.37,-9.3 40.29,-8.23 7.64,0.59 14.24,5.62 19.39,11.29 5.15,5.67 9.39,12.19 15.09,17.31 5,4.5 11,7.77 17.05,10.8 3.53,1.77 7.3,3.52 11.24,3.26 4.46,-0.29 9.36,-3 13,-0.46 a 8.49,8.49 0 0 1 2.6,3.42 c 4.48,9.32 0.87,21.73 -7.9,27.21 -1.53,0.95 -3.39,2 -3.48,3.83 a 4.82,4.82 0 0 0 0.74,2.41 c 1.6,3.1 3.4,6.19 4,9.62 0.6,3.43 -0.21,7.38 -3,9.46 a 10.18,10.18 0 0 1 -6.17,1.69 c -10.12,-0.05 -18.8,-8 -28.9,-8.61 a 7.3,7.3 0 0 0 -3.79,0.58 c -2.14,1.11 -3,3.68 -3.87,5.92 -4.68,11.69 -16.3,19.82 -28.7,22.05 -12.4,2.23 -25.35,-0.91 -36.45,-6.87 a 8.61,8.61 0 0 1 -2.21,-1.52 9.45,9.45 0 0 1 -1.91,-3.87 c -3.4,-10.75 -8,-22 -17.42,-28.21 -6.11,-4 -14.4,-6.25 -17.17,-13 -1.74,-4.27 -0.65,-9.12 -1.09,-13.72 a 21.09,21.09 0 0 0 -13.93,-17.58 c -1.64,-0.55 -3.44,-0.94 -4.64,-2.19 a 8.64,8.64 0 0 1 -1.8,-4.25 c -1.49,-6.77 -2.48,-13.92 -4.56,-20.53 -1.59,-5.18 -7.24,-9.15 -5.11,-15.08 z"
     id="path21"
     inkscape:connector-curvature="0"
     style="fill:#663d5b" />
  <g
     id="g27"
     style="opacity:0.1"
     transform="translate(-59.679993,-97.001019)">
    <path
       d="M 499.47,362.35 A 10.22,10.22 0 0 1 493.3,364 c -10.11,0 -18.79,-8 -28.89,-8.6 a 7.29,7.29 0 0 0 -3.79,0.57 c -2.15,1.11 -3,3.68 -3.87,5.92 -4.68,11.7 -16.31,19.83 -28.71,22.06 -12.4,2.23 -25.35,-0.91 -36.44,-6.87 a 8.69,8.69 0 0 1 -2.21,-1.52 9.51,9.51 0 0 1 -1.91,-3.87 c -3.4,-10.76 -8,-22 -17.42,-28.22 -6.12,-4.05 -14.41,-6.24 -17.17,-13 -1.75,-4.28 -0.66,-9.13 -1.09,-13.72 a 21.07,21.07 0 0 0 -13.94,-17.58 c -1.64,-0.55 -3.44,-0.95 -4.64,-2.19 a 8.57,8.57 0 0 1 -1.79,-4.26 c -1.5,-6.76 -2.48,-13.92 -4.56,-20.52 -1.4,-4.42 -5.81,-8 -5.59,-12.72 a 6.65,6.65 0 0 0 -0.34,0.77 c -2.14,5.93 3.52,9.9 5.13,15 2.08,6.6 3.06,13.76 4.56,20.52 a 8.57,8.57 0 0 0 1.79,4.26 c 1.2,1.24 3,1.64 4.64,2.19 A 21.07,21.07 0 0 1 351,319.81 c 0.43,4.59 -0.66,9.44 1.09,13.72 2.76,6.79 11.05,9 17.17,13 9.4,6.23 14,17.46 17.42,28.22 a 9.51,9.51 0 0 0 1.91,3.87 8.69,8.69 0 0 0 2.21,1.52 c 11.09,6 24,9.09 36.44,6.87 12.44,-2.22 24,-10.36 28.71,-22.06 0.9,-2.24 1.73,-4.81 3.87,-5.92 a 7.29,7.29 0 0 1 3.79,-0.57 c 10.1,0.61 18.78,8.56 28.89,8.6 a 10.22,10.22 0 0 0 6.17,-1.68 8.48,8.48 0 0 0 3.12,-6 7.43,7.43 0 0 1 -2.32,2.97 z"
       transform="translate(-86.32,-50.56)"
       id="path23"
       inkscape:connector-curvature="0" />
    <path
       d="m 501.21,337 c -1.53,1 -3.4,2 -3.49,3.83 a 3.05,3.05 0 0 0 0.17,1.08 12.59,12.59 0 0 1 2.52,-1.85 21.55,21.55 0 0 0 9.43,-14.37 21.07,21.07 0 0 1 -8.63,11.31 z"
       transform="translate(-86.32,-50.56)"
       id="path25"
       inkscape:connector-curvature="0" />
  </g>
  <path
     d="m 200.75001,606.43898 c -4.63,10.88 0.13,21.12 2.25,27.88 2.12,6.76 -5.12,11.37 -11.62,13 -6.5,1.63 -23,19.37 -23,19.37 0,0 -20,12.37 -26.88,11 -6.88,-1.37 7.62,-15.75 7.62,-15.75 l 17.38,-31.38 c 0.25,-3.24 5.62,-17 5.62,-17 l 9.94,-50.2 1.32,-6.67 35.24,-2.13 c 0,0 -1.85,5.72 -4.4,13.45 -4.29,13 -10.57,31.64 -13.47,38.43 z"
     id="path29"
     inkscape:connector-curvature="0"
     style="fill:#cc818c" />
  <path
     d="m 482.00001,430.96898 c -1.25,2.38 -15.62,5.25 -15.62,5.25 l -9.63,1.87 c 0,0 -15.75,7.76 -27.25,7.76 l -61.94,9.59 -8.31,1.29 v -35.14 c 0,0 4.18,0.44 10.1,1 13.23,1.16 35.12,2.7 38.15,0.54 4.38,-3.12 7.25,-15.12 14.62,-13.74 7.37,1.38 16.13,11.5 16.13,11.5 0,0 10.25,4.87 20.25,2.37 10,-2.5 24.75,5.33 23.5,7.71 z"
     id="path31"
     inkscape:connector-curvature="0"
     style="fill:#cc818c" />
  <path
     d="m 369.75001,452.71898 c 0,0 -0.89,1 -2.19,2.71 l -8.31,1.29 v -35.13 c 0,0 4.18,0.44 10.1,1 9.94,7.85 0.4,30.13 0.4,30.13 z"
     id="path33"
     inkscape:connector-curvature="0"
     style="opacity:0.1" />
  <path
     d="m 250.13001,444.59898 33.27,27.76 a 31.58,31.58 0 0 0 18.4,7.27 c 10.34,0.61 26.48,2.1 38.2,5.72 l 4.88,-20.38 c 0,0 14,0.5 17,-4.25 a 68.93,68.93 0 0 1 5.87,-8 c 0,0 10.13,-23.62 -1.37,-30.87 0,0 -12.75,-3.88 -15.38,-7.38 -2.63,-3.5 -20.37,-9.87 -25.87,-9.5 -5.5,0.37 -21.75,1.25 -21.75,1.25 0,0 -6.38,-7.25 -9.25,-6.5 -2.87,0.75 -12.88,0 -12.88,0 0,0 -2.75,-7.07 -5.5,-17.2 -2.75,-10.13 -19.12,-13.75 -19.12,-13.75 z"
     id="path35"
     inkscape:connector-curvature="0"
     style="fill:#565987" />
  <path
     d="m 250.13001,444.59898 33.27,27.76 a 31.58,31.58 0 0 0 18.4,7.27 c 10.34,0.61 26.48,2.1 38.2,5.72 l 4.88,-20.38 c 0,0 14,0.5 17,-4.25 a 68.93,68.93 0 0 1 5.87,-8 c 0,0 10.13,-23.62 -1.37,-30.87 0,0 -12.75,-3.88 -15.38,-7.38 -2.63,-3.5 -20.37,-9.87 -25.87,-9.5 -5.5,0.37 -21.75,1.25 -21.75,1.25 0,0 -6.38,-7.25 -9.25,-6.5 -2.87,0.75 -12.88,0 -12.88,0 0,0 -2.75,-7.07 -5.5,-17.2 -2.75,-10.13 -19.12,-13.75 -19.12,-13.75 z"
     id="path37"
     inkscape:connector-curvature="0"
     style="opacity:0.1" />
  <path
     d="m 235.25001,195.71898 -3.68,0.69 h -0.23 l -0.54,0.1 -6.3,1.17 -1.94,2.3 -0.08,0.08 -6.23,7.38 -5.25,5.15 -0.05,0.06 -4.44,4.32 -7.51,7.47 -1.26,3.11 -2.74,6.89 -0.71,1.75 -7.5,8 -4.79,10.25 -11.2,6.5 -12.05,-6.25 -5.5,-8 1.25,-11.46 0.25,-2.29 3.67,-5.89 3.33,-5.36 6.5,-9.25 12.5,-8.5 2.24,-0.59 2.51,-0.66 a 9.29,9.29 0 0 0 0.53,-0.85 10.23,10.23 0 0 0 0.57,-1.09 c 2.81,-6.06 1.82,-15.07 -0.08,-23.06 a 116,116 0 0 0 -5.77,-17.5 l 33,-4.75 c 0,0 -0.32,6.4 -0.32,16.38 v 0 c 0,2.5 0,5.21 0.07,8.11 0.16,9 8.52,12.9 14.83,14.56 a 41.56,41.56 0 0 0 4.94,1 c 1.22,0.19 1.98,0.23 1.98,0.23 z"
     id="path39"
     inkscape:connector-curvature="0"
     style="fill:#cc818c" />
  <path
     d="m 183.25001,200.43898 c 0,0 1.5,-6 -10.5,-21.25 -12,-15.25 -14.25,-40.5 -14.25,-40.5 0,0 -3,-13 0,-16.75 3,-3.75 8,-44.999999 8,-44.999999 l 8.25,-23.25 c 0,0 40.25,-41 23.5,-46.0000005 -11.38,-3.4 -25,14.1100005 -32.49,25.6700005 a 45.75,45.75 0 0 0 -7,18.83 v 0 l -22.76,62.249999 c 0,0 -2.25,7.5 0,20.5 2.25,13 7.25,36 7.25,36 l 12.75,32.28 c 0,0 6.71,20.1 3.23,22.55 l 7.77,-11.49 z"
     id="path41"
     inkscape:connector-curvature="0"
     style="fill:#cc818c" />
  <path
     d="m 382.50001,257.96898 c 0,0 -4.5,12 -13.75,11 -9.25,-1 -53.75,-13.75 -53.75,-13.75 0,0 -18.5,-9.25 -25.75,-9 -7.25,0.25 -40.5,-15.25 -40.5,-15.25 0,0 -2.34,3.08 -4.95,6.32 -2.84,3.55 -6,7.3 -6.8,7.43 -1.5,0.25 -24.75,3.5 -24.75,3.5 l -15.75,-7.25 -1.5,-6.53 -0.71,-3 3.49,-3.89 4.59,-5.11 8.61,-9.82 0.05,-0.06 11.49,-12.49 0.08,-0.08 7.36,-3 1.42,-0.58 h 0.23 c 0.88,-0.15 4.26,-0.46 8.79,2.1 a 25.2,25.2 0 0 0 10.27,3.18 32.12,32.12 0 0 1 19.33,8.28 l 37,19.47 58.25,21 c 0,0 5,-28.75 13.5,-22.5 8.5,6.25 3.75,30.03 3.75,30.03 z"
     id="path43"
     inkscape:connector-curvature="0"
     style="fill:#cc818c" />
  <path
     d="m 243.80001,237.28898 c -2.84,3.55 -6,7.3 -6.8,7.43 -1.5,0.25 -24.75,3.5 -24.75,3.5 l -15.75,-7.25 -1.5,-6.53 -0.71,1.75 -7.5,8 -4.79,10.25 -11.2,6.5 -12.05,-6.25 -5.5,-8 1.25,-11.46 c 0.63,-1.36 2.35,-5.06 3.92,-8.18 a 25,25 0 0 1 2.78,-4.86 c 1,-0.66 2.05,-7.75 2.05,-7.75 4.54,-13.09 19.75,-15.1 19.75,-15.1 l 2.43,2.28 1.06,1.1 c -0.43,-0.07 0.08,-1 -0.47,-0.85 -0.88,0.25 -1.27,1.58 -2.4,2.31 -6.15,4 -15.76,13.33 -19.56,17.76 -0.92,1.07 -1.87,2.12 -2.84,3.14 -5.49,5.81 -4.48,13.51 -4.48,13.51 -1.37,6 10.75,10.5 10.75,10.5 3.38,-5.62 26.25,-21.12 26.25,-21.12 l 15.4,-17.25 c 4.72,-8.22 14,-13.65 19.18,-16.19 2.29,-1.12 3.79,-1.68 3.79,-1.68 l 5.76,2.46 a 7.68,7.68 0 0 0 -4.61,0.2 15.75,15.75 0 0 0 -2.47,1 c -0.3,0.15 -0.6,0.31 -0.88,0.48 a 27.55,27.55 0 0 0 -4.42,3.19 l -12.94,14.13 c -9.89,10.79 -2.44,28.24 12.19,28.49 h 0.13 c 8.94,2.06 15.35,-2.08 18.93,-5.51 z"
     id="path45"
     inkscape:connector-curvature="0"
     style="opacity:0.1" />
  <path
     d="m 218.62001,554.58898 c 0,0 -1.85,5.72 -4.4,13.45 -9.78,0.73 -25.93,-3.05 -32.16,-4.65 l 1.32,-6.67 z"
     id="path47"
     inkscape:connector-curvature="0"
     style="opacity:0.1" />
  <path
     d="m 186.50001,202.71898 -3.2,-3.28 c 0,0 -11.55,1.58 -18.72,13.92 0,0 -3.35,9.25 -4.38,9.91 -1.03,0.66 -6.95,13.59 -6.95,13.59 0,0 -7.08,20.91 -1.17,33.75 5.91,12.84 6.17,18.75 6.17,18.75 l 4.42,19 1.83,16.66 15.88,39.25 14.62,20.83 c 0,0 -1.37,15.37 -4.37,17.5 -3,2.13 -1.63,13.12 -1.63,13.12 l -1.87,28.88 c 0,0 -5.88,8.62 -6.25,22.62 -0.37,14 -2.5,18 -2.5,18 0,0 -1,11.75 1.75,17.13 2.75,5.38 -4.38,11 -4.38,11 l 6.13,20.87 -2.38,26.5 c 0,0 28.25,7.88 38.75,4.63 10.5,-3.25 16,-1 16,-1 l 18.75,-75.91 6.5,-59.62 c 0,0 0.38,-42.25 6,-55.13 4.82,-11 -1.5,-50.19 -23.21,-57.59 -4.53,-1.54 -6.83,-6.68 -10.7,-9.5 -3.46,-2.51 -9.11,-8.44 -6.34,-19.16 3.88,-15 13.63,-38.62 13.63,-38.62 l 7.22,-14.38 c 0,0 -7.85,12.7 -22.22,9.45 h -0.13 c -14.63,-0.26 -22.08,-17.71 -12.19,-28.49 l 12.94,-14.14 c 0,0 7.13,-6.57 12.38,-4.91 l -5.75,-2.46 c 0,0 -16.19,6 -23,17.87 l -15.4,17.25 c 0,0 -22.85,15.43 -26.23,21.09 0,0 -12.12,-4.5 -10.75,-10.5 0,0 -1,-7.71 4.48,-13.52 1,-1 1.92,-2.06 2.84,-3.13 4.93,-5.76 18.56,-21.04 23.43,-20.23 z"
     id="path49"
     inkscape:connector-curvature="0"
     style="fill:#565987" />
  <path
     d="m 188.38001,305.71898 c 0,0 -3.63,26.38 -0.88,31.75 z"
     id="path51"
     inkscape:connector-curvature="0"
     style="opacity:0.1" />
  <path
     d="m 190.75001,315.96898 3.88,15.13 c 0,0 1.37,-9.25 -3.88,-15.13 z"
     id="path53"
     inkscape:connector-curvature="0"
     style="opacity:0.1" />
  <path
     d="m 167.75001,312.43898 c 0,0 7.75,38.5 16.25,50.13"
     id="path55"
     inkscape:connector-curvature="0"
     style="opacity:0.1" />
  <path
     d="m 222.38001,358.84898 c 0,0 -13.25,12.5 -18.38,11.59 0,0 20.38,0.88 26.75,-9.87 0,0.03 -4.12,-2.97 -8.37,-1.72 z"
     id="path57"
     inkscape:connector-curvature="0"
     style="opacity:0.1" />
  <path
     d="m 240.75001,357.84898 c 0,0 -17,12.37 -20.37,13.5 0,0 18.37,-5.25 20.37,-13.5 z"
     id="path59"
     inkscape:connector-curvature="0"
     style="opacity:0.1" />
  <path
     d="m 183.25001,265.96898 c 0,0 -8.5,10.88 -12.75,9.63 0,0 10.38,0.37 12.75,-9.63 z"
     id="path61"
     inkscape:connector-curvature="0"
     style="opacity:0.1" />
  <path
     d="m 192.88001,279.96898 c 0,0 18.5,-25.12 27.25,-24.12 0,0 -21,18.25 -27.25,24.12 z"
     id="path63"
     inkscape:connector-curvature="0"
     style="opacity:0.1" />
  <path
     d="m 218.50001,270.82898 c 0,0 -11.75,5.89 -10.5,7.61 1.25,1.72 10.5,-7.61 10.5,-7.61 z"
     id="path65"
     inkscape:connector-curvature="0"
     style="opacity:0.1" />
  <path
     d="m 227.00001,463.71898 c 0,0 -39.25,22.88 -42.87,24 0,0 6.75,5.13 13.12,2.63 6.37,-2.5 29.75,-26.63 29.75,-26.63 z"
     id="path67"
     inkscape:connector-curvature="0"
     style="opacity:0.1" />
  <path
     d="m 194.13001,511.34898 c 0,0 -15.75,-1.63 -15.13,3.5 0.62,5.13 15.13,-3.5 15.13,-3.5 z"
     id="path69"
     inkscape:connector-curvature="0"
     style="opacity:0.1" />
  <path
     d="m 213.75001,155.43898 c 0,0 -0.32,6.4 -0.32,16.38 v 0 a 30.28,30.28 0 0 1 -26.91,5.86 116,116 0 0 0 -5.77,-17.5 z"
     id="path71"
     inkscape:connector-curvature="0"
     style="opacity:0.1" />
  <circle
     cx="194.25"
     cy="146.47897"
     r="30.25"
     id="circle73"
     style="fill:#cc818c" />
  <path
     d="m 202.18001,164.93898 c 0.85,12.37 3.45,26.52 14.19,32.74 7.76,4.49 17.54,3.31 26.13,0.75 8.59,-2.56 17,-6.38 25.94,-6.81 6.87,-0.33 13.66,1.36 20.51,1.79 6.85,0.43 14.35,-0.64 19.24,-5.46 7,-6.86 5.72,-19.33 -0.91,-26.54 -6.63,-7.21 -17,-9.83 -26.82,-9.56 -12,0.33 -25.4,4 -34.89,-3.28 -6.37,-4.9 -8.78,-13.4 -14.14,-19.39 -8.95,-10 -48.53,-24.44 -56.91,-8.14 -3.93,7.63 13.93,13.08 18.07,18.6 6.54,8.71 8.81,13.88 9.59,25.3 z"
     id="path75"
     inkscape:connector-curvature="0"
     style="opacity:0.1" />
  <path
     d="m 203.11001,163.86898 c 0.86,12.38 3.45,26.53 14.19,32.74 7.76,4.49 17.54,3.31 26.13,0.76 8.59,-2.55 17,-6.38 25.95,-6.81 6.86,-0.33 13.65,1.35 20.51,1.79 6.86,0.44 14.34,-0.64 19.23,-5.46 7,-6.87 5.72,-19.33 -0.91,-26.54 -6.63,-7.21 -17,-9.83 -26.81,-9.56 -12,0.32 -25.41,4 -34.9,-3.29 -6.37,-4.9 -8.78,-13.39 -14.14,-19.39 -8.95,-10 -48.53,-24.43 -56.91,-8.13 -3.93,7.62 13.93,13.07 18.08,18.6 6.53,8.7 8.8,13.86 9.58,25.29 z"
     id="path77"
     inkscape:connector-curvature="0"
     style="fill:#663d5b" />
  <path
     d="m 166.73001,249.07898 a 27.94,27.94 0 0 1 11.89,-19.74"
     id="path79"
     inkscape:connector-curvature="0"
     style="opacity:0.1" />
  <path
     d="m 280.15001,405.71898 a 9.85,9.85 0 0 1 -0.71,2.85 90.93,90.93 0 0 1 -4.72,11.47 c 2.67,-0.23 4.87,-2.33 6,-4.75 a 23,23 0 0 0 1.61,-7.81 14.16,14.16 0 0 0 0.07,-2.52 c -0.07,-0.78 -0.57,-3.76 -1.86,-3.23 -1.04,0.44 -0.37,3.2 -0.39,3.99 z"
     id="path81"
     inkscape:connector-curvature="0"
     style="opacity:0.1" />
  <path
     d="m 310.92001,183.75898 c -4.9,4.82 -12.38,5.9 -19.24,5.46 -6.86,-0.44 -13.68,-2.12 -20.51,-1.78 -9,0.43 -17.34,4.25 -25.94,6.81 -8.6,2.56 -18.37,3.74 -26.14,-0.75 -10.73,-6.22 -13.33,-20.37 -14.18,-32.74 -0.78,-11.42 -3.06,-16.59 -9.59,-25.3 -3.95,-5.27 -20.35,-10.47 -18.47,-17.55 a 11.14,11.14 0 0 0 -1.4,2.08 c -3.93,7.62 13.93,13.07 18.08,18.6 6.53,8.7 8.8,13.88 9.58,25.29 0.86,12.38 3.45,26.53 14.19,32.74 7.76,4.49 17.54,3.31 26.13,0.76 8.59,-2.55 17,-6.38 25.95,-6.81 6.86,-0.33 13.65,1.35 20.51,1.79 6.86,0.44 14.34,-0.64 19.23,-5.46 a 14.92,14.92 0 0 0 3.25,-4.82 14.4,14.4 0 0 1 -1.45,1.68 z"
     id="path83"
     inkscape:connector-curvature="0"
     style="opacity:0.1" />
  <polygon
     points="232.24,377.36 224.24,371.69 220.57,379.69 "
     id="polygon85"
     style="fill:#cc818c"
     transform="translate(-59.679993,-97.001019)" />
  <polygon
     points="220.57,379.69 224.24,371.69 221.22,379.69 "
     id="polygon87"
     style="opacity:0.1"
     transform="translate(-59.679993,-97.001019)" />
  <ellipse
     cx="383.95676"
     cy="595.39899"
     rx="41"
     ry="5.6300001"
     id="ellipse89"
     style="opacity:0.1;fill:#000000" />
  <path
     d="m 400.61673,588.37904 a 11.64,11.64 0 0 0 3.83,-5.79 c 0.5,-2.3 -0.48,-5 -2.68,-5.89 -2.46,-0.94 -5.08,0.76 -7.08,2.49 -2,1.73 -4.28,3.68 -6.88,3.32 a 10.5,10.5 0 0 0 3.21,-9.84 4.08,4.08 0 0 0 -0.9,-2 c -1.37,-1.46 -3.84,-0.84 -5.48,0.31 -5.2,3.66 -6.65,10.72 -6.68,17.08 -0.52,-2.29 -0.08,-4.68 -0.09,-7 -0.01,-2.32 -0.66,-5 -2.65,-6.23 a 7.91,7.91 0 0 0 -4,-0.94 c -2.33,-0.09 -4.94,0.14 -6.53,1.85 -2,2.13 -1.47,5.69 0.25,8 1.72,2.31 4.35,3.8 6.77,5.42 a 15,15 0 0 1 4.83,4.61 4.16,4.16 0 0 1 0.36,0.83 h 14.66 a 41.11,41.11 0 0 0 9.06,-6.22 z"
     id="path137"
     inkscape:connector-curvature="0"
     style="fill:#000000" />
</svg>
