<?xml version="1.0" encoding="UTF-8"?>
<svg width="305.49" height="358.6" fill="none" version="1.1" viewBox="0 0 305.49 358.6" xmlns="http://www.w3.org/2000/svg" xmlns:cc="http://creativecommons.org/ns#" xmlns:dc="http://purl.org/dc/elements/1.1/" xmlns:rdf="http://www.w3.org/1999/02/22-rdf-syntax-ns#" xmlns:xlink="http://www.w3.org/1999/xlink">
 <metadata>
  <rdf:RDF>
   <cc:Work rdf:about="">
    <dc:format>image/svg+xml</dc:format>
    <dc:type rdf:resource="http://purl.org/dc/dcmitype/StillImage"/>
    <dc:title/>
   </cc:Work>
  </rdf:RDF>
 </metadata>
 <path d="m35.76 1-8.04 27.2h-3.92l-5.84-20.8-5.72 20.8h-3.92l-8.12-26.92 4.48-0.64 5.68 21.44 5.44-21.08h4.44l5.6 21.08 5.44-21.08zm21.087 17.36c0-2.933-0.7333-5.347-2.2-7.24s-3.6267-2.84-6.48-2.84c-1.9467 0-3.64 0.427-5.08 1.28-1.4133 0.853-2.5067 2.053-3.28 3.6-0.7467 1.52-1.12 3.293-1.12 5.32 0 3.147 0.92 5.64 2.76 7.48 1.8667 1.813 4.56 2.72 8.08 2.72 2.6133 0 5-0.747 7.16-2.24l-1.36-3.28c-1.1467 0.587-2.1333 1.027-2.96 1.32-0.8 0.267-1.72 0.4-2.76 0.4-3.7333 0-5.8-1.733-6.2-5.2h13.44zm-13.36-1.68c0.1867-1.44 0.6667-2.56 1.44-3.36 0.8-0.8 1.84-1.2 3.12-1.2 1.2533 0 2.2533 0.387 3 1.16s1.24 1.907 1.48 3.4zm33.133-2.04c2.16-1.787 4.054-2.68 5.68-2.68 2 0 3 1.347 3 4.04v12.2h4.52v-12.48c0-2.347-0.506-4.187-1.52-5.52-1.013-1.36-2.653-2.04-4.92-2.04-1.173 0-2.426 0.267-3.76 0.8-1.333 0.533-2.56 1.253-3.68 2.16l-0.8-2.32h-3v19.4h4.48zm35.99 3.72c0-2.933-0.734-5.347-2.2-7.24-1.467-1.893-3.627-2.84-6.48-2.84-1.947 0-3.64 0.427-5.08 1.28-1.414 0.853-2.507 2.053-3.28 3.6-0.747 1.52-1.12 3.293-1.12 5.32 0 3.147 0.92 5.64 2.76 7.48 1.866 1.813 4.56 2.72 8.08 2.72 2.613 0 5-0.747 7.16-2.24l-1.36-3.28c-1.147 0.587-2.134 1.027-2.96 1.32-0.8 0.267-1.72 0.4-2.76 0.4-3.734 0-5.8-1.733-6.2-5.2h13.44zm-13.36-1.68c0.186-1.44 0.666-2.56 1.44-3.36 0.8-0.8 1.84-1.2 3.12-1.2 1.253 0 2.253 0.387 3 1.16 0.746 0.773 1.24 1.907 1.48 3.4zm35.111 1.68c0-2.933-0.733-5.347-2.2-7.24-1.466-1.893-3.626-2.84-6.48-2.84-1.946 0-3.64 0.427-5.08 1.28-1.413 0.853-2.506 2.053-3.28 3.6-0.746 1.52-1.12 3.293-1.12 5.32 0 3.147 0.92 5.64 2.76 7.48 1.867 1.813 4.56 2.72 8.08 2.72 2.614 0 5-0.747 7.16-2.24l-1.36-3.28c-1.146 0.587-2.133 1.027-2.96 1.32-0.8 0.267-1.72 0.4-2.76 0.4-3.733 0-5.8-1.733-6.2-5.2h13.44zm-13.36-1.68c0.187-1.44 0.667-2.56 1.44-3.36 0.8-0.8 1.84-1.2 3.12-1.2 1.254 0 2.254 0.387 3 1.16 0.747 0.773 1.24 1.907 1.48 3.4zm35.432-16.68v28.2h-2.44l-0.96-1.6c-0.827 0.667-1.72 1.187-2.68 1.56-0.934 0.373-1.84 0.56-2.72 0.56-1.974 0-3.694-0.427-5.16-1.28-1.44-0.853-2.56-2.053-3.36-3.6-0.774-1.547-1.16-3.347-1.16-5.4 0-2.027 0.386-3.8 1.16-5.32 0.8-1.547 1.933-2.733 3.4-3.56 1.493-0.853 3.226-1.28 5.2-1.28 0.613 0 1.293 0.12 2.04 0.36 0.746 0.213 1.466 0.533 2.16 0.96v-9.2zm-13.88 18.4c0 1.947 0.453 3.507 1.36 4.68 0.933 1.173 2.2 1.76 3.8 1.76 0.8 0 1.533-0.12 2.2-0.36 0.666-0.267 1.333-0.68 2-1.24v-9.52c-0.64-0.56-1.294-0.96-1.96-1.2-0.667-0.267-1.414-0.4-2.24-0.4-1.6 0-2.867 0.587-3.8 1.76-0.907 1.173-1.36 2.68-1.36 4.52zm36.166-9.44v-5.64l-4.48 0.88v4.76h-2.68v3.44h2.68v10c0 2.107 0.613 3.72 1.84 4.84s2.92 1.68 5.08 1.68c0.587 0 1.227-0.107 1.92-0.32 0.72-0.187 1.28-0.413 1.68-0.68l-1.24-3.32c-0.72 0.32-1.387 0.48-2 0.48-0.933 0-1.64-0.307-2.12-0.92-0.453-0.64-0.68-1.48-0.68-2.52v-9.24h4.88l-1.36-3.44zm29.294 9.52c0 2.027-0.413 3.813-1.24 5.36s-2 2.747-3.52 3.6-3.293 1.28-5.32 1.28-3.787-0.427-5.28-1.28-2.653-2.04-3.48-3.56c-0.8-1.547-1.2-3.347-1.2-5.4 0-2.027 0.4-3.8 1.2-5.32 0.827-1.547 2-2.747 3.52-3.6s3.293-1.28 5.32-1.28 3.787 0.427 5.28 1.28c1.52 0.827 2.68 2.013 3.48 3.56 0.827 1.547 1.24 3.333 1.24 5.36zm-10.08 6.36c1.627 0 2.933-0.6 3.92-1.8 1.013-1.2 1.52-2.707 1.52-4.52 0-1.893-0.493-3.427-1.48-4.6-0.96-1.2-2.253-1.8-3.88-1.8-1.6 0-2.907 0.6-3.92 1.8-0.987 1.2-1.493 2.72-1.52 4.56 0 1.893 0.48 3.427 1.44 4.6 0.987 1.173 2.293 1.76 3.92 1.76zm-190.93 69.36v-28.24l-4.48 0.44v27.8zm23.363-9.84c0-2.933-0.7333-5.347-2.2-7.24s-3.6267-2.84-6.48-2.84c-1.9467 0-3.64 0.427-5.08 1.28-1.4133 0.853-2.5067 2.053-3.28 3.6-0.7467 1.52-1.12 3.293-1.12 5.32 0 3.147 0.92 5.64 2.76 7.48 1.8667 1.813 4.56 2.72 8.08 2.72 2.6133 0 5-0.747 7.16-2.24l-1.36-3.28c-1.1467 0.587-2.1333 1.027-2.96 1.32-0.8 0.267-1.72 0.4-2.76 0.4-3.7333 0-5.8-1.733-6.2-5.2h13.44zm-13.36-1.68c0.1867-1.44 0.6667-2.56 1.44-3.36 0.8-0.8 1.84-1.2 3.12-1.2 1.2533 0 2.2533 0.387 3 1.16s1.24 1.907 1.48 3.4zm19.952-3c1.9733-0.88 3.84-1.32 5.6-1.32 2.2933 0 3.4666 1.347 3.52 4.04h-4.24c-2.16 0-3.9067 0.533-5.24 1.6-1.3067 1.067-1.96 2.573-1.96 4.52 0 1.867 0.5733 3.36 1.72 4.48 1.1733 1.12 2.88 1.68 5.12 1.68 0.96 0 1.92-0.227 2.88-0.68s1.8133-1.04 2.56-1.76l0.68 1.96h3v-12.96c0-1.307-0.36-2.48-1.08-3.52-0.72-1.067-1.7067-1.907-2.96-2.52-1.2267-0.613-2.5867-0.92-4.08-0.92-0.9067 0-2.0934 0.173-3.56 0.52-1.44 0.347-2.5067 0.747-3.2 1.2zm1.6 8.84c0-0.88 0.28-1.613 0.84-2.2 0.5866-0.613 1.3733-0.92 2.36-0.92h4.36v3.48c-0.6667 0.693-1.4134 1.24-2.24 1.64-0.8267 0.4-1.6534 0.6-2.48 0.6-0.88 0-1.5734-0.253-2.08-0.76-0.5067-0.533-0.76-1.147-0.76-1.84zm22.402-6.68c1.0666-0.96 2.24-1.773 3.52-2.44s2.4-1 3.3597-1l-0.9197-3.6c-0.9334 0-2.0267 0.333-3.28 1-1.2267 0.667-2.32 1.4-3.28 2.2l-1.48-3.2h-2.4v19.4h4.48zm15.463-1.2c2.16-1.787 4.053-2.68 5.68-2.68 2 0 3 1.347 3 4.04v12.2h4.52v-12.48c0-2.347-0.507-4.187-1.52-5.52-1.014-1.36-2.654-2.04-4.92-2.04-1.174 0-2.427 0.267-3.76 0.8-1.334 0.533-2.56 1.253-3.68 2.16l-0.8-2.32h-3v19.4h4.48zm31.331-0.96c1.973-0.88 3.84-1.32 5.6-1.32 2.293 0 3.466 1.347 3.52 4.04h-4.24c-2.16 0-3.907 0.533-5.24 1.6-1.307 1.067-1.96 2.573-1.96 4.52 0 1.867 0.573 3.36 1.72 4.48 1.173 1.12 2.88 1.68 5.12 1.68 0.96 0 1.92-0.227 2.88-0.68s1.813-1.04 2.56-1.76l0.68 1.96h3v-12.96c0-1.307-0.36-2.48-1.08-3.52-0.72-1.067-1.707-1.907-2.96-2.52-1.227-0.613-2.587-0.92-4.08-0.92-0.907 0-2.094 0.173-3.56 0.52-1.44 0.347-2.507 0.747-3.2 1.2zm1.6 8.84c0-0.88 0.28-1.613 0.84-2.2 0.586-0.613 1.373-0.92 2.36-0.92h4.36v3.48c-0.667 0.693-1.414 1.24-2.24 1.64-0.827 0.4-1.654 0.6-2.48 0.6-0.88 0-1.574-0.253-2.08-0.76-0.507-0.533-0.76-1.147-0.76-1.84zm33.303 5.68v-28.24l-4.48 0.44v27.8zm8.603-22.52c0.747 0 1.373-0.253 1.88-0.76 0.533-0.533 0.8-1.173 0.8-1.92 0-0.72-0.267-1.333-0.8-1.84-0.507-0.533-1.133-0.8-1.88-0.8-0.72 0-1.333 0.267-1.84 0.8-0.507 0.507-0.76 1.12-0.76 1.84 0 0.747 0.24 1.387 0.72 1.92 0.507 0.507 1.133 0.76 1.88 0.76zm2.32 22.52v-19.4h-4.52v19.4zm11.342-19.24v-5.64l-4.48 0.88v4.76h-2.68v3.44h2.68v10c0 2.107 0.613 3.72 1.84 4.84 1.226 1.12 2.92 1.68 5.08 1.68 0.586 0 1.226-0.107 1.92-0.32 0.72-0.187 1.28-0.413 1.68-0.68l-1.24-3.32c-0.72 0.32-1.387 0.48-2 0.48-0.934 0-1.64-0.307-2.12-0.92-0.454-0.64-0.68-1.48-0.68-2.52v-9.24h4.88l-1.36-3.44zm15.814 0v-5.64l-4.48 0.88v4.76h-2.68v3.44h2.68v10c0 2.107 0.613 3.72 1.84 4.84 1.226 1.12 2.92 1.68 5.08 1.68 0.586 0 1.226-0.107 1.92-0.32 0.72-0.187 1.28-0.413 1.68-0.68l-1.24-3.32c-0.72 0.32-1.387 0.48-2 0.48-0.934 0-1.64-0.307-2.12-0.92-0.454-0.64-0.68-1.48-0.68-2.52v-9.24h4.88l-1.36-3.44zm15.334 19.24v-28.24l-4.48 0.44v27.8zm23.362-9.84c0-2.933-0.733-5.347-2.2-7.24-1.466-1.893-3.626-2.84-6.48-2.84-1.946 0-3.64 0.427-5.08 1.28-1.413 0.853-2.506 2.053-3.28 3.6-0.746 1.52-1.12 3.293-1.12 5.32 0 3.147 0.92 5.64 2.76 7.48 1.867 1.813 4.56 2.72 8.08 2.72 2.614 0 5-0.747 7.16-2.24l-1.36-3.28c-1.146 0.587-2.133 1.027-2.96 1.32-0.8 0.267-1.72 0.4-2.76 0.4-3.733 0-5.8-1.733-6.2-5.2h13.44zm-13.36-1.68c0.187-1.44 0.667-2.56 1.44-3.36 0.8-0.8 1.84-1.2 3.12-1.2 1.254 0 2.254 0.387 3 1.16 0.747 0.773 1.24 1.907 1.48 3.4zm-180.63 57.48c2.1067 0 3.6533 0.627 4.64 1.88 1.0133 1.253 1.52 3.013 1.52 5.28v12.88h-4.52v-12.2c0-1.333-0.2133-2.333-0.64-3-0.4-0.693-1.0933-1.04-2.08-1.04-0.7733 0-1.5867 0.227-2.44 0.68s-1.7733 1.067-2.76 1.84c0.0267 0.187 0.04 0.467 0.04 0.84v12.88h-4.52v-12.2c0-1.333-0.2133-2.333-0.64-3-0.4-0.693-1.0933-1.04-2.08-1.04-1.4133 0-3.2 0.893-5.36 2.68v13.56h-4.48v-19.4h3l0.8 2.32c1.12-0.907 2.32-1.627 3.6-2.16s2.4533-0.8 3.52-0.8c2.6133 0 4.3867 0.973 5.32 2.92 1.12-0.88 2.3067-1.587 3.56-2.12 1.28-0.533 2.4533-0.8 3.52-0.8zm30.826 10.32c0 2.027-0.4134 3.813-1.24 5.36-0.8267 1.547-2 2.747-3.52 3.6s-3.2934 1.28-5.32 1.28c-2.0267 0-3.7867-0.427-5.28-1.28-1.4934-0.853-2.6534-2.04-3.48-3.56-0.8-1.547-1.2-3.347-1.2-5.4 0-2.027 0.4-3.8 1.2-5.32 0.8266-1.547 2-2.747 3.52-3.6s3.2933-1.28 5.32-1.28c2.0266 0 3.7866 0.427 5.28 1.28 1.52 0.827 2.68 2.013 3.48 3.56 0.8266 1.547 1.24 3.333 1.24 5.36zm-10.08 6.36c1.6266 0 2.9333-0.6 3.92-1.8 1.0133-1.2 1.52-2.707 1.52-4.52 0-1.893-0.4934-3.427-1.48-4.6-0.96-1.2-2.2534-1.8-3.88-1.8-1.6 0-2.9067 0.6-3.92 1.8-0.9867 1.2-1.4934 2.72-1.52 4.56 0 1.893 0.48 3.427 1.44 4.6 0.9866 1.173 2.2933 1.76 3.92 1.76zm19.346-9c1.0667-0.96 2.24-1.773 3.5202-2.44 1.28-0.667 2.4-1 3.36-1l-0.92-3.6c-0.934 0-2.027 0.333-3.28 1-1.2269 0.667-2.3202 1.4-3.2802 2.2l-1.48-3.2h-2.4v19.4h4.48zm27.942 2.52c0-2.933-0.733-5.347-2.2-7.24-1.466-1.893-3.626-2.84-6.48-2.84-1.946 0-3.64 0.427-5.08 1.28-1.413 0.853-2.506 2.053-3.28 3.6-0.746 1.52-1.12 3.293-1.12 5.32 0 3.147 0.92 5.64 2.76 7.48 1.867 1.813 4.56 2.72 8.08 2.72 2.614 0 5-0.747 7.16-2.24l-1.36-3.28c-1.146 0.587-2.133 1.027-2.96 1.32-0.8 0.267-1.72 0.4-2.76 0.4-3.733 0-5.8-1.733-6.2-5.2h13.44zm-13.36-1.68c0.187-1.44 0.667-2.56 1.44-3.36 0.8-0.8 1.84-1.2 3.12-1.2 1.254 0 2.254 0.387 3 1.16 0.747 0.773 1.24 1.907 1.48 3.4zm30.453-3c1.974-0.88 3.84-1.32 5.6-1.32 2.294 0 3.467 1.347 3.52 4.04h-4.24c-2.16 0-3.906 0.533-5.24 1.6-1.306 1.067-1.96 2.573-1.96 4.52 0 1.867 0.574 3.36 1.72 4.48 1.174 1.12 2.88 1.68 5.12 1.68 0.96 0 1.92-0.227 2.88-0.68s1.814-1.04 2.56-1.76l0.68 1.96h3v-12.96c0-1.307-0.36-2.48-1.08-3.52-0.72-1.067-1.706-1.907-2.96-2.52-1.226-0.613-2.586-0.92-4.08-0.92-0.906 0-2.093 0.173-3.56 0.52-1.44 0.347-2.506 0.747-3.2 1.2zm1.6 8.84c0-0.88 0.28-1.613 0.84-2.2 0.587-0.613 1.374-0.92 2.36-0.92h4.36v3.48c-0.666 0.693-1.413 1.24-2.24 1.64-0.826 0.4-1.653 0.6-2.48 0.6-0.88 0-1.573-0.253-2.08-0.76-0.506-0.533-0.76-1.147-0.76-1.84zm26.602-14.24c1.974 0 3.694 0.427 5.16 1.28 1.467 0.827 2.587 2.013 3.36 3.56 0.8 1.547 1.2 3.36 1.2 5.44 0 2-0.4 3.773-1.2 5.32-0.8 1.52-1.946 2.707-3.44 3.56-1.466 0.853-3.186 1.28-5.16 1.28-0.72 0-1.533-0.16-2.44-0.48-0.88-0.32-1.706-0.747-2.48-1.28l-0.92 1.24h-2.36v-27.8l4.48-0.44v9.36c1.307-0.693 2.574-1.04 3.8-1.04zm-0.08 16.56c1.6 0 2.854-0.587 3.76-1.76 0.934-1.173 1.4-2.68 1.4-4.52 0-1.92-0.453-3.467-1.36-4.64-0.906-1.2-2.173-1.8-3.8-1.8-0.693 0-1.346 0.107-1.96 0.32-0.586 0.213-1.173 0.533-1.76 0.96v10.24c1.094 0.8 2.334 1.2 3.72 1.2zm33.437-6.36c0 2.027-0.413 3.813-1.24 5.36-0.826 1.547-2 2.747-3.52 3.6s-3.293 1.28-5.32 1.28c-2.026 0-3.786-0.427-5.28-1.28-1.493-0.853-2.653-2.04-3.48-3.56-0.8-1.547-1.2-3.347-1.2-5.4 0-2.027 0.4-3.8 1.2-5.32 0.827-1.547 2-2.747 3.52-3.6s3.294-1.28 5.32-1.28c2.027 0 3.787 0.427 5.28 1.28 1.52 0.827 2.68 2.013 3.48 3.56 0.827 1.547 1.24 3.333 1.24 5.36zm-10.08 6.36c1.627 0 2.934-0.6 3.92-1.8 1.014-1.2 1.52-2.707 1.52-4.52 0-1.893-0.493-3.427-1.48-4.6-0.96-1.2-2.253-1.8-3.88-1.8-1.6 0-2.906 0.6-3.92 1.8-0.986 1.2-1.493 2.72-1.52 4.56 0 1.893 0.48 3.427 1.44 4.6 0.987 1.173 2.294 1.76 3.92 1.76zm27.867-2.48c-2.16 1.787-4.054 2.68-5.68 2.68-2 0-3-1.347-3-4.04v-12.2h-4.48v12.48c0 5.04 2.133 7.56 6.4 7.56 1.173 0 2.426-0.267 3.76-0.8 1.333-0.533 2.56-1.253 3.68-2.16l0.8 2.32h3.04v-19.4h-4.52zm15.869-13.4v-5.64l-4.48 0.88v4.76h-2.68v3.44h2.68v10c0 2.107 0.613 3.72 1.84 4.84s2.92 1.68 5.08 1.68c0.587 0 1.227-0.107 1.92-0.32 0.72-0.187 1.28-0.413 1.68-0.68l-1.24-3.32c-0.72 0.32-1.387 0.48-2 0.48-0.933 0-1.64-0.307-2.12-0.92-0.453-0.64-0.68-1.48-0.68-2.52v-9.24h4.88l-1.36-3.44z" fill="#e6e6e6"/>
 <path d="m230.7 161.92c-0.294 0.8-0.84 1.44-1.64 1.92-0.774 0.507-1.814 1.04-3.12 1.6l1.56 3.6c1.653-0.373 3.16-1.08 4.52-2.12 1.386-1.04 2.346-2.267 2.88-3.68l8.64-22.44h-4.72l-4.68 12.88-4.96-13.6-4.36 1.44 6.88 17.76zm35.811-11.44c0 2.027-0.413 3.813-1.24 5.36s-2 2.747-3.52 3.6-3.293 1.28-5.32 1.28-3.787-0.427-5.28-1.28-2.653-2.04-3.48-3.56c-0.8-1.547-1.2-3.347-1.2-5.4 0-2.027 0.4-3.8 1.2-5.32 0.827-1.547 2-2.747 3.52-3.6s3.293-1.28 5.32-1.28 3.787 0.427 5.28 1.28c1.52 0.827 2.68 2.013 3.48 3.56 0.827 1.547 1.24 3.333 1.24 5.36zm-10.08 6.36c1.627 0 2.933-0.6 3.92-1.8 1.013-1.2 1.52-2.707 1.52-4.52 0-1.893-0.493-3.427-1.48-4.6-0.96-1.2-2.253-1.8-3.88-1.8-1.6 0-2.907 0.6-3.92 1.8-0.987 1.2-1.493 2.72-1.52 4.56 0 1.893 0.48 3.427 1.44 4.6 0.987 1.173 2.293 1.76 3.92 1.76zm27.867-2.48c-2.16 1.787-4.054 2.68-5.68 2.68-2 0-3-1.347-3-4.04v-12.2h-4.48v12.48c0 5.04 2.133 7.56 6.4 7.56 1.173 0 2.426-0.267 3.76-0.8 1.333-0.533 2.56-1.253 3.68-2.16l0.8 2.32h3.04v-19.4h-4.52z" fill="#e05cb3"/>
 <path d="m16.74 274.6-3.72 13.6h-1.52l-3.12-11.24-2.94 11.24h-1.52l-3.92-13.5 1.56-0.24 3.14 11.58 2.94-11.44h1.54l3.08 11.44 2.96-11.44zm11.528 9c0-1.6-0.34-2.893-1.02-3.88-0.6666-0.987-1.7066-1.48-3.12-1.48-0.9333 0-1.7466 0.22-2.44 0.66-0.68 0.427-1.2 1.027-1.56 1.8-0.3466 0.76-0.52 1.633-0.52 2.62 0 1.56 0.4334 2.807 1.3 3.74 0.8667 0.933 2.1267 1.4 3.78 1.4 0.6667 0 1.2734-0.087 1.82-0.26 0.5467-0.187 1.0934-0.433 1.64-0.74l-0.5-1.16c-0.6 0.293-1.12 0.507-1.56 0.64-0.4266 0.133-0.9 0.2-1.42 0.2-1.1466 0-2-0.313-2.56-0.94-0.5466-0.64-0.84-1.507-0.88-2.6zm-7-1.08c0.0934-0.907 0.3734-1.62 0.84-2.14 0.48-0.533 1.1334-0.8 1.96-0.8 1.5334 0 2.4134 0.98 2.64 2.94zm18.628-5.96c-0.3067 0-0.5667-0.1-0.78-0.3-0.2-0.2-0.3-0.453-0.3-0.76s0.1-0.56 0.3-0.76c0.2133-0.213 0.4733-0.32 0.78-0.32 0.2933 0 0.5466 0.107 0.76 0.32 0.2133 0.213 0.32 0.467 0.32 0.76s-0.1067 0.547-0.32 0.76c-0.2134 0.2-0.4667 0.3-0.76 0.3zm0.8 12.24c0 0.733-0.06 1.313-0.18 1.74-0.1067 0.427-0.34 0.793-0.7 1.1-0.3467 0.307-0.88 0.58-1.6 0.82l-0.62-1.14c0.4533-0.16 0.7866-0.34 1-0.54 0.2133-0.2 0.3533-0.447 0.42-0.74 0.0666-0.293 0.0933-0.707 0.08-1.24v-10.3h1.6zm11.191-3.44c-0.4667 0.507-1.0067 0.927-1.62 1.26-0.6 0.333-1.14 0.5-1.62 0.5-0.6267 0-1.0734-0.2-1.34-0.6-0.2667-0.4-0.4-0.96-0.4-1.68v-6.34h-1.58v6.56c0 1.04 0.2466 1.873 0.74 2.5 0.5066 0.613 1.2733 0.92 2.3 0.92 0.6133 0 1.26-0.16 1.94-0.48s1.2533-0.72 1.72-1.2l0.26 1.4h1.18v-9.72h-1.58zm5.6059 2.28c0.36 0.253 0.8533 0.453 1.48 0.6s1.1667 0.22 1.62 0.22c1.2533 0 2.2133-0.247 2.88-0.74 0.68-0.493 1.02-1.187 1.02-2.08 0-1.253-1.0867-2.28-3.26-3.08-0.72-0.24-1.2733-0.487-1.66-0.74s-0.5867-0.553-0.6-0.9c0-0.413 0.1867-0.747 0.56-1 0.3867-0.267 0.88-0.4 1.48-0.4 0.4933 0 0.9333 0.06 1.32 0.18s0.8 0.28 1.24 0.48l0.5-1.08c-0.3467-0.253-0.8267-0.46-1.44-0.62-0.6-0.16-1.1267-0.24-1.58-0.24-1.12 0-2.0067 0.247-2.66 0.74-0.64 0.48-0.96 1.147-0.96 2 0 0.707 0.2933 1.287 0.88 1.74s1.3467 0.833 2.28 1.14c1.6 0.533 2.4 1.16 2.4 1.88 0 0.453-0.2133 0.807-0.64 1.06s-1.0067 0.38-1.74 0.38c-0.84 0-1.7133-0.227-2.62-0.68zm12.958-8.98v-2.92l-1.58 0.44v2.48h-1.42l0.02 1.2h1.4v5.82c0 0.907 0.24 1.607 0.72 2.1 0.493 0.48 1.16 0.72 2 0.72 0.507 0 1-0.113 1.48-0.34l-0.36-1.24c-0.333 0.133-0.627 0.2-0.88 0.2-0.467 0-0.813-0.147-1.04-0.44s-0.34-0.7-0.34-1.22v-5.6h2.28l-0.52-1.2zm14.594 2.66c0.467-0.507 1-0.927 1.6-1.26 0.614-0.333 1.16-0.5 1.64-0.5 0.627 0 1.074 0.2 1.34 0.6 0.267 0.4 0.4 0.96 0.4 1.68v6.34h1.58v-6.56c0-1.04-0.253-1.867-0.76-2.48-0.493-0.627-1.253-0.94-2.28-0.94-0.613 0-1.26 0.16-1.94 0.48s-1.253 0.72-1.72 1.2l-0.26-1.38h-1.18v9.7h1.58zm19.066 2.28c0-1.6-0.34-2.893-1.02-3.88-0.666-0.987-1.706-1.48-3.12-1.48-0.933 0-1.746 0.22-2.44 0.66-0.68 0.427-1.2 1.027-1.56 1.8-0.346 0.76-0.52 1.633-0.52 2.62 0 1.56 0.434 2.807 1.3 3.74 0.867 0.933 2.127 1.4 3.78 1.4 0.667 0 1.274-0.087 1.82-0.26 0.547-0.187 1.094-0.433 1.64-0.74l-0.5-1.16c-0.6 0.293-1.12 0.507-1.56 0.64-0.426 0.133-0.9 0.2-1.42 0.2-1.146 0-2-0.313-2.56-0.94-0.546-0.64-0.84-1.507-0.88-2.6zm-7-1.08c0.094-0.907 0.374-1.62 0.84-2.14 0.48-0.533 1.134-0.8 1.96-0.8 1.534 0 2.414 0.98 2.64 2.94zm18.981 1.08c0-1.6-0.34-2.893-1.02-3.88-0.667-0.987-1.707-1.48-3.12-1.48-0.934 0-1.747 0.22-2.44 0.66-0.68 0.427-1.2 1.027-1.56 1.8-0.347 0.76-0.52 1.633-0.52 2.62 0 1.56 0.433 2.807 1.3 3.74 0.866 0.933 2.126 1.4 3.78 1.4 0.666 0 1.273-0.087 1.82-0.26 0.546-0.187 1.093-0.433 1.64-0.74l-0.5-1.16c-0.6 0.293-1.12 0.507-1.56 0.64-0.427 0.133-0.9 0.2-1.42 0.2-1.147 0-2-0.313-2.56-0.94-0.547-0.64-0.84-1.507-0.88-2.6zm-7-1.08c0.093-0.907 0.373-1.62 0.84-2.14 0.48-0.533 1.133-0.8 1.96-0.8 1.533 0 2.413 0.98 2.64 2.94zm18.82-8.42v14.1h-0.96l-0.3-0.74c-0.4 0.32-0.833 0.567-1.3 0.74s-0.907 0.26-1.32 0.26c-1.44 0-2.573-0.467-3.4-1.4-0.813-0.947-1.22-2.2-1.22-3.76 0-0.987 0.187-1.86 0.56-2.62 0.387-0.773 0.927-1.373 1.62-1.8 0.707-0.427 1.533-0.64 2.48-0.64 0.347 0 0.713 0.067 1.1 0.2 0.4 0.133 0.78 0.313 1.14 0.54v-4.7zm-3.9 13.02c0.48 0 0.9-0.073 1.26-0.22 0.373-0.16 0.72-0.4 1.04-0.72v-5.74c-0.64-0.573-1.4-0.86-2.28-0.86-0.96 0-1.7 0.347-2.22 1.04-0.52 0.68-0.787 1.567-0.8 2.66 0 1.16 0.253 2.093 0.76 2.8 0.52 0.693 1.267 1.04 2.24 1.04zm14.774 0.52c0.36 0.253 0.853 0.453 1.48 0.6 0.626 0.147 1.166 0.22 1.62 0.22 1.253 0 2.213-0.247 2.88-0.74 0.68-0.493 1.02-1.187 1.02-2.08 0-1.253-1.087-2.28-3.26-3.08-0.72-0.24-1.274-0.487-1.66-0.74-0.387-0.253-0.587-0.553-0.6-0.9 0-0.413 0.186-0.747 0.56-1 0.386-0.267 0.88-0.4 1.48-0.4 0.493 0 0.933 0.06 1.32 0.18 0.386 0.12 0.8 0.28 1.24 0.48l0.5-1.08c-0.347-0.253-0.827-0.46-1.44-0.62-0.6-0.16-1.127-0.24-1.58-0.24-1.12 0-2.007 0.247-2.66 0.74-0.64 0.48-0.96 1.147-0.96 2 0 0.707 0.293 1.287 0.88 1.74 0.586 0.453 1.346 0.833 2.28 1.14 1.6 0.533 2.4 1.16 2.4 1.88 0 0.453-0.214 0.807-0.64 1.06-0.427 0.253-1.007 0.38-1.74 0.38-0.84 0-1.714-0.227-2.62-0.68zm19.718-4.26c0 0.987-0.2 1.867-0.6 2.64-0.387 0.76-0.947 1.36-1.68 1.8-0.733 0.427-1.587 0.64-2.56 0.64-0.933 0-1.747-0.213-2.44-0.64-0.693-0.44-1.227-1.047-1.6-1.82-0.36-0.787-0.54-1.68-0.54-2.68 0.013-0.987 0.207-1.86 0.58-2.62 0.387-0.773 0.94-1.373 1.66-1.8 0.72-0.44 1.56-0.66 2.52-0.66 1.453 0 2.593 0.467 3.42 1.4 0.827 0.92 1.24 2.167 1.24 3.74zm-4.76 3.74c0.96 0 1.72-0.347 2.28-1.04 0.56-0.707 0.847-1.6 0.86-2.68 0-1.147-0.267-2.067-0.8-2.76-0.533-0.707-1.287-1.06-2.26-1.06-0.96 0-1.72 0.353-2.28 1.06-0.56 0.693-0.847 1.58-0.86 2.66 0 1.133 0.267 2.053 0.8 2.76s1.287 1.06 2.26 1.06zm19.683-8.92c0.986 0 1.72 0.313 2.2 0.94 0.48 0.613 0.72 1.44 0.72 2.48v6.56h-1.58v-6.34c0-0.72-0.12-1.28-0.36-1.68s-0.654-0.6-1.24-0.6c-0.414 0-0.894 0.153-1.44 0.46-0.534 0.293-1.034 0.673-1.5 1.14 0.013 0.093 0.02 0.247 0.02 0.46v6.56h-1.58v-6.34c0-0.72-0.12-1.28-0.36-1.68s-0.654-0.6-1.24-0.6c-0.427 0-0.934 0.167-1.52 0.5-0.574 0.333-1.094 0.753-1.56 1.26v6.88h-1.58v-9.7h1.18l0.26 1.38c0.466-0.48 1.02-0.88 1.66-1.2 0.653-0.32 1.266-0.48 1.84-0.48 0.653 0 1.193 0.147 1.62 0.44 0.44 0.293 0.766 0.707 0.98 1.24 0.466-0.48 1.02-0.88 1.66-1.2s1.246-0.48 1.82-0.48zm15.407 5.4c0-1.6-0.34-2.893-1.02-3.88-0.667-0.987-1.707-1.48-3.12-1.48-0.933 0-1.747 0.22-2.44 0.66-0.68 0.427-1.2 1.027-1.56 1.8-0.347 0.76-0.52 1.633-0.52 2.62 0 1.56 0.433 2.807 1.3 3.74s2.127 1.4 3.78 1.4c0.667 0 1.273-0.087 1.82-0.26 0.547-0.187 1.093-0.433 1.64-0.74l-0.5-1.16c-0.6 0.293-1.12 0.507-1.56 0.64-0.427 0.133-0.9 0.2-1.42 0.2-1.147 0-2-0.313-2.56-0.94-0.547-0.64-0.84-1.507-0.88-2.6zm-7-1.08c0.093-0.907 0.373-1.62 0.84-2.14 0.48-0.533 1.133-0.8 1.96-0.8 1.533 0 2.413 0.98 2.64 2.94zm25.488-8.42v14.1h-0.96l-0.3-0.74c-0.4 0.32-0.833 0.567-1.3 0.74-0.466 0.173-0.906 0.26-1.32 0.26-1.44 0-2.573-0.467-3.4-1.4-0.813-0.947-1.22-2.2-1.22-3.76 0-0.987 0.187-1.86 0.56-2.62 0.387-0.773 0.927-1.373 1.62-1.8 0.707-0.427 1.534-0.64 2.48-0.64 0.347 0 0.714 0.067 1.1 0.2 0.4 0.133 0.78 0.313 1.14 0.54v-4.7zm-3.9 13.02c0.48 0 0.9-0.073 1.26-0.22 0.374-0.16 0.72-0.4 1.04-0.72v-5.74c-0.64-0.573-1.4-0.86-2.28-0.86-0.96 0-1.7 0.347-2.22 1.04-0.52 0.68-0.786 1.567-0.8 2.66 0 1.16 0.254 2.093 0.76 2.8 0.52 0.693 1.267 1.04 2.24 1.04zm9.426-6.84c0.48-0.213 0.92-0.373 1.32-0.48 0.413-0.12 0.906-0.18 1.48-0.18 0.733 0 1.266 0.207 1.6 0.62 0.346 0.413 0.52 0.98 0.52 1.7v0.54h-2.5c-1.054 0-1.9 0.26-2.54 0.78s-0.96 1.247-0.96 2.18c0 0.893 0.28 1.62 0.84 2.18 0.573 0.56 1.4 0.84 2.48 0.84 0.506 0 1.026-0.12 1.56-0.36 0.533-0.253 0.98-0.547 1.34-0.88l0.2 0.98h1.18v-6.7c0-0.627-0.16-1.187-0.48-1.68s-0.767-0.88-1.34-1.16c-0.574-0.28-1.227-0.42-1.96-0.42-0.44 0-1 0.08-1.68 0.24-0.667 0.16-1.174 0.36-1.52 0.6zm0.38 5.16c0-0.533 0.173-0.98 0.52-1.34 0.36-0.373 0.853-0.56 1.48-0.56h2.56v2.2c-0.36 0.427-0.78 0.773-1.26 1.04-0.467 0.267-0.96 0.4-1.48 0.4-0.6 0-1.054-0.173-1.36-0.52-0.307-0.347-0.46-0.753-0.46-1.22zm12.625-6.78v-2.92l-1.58 0.44v2.48h-1.42l0.02 1.2h1.4v5.82c0 0.907 0.24 1.607 0.72 2.1 0.494 0.48 1.16 0.72 2 0.72 0.507 0 1-0.113 1.48-0.34l-0.36-1.24c-0.333 0.133-0.626 0.2-0.88 0.2-0.466 0-0.813-0.147-1.04-0.44-0.226-0.293-0.34-0.7-0.34-1.22v-5.6h2.28l-0.52-1.2zm7.167 1.62c0.48-0.213 0.92-0.373 1.32-0.48 0.413-0.12 0.906-0.18 1.48-0.18 0.733 0 1.266 0.207 1.6 0.62 0.346 0.413 0.52 0.98 0.52 1.7v0.54h-2.5c-1.054 0-1.9 0.26-2.54 0.78s-0.96 1.247-0.96 2.18c0 0.893 0.28 1.62 0.84 2.18 0.573 0.56 1.4 0.84 2.48 0.84 0.506 0 1.026-0.12 1.56-0.36 0.533-0.253 0.98-0.547 1.34-0.88l0.2 0.98h1.18v-6.7c0-0.627-0.16-1.187-0.48-1.68s-0.767-0.88-1.34-1.16c-0.574-0.28-1.227-0.42-1.96-0.42-0.44 0-1 0.08-1.68 0.24-0.667 0.16-1.174 0.36-1.52 0.6zm0.38 5.16c0-0.533 0.173-0.98 0.52-1.34 0.36-0.373 0.853-0.56 1.48-0.56h2.56v2.2c-0.36 0.427-0.78 0.773-1.26 1.04-0.467 0.267-0.96 0.4-1.48 0.4-0.6 0-1.054-0.173-1.36-0.52-0.307-0.347-0.46-0.753-0.46-1.22zm19.293-6.78v-2.92l-1.58 0.44v2.48h-1.42l0.02 1.2h1.4v5.82c0 0.907 0.24 1.607 0.72 2.1 0.494 0.48 1.16 0.72 2 0.72 0.507 0 1-0.113 1.48-0.34l-0.36-1.24c-0.333 0.133-0.626 0.2-0.88 0.2-0.466 0-0.813-0.147-1.04-0.44-0.226-0.293-0.34-0.7-0.34-1.22v-5.6h2.28l-0.52-1.2zm15.166 4.72c0 0.987-0.2 1.867-0.6 2.64-0.386 0.76-0.946 1.36-1.68 1.8-0.733 0.427-1.586 0.64-2.56 0.64-0.933 0-1.746-0.213-2.44-0.64-0.693-0.44-1.226-1.047-1.6-1.82-0.36-0.787-0.54-1.68-0.54-2.68 0.014-0.987 0.207-1.86 0.58-2.62 0.387-0.773 0.94-1.373 1.66-1.8 0.72-0.44 1.56-0.66 2.52-0.66 1.454 0 2.594 0.467 3.42 1.4 0.827 0.92 1.24 2.167 1.24 3.74zm-4.76 3.74c0.96 0 1.72-0.347 2.28-1.04 0.56-0.707 0.847-1.6 0.86-2.68 0-1.147-0.266-2.067-0.8-2.76-0.533-0.707-1.286-1.06-2.26-1.06-0.96 0-1.72 0.353-2.28 1.06-0.56 0.693-0.846 1.58-0.86 2.66 0 1.133 0.267 2.053 0.8 2.76 0.534 0.707 1.287 1.06 2.26 1.06zm14.831 0.52c0.36 0.253 0.853 0.453 1.48 0.6s1.167 0.22 1.62 0.22c1.253 0 2.213-0.247 2.88-0.74 0.68-0.493 1.02-1.187 1.02-2.08 0-1.253-1.087-2.28-3.26-3.08-0.72-0.24-1.273-0.487-1.66-0.74s-0.587-0.553-0.6-0.9c0-0.413 0.187-0.747 0.56-1 0.387-0.267 0.88-0.4 1.48-0.4 0.493 0 0.933 0.06 1.32 0.18s0.8 0.28 1.24 0.48l0.5-1.08c-0.347-0.253-0.827-0.46-1.44-0.62-0.6-0.16-1.127-0.24-1.58-0.24-1.12 0-2.007 0.247-2.66 0.74-0.64 0.48-0.96 1.147-0.96 2 0 0.707 0.293 1.287 0.88 1.74s1.347 0.833 2.28 1.14c1.6 0.533 2.4 1.16 2.4 1.88 0 0.453-0.213 0.807-0.64 1.06s-1.007 0.38-1.74 0.38c-0.84 0-1.713-0.227-2.62-0.68zm18.959-4.04c0-1.6-0.34-2.893-1.02-3.88-0.667-0.987-1.707-1.48-3.12-1.48-0.934 0-1.747 0.22-2.44 0.66-0.68 0.427-1.2 1.027-1.56 1.8-0.347 0.76-0.52 1.633-0.52 2.62 0 1.56 0.433 2.807 1.3 3.74 0.866 0.933 2.126 1.4 3.78 1.4 0.666 0 1.273-0.087 1.82-0.26 0.546-0.187 1.093-0.433 1.64-0.74l-0.5-1.16c-0.6 0.293-1.12 0.507-1.56 0.64-0.427 0.133-0.9 0.2-1.42 0.2-1.147 0-2-0.313-2.56-0.94-0.547-0.64-0.84-1.507-0.88-2.6zm-7-1.08c0.093-0.907 0.373-1.62 0.84-2.14 0.48-0.533 1.133-0.8 1.96-0.8 1.533 0 2.413 0.98 2.64 2.94zm12.98-3.86v-2.92l-1.58 0.44v2.48h-1.42l0.02 1.2h1.4v5.82c0 0.907 0.24 1.607 0.72 2.1 0.493 0.48 1.16 0.72 2 0.72 0.507 0 1-0.113 1.48-0.34l-0.36-1.24c-0.333 0.133-0.627 0.2-0.88 0.2-0.467 0-0.813-0.147-1.04-0.44s-0.34-0.7-0.34-1.22v-5.6h2.28l-0.52-1.2zm-295.33 39.7c-0.4667 0.507-1.0067 0.927-1.62 1.26-0.6 0.333-1.14 0.5-1.62 0.5-0.6267 0-1.0733-0.2-1.34-0.6s-0.4-0.96-0.4-1.68v-6.34h-1.58v6.56c0 1.04 0.2467 1.873 0.74 2.5 0.5067 0.613 1.2733 0.92 2.3 0.92 0.6133 0 1.26-0.16 1.94-0.48s1.2533-0.72 1.72-1.2l0.26 1.4h1.18v-9.72h-1.58zm10.066-7.12c1.44 0 2.5667 0.473 3.38 1.42 0.8267 0.933 1.24 2.173 1.24 3.72 0 0.987-0.1933 1.867-0.58 2.64-0.3733 0.76-0.9133 1.36-1.62 1.8-0.6933 0.427-1.5133 0.64-2.46 0.64-0.7066 0-1.4466-0.247-2.22-0.74v4.64l-1.58 0.22v-14.08h0.94l0.34 0.68c0.4-0.293 0.8267-0.52 1.28-0.68 0.4534-0.173 0.88-0.26 1.28-0.26zm0 8.88c0.96 0 1.7-0.347 2.22-1.04s0.7867-1.587 0.8-2.68c0-1.147-0.26-2.067-0.78-2.76-0.5066-0.707-1.2466-1.06-2.22-1.06-0.48 0-0.9 0.073-1.26 0.22s-0.7 0.373-1.02 0.68v5.78c0.32 0.28 0.66 0.493 1.02 0.64s0.7734 0.22 1.24 0.22zm17.156 2.68c-0.1466 0.4-0.3733 0.7-0.68 0.9-0.2933 0.213-0.7533 0.467-1.38 0.76l0.48 1.14c0.7067-0.147 1.3267-0.433 1.86-0.86 0.5467-0.427 0.9334-0.94 1.16-1.54l4.28-11.7h-1.6l-2.78 7.5-2.94-7.8-1.4 0.6 3.6 9.34zm18.001-6.42c0 0.987-0.2 1.867-0.6 2.64-0.3867 0.76-0.9467 1.36-1.68 1.8-0.7333 0.427-1.5867 0.64-2.56 0.64-0.9333 0-1.7467-0.213-2.44-0.64-0.6933-0.44-1.2267-1.047-1.6-1.82-0.36-0.787-0.54-1.68-0.54-2.68 0.0133-0.987 0.2067-1.86 0.58-2.62 0.3867-0.773 0.94-1.373 1.66-1.8 0.72-0.44 1.56-0.66 2.52-0.66 1.4533 0 2.5933 0.467 3.42 1.4 0.8267 0.92 1.24 2.167 1.24 3.74zm-4.76 3.74c0.96 0 1.72-0.347 2.28-1.04 0.56-0.707 0.8467-1.6 0.86-2.68 0-1.147-0.2667-2.067-0.8-2.76-0.5333-0.707-1.2867-1.06-2.26-1.06-0.96 0-1.72 0.353-2.28 1.06-0.56 0.693-0.8467 1.58-0.86 2.66 0 1.133 0.2667 2.053 0.8 2.76s1.2867 1.06 2.26 1.06zm15.143-1.76c-0.4667 0.507-1.0067 0.927-1.62 1.26-0.6 0.333-1.14 0.5-1.62 0.5-0.6267 0-1.0734-0.2-1.34-0.6-0.2667-0.4-0.4-0.96-0.4-1.68v-6.34h-1.58v6.56c0 1.04 0.2466 1.873 0.74 2.5 0.5066 0.613 1.2733 0.92 2.3 0.92 0.6133 0 1.26-0.16 1.94-0.48s1.2533-0.72 1.72-1.2l0.26 1.4h1.18v-9.72h-1.58zm7.6855-3.84c0.454-0.467 1.007-0.873 1.66-1.22 0.654-0.36 1.247-0.54 1.78-0.54l-0.38-1.26c-0.466 0-1.006 0.167-1.62 0.5-0.613 0.333-1.14 0.687-1.58 1.06l-0.5-1.56h-0.94v9.7h1.58zm17.533-3.28c1.44 0 2.566 0.473 3.38 1.42 0.826 0.933 1.24 2.173 1.24 3.72 0 0.987-0.194 1.867-0.58 2.64-0.374 0.76-0.914 1.36-1.62 1.8-0.694 0.427-1.514 0.64-2.46 0.64-0.707 0-1.447-0.247-2.22-0.74v4.64l-1.58 0.22v-14.08h0.94l0.34 0.68c0.4-0.293 0.826-0.52 1.28-0.68 0.453-0.173 0.88-0.26 1.28-0.26zm0 8.88c0.96 0 1.7-0.347 2.22-1.04s0.786-1.587 0.8-2.68c0-1.147-0.26-2.067-0.78-2.76-0.507-0.707-1.247-1.06-2.22-1.06-0.48 0-0.9 0.073-1.26 0.22s-0.7 0.373-1.02 0.68v5.78c0.32 0.28 0.66 0.493 1.02 0.64s0.773 0.22 1.24 0.22zm10.128-5.6c0.453-0.467 1.006-0.873 1.66-1.22 0.653-0.36 1.246-0.54 1.78-0.54l-0.38-1.26c-0.467 0-1.007 0.167-1.62 0.5-0.614 0.333-1.14 0.687-1.58 1.06l-0.5-1.56h-0.94v9.7h1.58zm15.724 1.86c0 0.987-0.2 1.867-0.6 2.64-0.387 0.76-0.947 1.36-1.68 1.8-0.733 0.427-1.587 0.64-2.56 0.64-0.933 0-1.747-0.213-2.44-0.64-0.693-0.44-1.227-1.047-1.6-1.82-0.36-0.787-0.54-1.68-0.54-2.68 0.013-0.987 0.207-1.86 0.58-2.62 0.387-0.773 0.94-1.373 1.66-1.8 0.72-0.44 1.56-0.66 2.52-0.66 1.453 0 2.593 0.467 3.42 1.4 0.827 0.92 1.24 2.167 1.24 3.74zm-4.76 3.74c0.96 0 1.72-0.347 2.28-1.04 0.56-0.707 0.847-1.6 0.86-2.68 0-1.147-0.267-2.067-0.8-2.76-0.533-0.707-1.287-1.06-2.26-1.06-0.96 0-1.72 0.353-2.28 1.06-0.56 0.693-0.847 1.58-0.86 2.66 0 1.133 0.267 2.053 0.8 2.76s1.287 1.06 2.26 1.06zm9.203-7.26v8.34h1.58v-8.34h2.3l-0.52-1.2h-1.78v-1.42c0-1.107 0.453-1.66 1.36-1.66 0.133 0 0.286 0.02 0.46 0.06 0.173 0.04 0.313 0.087 0.42 0.14l0.36-1.28c-0.174-0.093-0.394-0.173-0.66-0.24-0.267-0.067-0.534-0.1-0.8-0.1-0.84 0-1.507 0.273-2 0.82-0.48 0.533-0.72 1.253-0.72 2.16v1.52h-1.48l0.02 1.2zm8.216-3.3c0.293 0 0.547-0.1 0.76-0.3 0.213-0.213 0.32-0.467 0.32-0.76s-0.107-0.547-0.32-0.76-0.467-0.32-0.76-0.32c-0.307 0-0.56 0.107-0.76 0.32-0.2 0.2-0.3 0.453-0.3 0.76s0.1 0.56 0.3 0.76 0.453 0.3 0.76 0.3zm0.82 11.64v-9.7h-1.6v9.7zm6.282 0v-14.12l-1.58 0.2v13.92zm12.752-4.6c0-1.6-0.34-2.893-1.02-3.88-0.666-0.987-1.706-1.48-3.12-1.48-0.933 0-1.746 0.22-2.44 0.66-0.68 0.427-1.2 1.027-1.56 1.8-0.346 0.76-0.52 1.633-0.52 2.62 0 1.56 0.434 2.807 1.3 3.74 0.867 0.933 2.127 1.4 3.78 1.4 0.667 0 1.274-0.087 1.82-0.26 0.547-0.187 1.094-0.433 1.64-0.74l-0.5-1.16c-0.6 0.293-1.12 0.507-1.56 0.64-0.426 0.133-0.9 0.2-1.42 0.2-1.146 0-2-0.313-2.56-0.94-0.546-0.64-0.84-1.507-0.88-2.6zm-7-1.08c0.094-0.907 0.374-1.62 0.84-2.14 0.48-0.533 1.134-0.8 1.96-0.8 1.534 0 2.414 0.98 2.64 2.94zm11.361 5.68c0.293 0 0.54-0.107 0.74-0.32 0.213-0.213 0.32-0.467 0.32-0.76s-0.107-0.54-0.32-0.74c-0.2-0.213-0.447-0.32-0.74-0.32-0.307 0-0.567 0.107-0.78 0.32-0.213 0.2-0.32 0.447-0.32 0.74 0 0.307 0.107 0.567 0.32 0.78 0.213 0.2 0.473 0.3 0.78 0.3zm15.567-13.6-5.04 13.6h1.54l1.42-3.86h5.74l1.52 4 1.56-0.26-5.22-13.48zm3.2 8.46h-4.84l2.38-6.38zm8.788 5.14v-14.12l-1.58 0.2v13.92zm6.472 0v-14.12l-1.58 0.2v13.92zm20.181-4.82c0 0.987-0.2 1.867-0.6 2.64-0.387 0.76-0.947 1.36-1.68 1.8-0.733 0.427-1.587 0.64-2.56 0.64-0.933 0-1.747-0.213-2.44-0.64-0.693-0.44-1.227-1.047-1.6-1.82-0.36-0.787-0.54-1.68-0.54-2.68 0.013-0.987 0.207-1.86 0.58-2.62 0.387-0.773 0.94-1.373 1.66-1.8 0.72-0.44 1.56-0.66 2.52-0.66 1.453 0 2.593 0.467 3.42 1.4 0.827 0.92 1.24 2.167 1.24 3.74zm-4.76 3.74c0.96 0 1.72-0.347 2.28-1.04 0.56-0.707 0.847-1.6 0.86-2.68 0-1.147-0.267-2.067-0.8-2.76-0.533-0.707-1.287-1.06-2.26-1.06-0.96 0-1.72 0.353-2.28 1.06-0.56 0.693-0.847 1.58-0.86 2.66 0 1.133 0.267 2.053 0.8 2.76s1.287 1.06 2.26 1.06zm9.203-7.26v8.34h1.58v-8.34h2.3l-0.52-1.2h-1.78v-1.42c0-1.107 0.453-1.66 1.36-1.66 0.133 0 0.286 0.02 0.46 0.06 0.173 0.04 0.313 0.087 0.42 0.14l0.36-1.28c-0.174-0.093-0.394-0.173-0.66-0.24-0.267-0.067-0.534-0.1-0.8-0.1-0.84 0-1.507 0.273-2 0.82-0.48 0.533-0.72 1.253-0.72 2.16v1.52h-1.48l0.02 1.2zm16.044 9.94c-0.147 0.4-0.373 0.7-0.68 0.9-0.293 0.213-0.753 0.467-1.38 0.76l0.48 1.14c0.707-0.147 1.327-0.433 1.86-0.86 0.547-0.427 0.933-0.94 1.16-1.54l4.28-11.7h-1.6l-2.78 7.5-2.94-7.8-1.4 0.6 3.6 9.34zm18.001-6.42c0 0.987-0.2 1.867-0.6 2.64-0.386 0.76-0.946 1.36-1.68 1.8-0.733 0.427-1.586 0.64-2.56 0.64-0.933 0-1.746-0.213-2.44-0.64-0.693-0.44-1.226-1.047-1.6-1.82-0.36-0.787-0.54-1.68-0.54-2.68 0.014-0.987 0.207-1.86 0.58-2.62 0.387-0.773 0.94-1.373 1.66-1.8 0.72-0.44 1.56-0.66 2.52-0.66 1.454 0 2.594 0.467 3.42 1.4 0.827 0.92 1.24 2.167 1.24 3.74zm-4.76 3.74c0.96 0 1.72-0.347 2.28-1.04 0.56-0.707 0.847-1.6 0.86-2.68 0-1.147-0.266-2.067-0.8-2.76-0.533-0.707-1.286-1.06-2.26-1.06-0.96 0-1.72 0.353-2.28 1.06-0.56 0.693-0.846 1.58-0.86 2.66 0 1.133 0.267 2.053 0.8 2.76 0.534 0.707 1.287 1.06 2.26 1.06zm15.143-1.76c-0.467 0.507-1.007 0.927-1.62 1.26-0.6 0.333-1.14 0.5-1.62 0.5-0.627 0-1.073-0.2-1.34-0.6s-0.4-0.96-0.4-1.68v-6.34h-1.58v6.56c0 1.04 0.247 1.873 0.74 2.5 0.507 0.613 1.273 0.92 2.3 0.92 0.613 0 1.26-0.16 1.94-0.48s1.253-0.72 1.72-1.2l0.26 1.4h1.18v-9.72h-1.58zm7.686-3.84c0.453-0.467 1.007-0.873 1.66-1.22 0.653-0.36 1.247-0.54 1.78-0.54l-0.38-1.26c-0.467 0-1.007 0.167-1.62 0.5s-1.14 0.687-1.58 1.06l-0.5-1.56h-0.94v9.7h1.58zm-260.02 28.04c0.2933 0 0.5467-0.1 0.76-0.3 0.2133-0.213 0.32-0.467 0.32-0.76s-0.1067-0.547-0.32-0.76-0.4667-0.32-0.76-0.32c-0.3067 0-0.56 0.107-0.76 0.32-0.2 0.2-0.3 0.453-0.3 0.76s0.1 0.56 0.3 0.76 0.4533 0.3 0.76 0.3zm0.82 11.64v-9.7h-1.6v9.7zm6.0816-6.88c0.4666-0.507 1-0.927 1.6-1.26 0.6133-0.333 1.16-0.5 1.64-0.5 0.6266 0 1.0733 0.2 1.34 0.6 0.2666 0.4 0.4 0.96 0.4 1.68v6.34h1.58v-6.56c0-1.04-0.2534-1.867-0.76-2.48-0.4934-0.627-1.2534-0.94-2.28-0.94-0.6134 0-1.26 0.16-1.94 0.48s-1.2534 0.72-1.72 1.2l-0.26-1.38h-1.18v9.7h1.58zm11.546-1.46v8.34h1.58v-8.34h2.3l-0.52-1.2h-1.78v-1.42c0-1.107 0.4533-1.66 1.36-1.66 0.1333 0 0.2867 0.02 0.46 0.06s0.3133 0.087 0.42 0.14l0.36-1.28c-0.1733-0.093-0.3933-0.173-0.66-0.24s-0.5333-0.1-0.8-0.1c-0.84 0-1.5067 0.273-2 0.82-0.48 0.533-0.72 1.253-0.72 2.16v1.52h-1.48l0.02 1.2zm16.257 3.52c0 0.987-0.2 1.867-0.6 2.64-0.3867 0.76-0.9467 1.36-1.68 1.8-0.7334 0.427-1.5867 0.64-2.56 0.64-0.9334 0-1.7467-0.213-2.44-0.64-0.6934-0.44-1.2267-1.047-1.6-1.82-0.36-0.787-0.54-1.68-0.54-2.68 0.0133-0.987 0.2066-1.86 0.58-2.62 0.3866-0.773 0.94-1.373 1.66-1.8 0.72-0.44 1.56-0.66 2.52-0.66 1.4533 0 2.5933 0.467 3.42 1.4 0.8266 0.92 1.24 2.167 1.24 3.74zm-4.76 3.74c0.96 0 1.72-0.347 2.28-1.04 0.56-0.707 0.8466-1.6 0.86-2.68 0-1.147-0.2667-2.067-0.8-2.76-0.5334-0.707-1.2867-1.06-2.26-1.06-0.96 0-1.72 0.353-2.28 1.06-0.56 0.693-0.8467 1.58-0.86 2.66 0 1.133 0.2666 2.053 0.8 2.76 0.5333 0.707 1.2866 1.06 2.26 1.06zm10.243-5.6c0.4534-0.467 1.0067-0.873 1.66-1.22 0.6534-0.36 1.2467-0.54 1.78-0.54l-0.38-1.26c-0.4666 0-1.0066 0.167-1.62 0.5-0.6133 0.333-1.14 0.687-1.58 1.06l-0.5-1.56h-0.94v9.7h1.58zm17.924-3.32c0.9867 0 1.72 0.313 2.2 0.94 0.48 0.613 0.72 1.44 0.72 2.48v6.56h-1.58v-6.34c0-0.72-0.12-1.28-0.36-1.68s-0.6533-0.6-1.24-0.6c-0.4133 0-0.8933 0.153-1.44 0.46-0.5333 0.293-1.0333 0.673-1.5 1.14 0.0133 0.093 0.02 0.247 0.02 0.46v6.56h-1.58v-6.34c0-0.72-0.12-1.28-0.36-1.68s-0.6533-0.6-1.24-0.6c-0.4267 0-0.9333 0.167-1.52 0.5-0.5733 0.333-1.0933 0.753-1.56 1.26v6.88h-1.58v-9.7h1.18l0.26 1.38c0.4667-0.48 1.02-0.88 1.66-1.2 0.6533-0.32 1.2667-0.48 1.84-0.48 0.6533 0 1.1933 0.147 1.62 0.44 0.44 0.293 0.7667 0.707 0.98 1.24 0.4667-0.48 1.02-0.88 1.66-1.2s1.2467-0.48 1.82-0.48zm8.1669 2.08c0.48-0.213 0.92-0.373 1.32-0.48 0.414-0.12 0.907-0.18 1.48-0.18 0.734 0 1.267 0.207 1.6 0.62 0.347 0.413 0.52 0.98 0.52 1.7v0.54h-2.5c-1.053 0-1.9 0.26-2.54 0.78-0.6397 0.52-0.9597 1.247-0.9597 2.18 0 0.893 0.28 1.62 0.8397 2.18 0.574 0.56 1.4 0.84 2.48 0.84 0.507 0 1.027-0.12 1.56-0.36 0.534-0.253 0.98-0.547 1.34-0.88l0.2 0.98h1.18v-6.7c0-0.627-0.16-1.187-0.48-1.68s-0.766-0.88-1.34-1.16c-0.573-0.28-1.226-0.42-1.96-0.42-0.44 0-1 0.08-1.68 0.24-0.666 0.16-1.173 0.36-1.5197 0.6zm0.38 5.16c0-0.533 0.174-0.98 0.52-1.34 0.36-0.373 0.854-0.56 1.48-0.56h2.56v2.2c-0.36 0.427-0.78 0.773-1.26 1.04-0.466 0.267-0.96 0.4-1.48 0.4-0.6 0-1.053-0.173-1.36-0.52-0.306-0.347-0.46-0.753-0.46-1.22zm12.626-6.78v-2.92l-1.58 0.44v2.48h-1.42l0.02 1.2h1.4v5.82c0 0.907 0.24 1.607 0.72 2.1 0.493 0.48 1.16 0.72 2 0.72 0.507 0 1-0.113 1.48-0.34l-0.36-1.24c-0.333 0.133-0.627 0.2-0.88 0.2-0.467 0-0.813-0.147-1.04-0.44s-0.34-0.7-0.34-1.22v-5.6h2.28l-0.52-1.2zm7.126-2.1c0.293 0 0.547-0.1 0.76-0.3 0.213-0.213 0.32-0.467 0.32-0.76s-0.107-0.547-0.32-0.76-0.467-0.32-0.76-0.32c-0.307 0-0.56 0.107-0.76 0.32-0.2 0.2-0.3 0.453-0.3 0.76s0.1 0.56 0.3 0.76 0.453 0.3 0.76 0.3zm0.82 11.64v-9.7h-1.6v9.7zm13.322-4.82c0 0.987-0.2 1.867-0.6 2.64-0.387 0.76-0.947 1.36-1.68 1.8-0.734 0.427-1.587 0.64-2.56 0.64-0.934 0-1.747-0.213-2.44-0.64-0.694-0.44-1.227-1.047-1.6-1.82-0.36-0.787-0.54-1.68-0.54-2.68 0.013-0.987 0.206-1.86 0.58-2.62 0.386-0.773 0.94-1.373 1.66-1.8 0.72-0.44 1.56-0.66 2.52-0.66 1.453 0 2.593 0.467 3.42 1.4 0.826 0.92 1.24 2.167 1.24 3.74zm-4.76 3.74c0.96 0 1.72-0.347 2.28-1.04 0.56-0.707 0.846-1.6 0.86-2.68 0-1.147-0.267-2.067-0.8-2.76-0.534-0.707-1.287-1.06-2.26-1.06-0.96 0-1.72 0.353-2.28 1.06-0.56 0.693-0.847 1.58-0.86 2.66 0 1.133 0.266 2.053 0.8 2.76 0.533 0.707 1.286 1.06 2.26 1.06zm10.242-5.8c0.467-0.507 1-0.927 1.6-1.26 0.614-0.333 1.16-0.5 1.64-0.5 0.627 0 1.074 0.2 1.34 0.6 0.267 0.4 0.4 0.96 0.4 1.68v6.34h1.58v-6.56c0-1.04-0.253-1.867-0.76-2.48-0.493-0.627-1.253-0.94-2.28-0.94-0.613 0-1.26 0.16-1.94 0.48s-1.253 0.72-1.72 1.2l-0.26-1.38h-1.18v9.7h1.58zm26.794 6.88 2.86-9.7h-1.6l-2.04 7.44-2.16-7.44h-1.6l-2.04 7.44-2.16-7.74-1.44 0.6 2.82 9.4h1.54l2.06-7.38 2.2 7.38zm7.098-11.64c0.293 0 0.546-0.1 0.76-0.3 0.213-0.213 0.32-0.467 0.32-0.76s-0.107-0.547-0.32-0.76c-0.214-0.213-0.467-0.32-0.76-0.32-0.307 0-0.56 0.107-0.76 0.32-0.2 0.2-0.3 0.453-0.3 0.76s0.1 0.56 0.3 0.76 0.453 0.3 0.76 0.3zm0.82 11.64v-9.7h-1.6v9.7zm6.281 0v-14.12l-1.58 0.2v13.92zm6.473 0v-14.12l-1.58 0.2v13.92zm10.861-0.56c0.36 0.253 0.853 0.453 1.48 0.6 0.626 0.147 1.166 0.22 1.62 0.22 1.253 0 2.213-0.247 2.88-0.74 0.68-0.493 1.02-1.187 1.02-2.08 0-1.253-1.087-2.28-3.26-3.08-0.72-0.24-1.274-0.487-1.66-0.74-0.387-0.253-0.587-0.553-0.6-0.9 0-0.413 0.186-0.747 0.56-1 0.386-0.267 0.88-0.4 1.48-0.4 0.493 0 0.933 0.06 1.32 0.18 0.386 0.12 0.8 0.28 1.24 0.48l0.5-1.08c-0.347-0.253-0.827-0.46-1.44-0.62-0.6-0.16-1.127-0.24-1.58-0.24-1.12 0-2.007 0.247-2.66 0.74-0.64 0.48-0.96 1.147-0.96 2 0 0.707 0.293 1.287 0.88 1.74 0.586 0.453 1.346 0.833 2.28 1.14 1.6 0.533 2.4 1.16 2.4 1.88 0 0.453-0.214 0.807-0.64 1.06-0.427 0.253-1.007 0.38-1.74 0.38-0.84 0-1.714-0.227-2.62-0.68zm12.958-8.98v-2.92l-1.58 0.44v2.48h-1.42l0.02 1.2h1.4v5.82c0 0.907 0.24 1.607 0.72 2.1 0.493 0.48 1.16 0.72 2 0.72 0.507 0 1-0.113 1.48-0.34l-0.36-1.24c-0.333 0.133-0.627 0.2-0.88 0.2-0.467 0-0.813-0.147-1.04-0.44s-0.34-0.7-0.34-1.22v-5.6h2.28l-0.52-1.2zm7.166 1.62c0.48-0.213 0.92-0.373 1.32-0.48 0.414-0.12 0.907-0.18 1.48-0.18 0.734 0 1.267 0.207 1.6 0.62 0.347 0.413 0.52 0.98 0.52 1.7v0.54h-2.5c-1.053 0-1.9 0.26-2.54 0.78s-0.96 1.247-0.96 2.18c0 0.893 0.28 1.62 0.84 2.18 0.574 0.56 1.4 0.84 2.48 0.84 0.507 0 1.027-0.12 1.56-0.36 0.534-0.253 0.98-0.547 1.34-0.88l0.2 0.98h1.18v-6.7c0-0.627-0.16-1.187-0.48-1.68s-0.766-0.88-1.34-1.16c-0.573-0.28-1.226-0.42-1.96-0.42-0.44 0-1 0.08-1.68 0.24-0.666 0.16-1.173 0.36-1.52 0.6zm0.38 5.16c0-0.533 0.174-0.98 0.52-1.34 0.36-0.373 0.854-0.56 1.48-0.56h2.56v2.2c-0.36 0.427-0.78 0.773-1.26 1.04-0.466 0.267-0.96 0.4-1.48 0.4-0.6 0-1.053-0.173-1.36-0.52-0.306-0.347-0.46-0.753-0.46-1.22zm12.506 4.36c-0.147 0.4-0.373 0.7-0.68 0.9-0.293 0.213-0.753 0.467-1.38 0.76l0.48 1.14c0.707-0.147 1.327-0.433 1.86-0.86 0.547-0.427 0.933-0.94 1.16-1.54l4.28-11.7h-1.6l-2.78 7.5-2.94-7.8-1.4 0.6 3.6 9.34zm19.809-11.56c1.44 0 2.567 0.473 3.38 1.42 0.827 0.933 1.24 2.173 1.24 3.72 0 0.987-0.193 1.867-0.58 2.64-0.373 0.76-0.913 1.36-1.62 1.8-0.693 0.427-1.513 0.64-2.46 0.64-0.707 0-1.447-0.247-2.22-0.74v4.64l-1.58 0.22v-14.08h0.94l0.34 0.68c0.4-0.293 0.827-0.52 1.28-0.68 0.453-0.173 0.88-0.26 1.28-0.26zm0 8.88c0.96 0 1.7-0.347 2.22-1.04s0.787-1.587 0.8-2.68c0-1.147-0.26-2.067-0.78-2.76-0.507-0.707-1.247-1.06-2.22-1.06-0.48 0-0.9 0.073-1.26 0.22s-0.7 0.373-1.02 0.68v5.78c0.32 0.28 0.66 0.493 1.02 0.64s0.773 0.22 1.24 0.22zm10.128-5.6c0.453-0.467 1.006-0.873 1.66-1.22 0.653-0.36 1.246-0.54 1.78-0.54l-0.38-1.26c-0.467 0-1.007 0.167-1.62 0.5-0.614 0.333-1.14 0.687-1.58 1.06l-0.5-1.56h-0.94v9.7h1.58zm7.684-4.96c0.294 0 0.547-0.1 0.76-0.3 0.214-0.213 0.32-0.467 0.32-0.76s-0.106-0.547-0.32-0.76c-0.213-0.213-0.466-0.32-0.76-0.32-0.306 0-0.56 0.107-0.76 0.32-0.2 0.2-0.3 0.453-0.3 0.76s0.1 0.56 0.3 0.76 0.454 0.3 0.76 0.3zm0.82 11.64v-9.7h-1.6v9.7zm8.542 0 3.62-9.7h-1.6l-2.78 7.56-2.9-7.88-1.44 0.6 3.56 9.42zm7.901-7.92c0.48-0.213 0.92-0.373 1.32-0.48 0.413-0.12 0.907-0.18 1.48-0.18 0.733 0 1.267 0.207 1.6 0.62 0.347 0.413 0.52 0.98 0.52 1.7v0.54h-2.5c-1.053 0-1.9 0.26-2.54 0.78s-0.96 1.247-0.96 2.18c0 0.893 0.28 1.62 0.84 2.18 0.573 0.56 1.4 0.84 2.48 0.84 0.507 0 1.027-0.12 1.56-0.36 0.533-0.253 0.98-0.547 1.34-0.88l0.2 0.98h1.18v-6.7c0-0.627-0.16-1.187-0.48-1.68s-0.767-0.88-1.34-1.16-1.227-0.42-1.96-0.42c-0.44 0-1 0.08-1.68 0.24-0.667 0.16-1.173 0.36-1.52 0.6zm0.38 5.16c0-0.533 0.173-0.98 0.52-1.34 0.36-0.373 0.853-0.56 1.48-0.56h2.56v2.2c-0.36 0.427-0.78 0.773-1.26 1.04-0.467 0.267-0.96 0.4-1.48 0.4-0.6 0-1.053-0.173-1.36-0.52s-0.46-0.753-0.46-1.22zm12.625-6.78v-2.92l-1.58 0.44v2.48h-1.42l0.02 1.2h1.4v5.82c0 0.907 0.24 1.607 0.72 2.1 0.494 0.48 1.16 0.72 2 0.72 0.507 0 1-0.113 1.48-0.34l-0.36-1.24c-0.333 0.133-0.626 0.2-0.88 0.2-0.466 0-0.813-0.147-1.04-0.44-0.226-0.293-0.34-0.7-0.34-1.22v-5.6h2.28l-0.52-1.2zm14.407 4.94c0-1.6-0.34-2.893-1.02-3.88-0.667-0.987-1.707-1.48-3.12-1.48-0.934 0-1.747 0.22-2.44 0.66-0.68 0.427-1.2 1.027-1.56 1.8-0.347 0.76-0.52 1.633-0.52 2.62 0 1.56 0.433 2.807 1.3 3.74 0.866 0.933 2.126 1.4 3.78 1.4 0.666 0 1.273-0.087 1.82-0.26 0.546-0.187 1.093-0.433 1.64-0.74l-0.5-1.16c-0.6 0.293-1.12 0.507-1.56 0.64-0.427 0.133-0.9 0.2-1.42 0.2-1.147 0-2-0.313-2.56-0.94-0.547-0.64-0.84-1.507-0.88-2.6zm-7-1.08c0.093-0.907 0.373-1.62 0.84-2.14 0.48-0.533 1.133-0.8 1.96-0.8 1.533 0 2.413 0.98 2.64 2.94zm11.36 5.68c0.294 0 0.54-0.107 0.74-0.32 0.214-0.213 0.32-0.467 0.32-0.76s-0.106-0.54-0.32-0.74c-0.2-0.213-0.446-0.32-0.74-0.32-0.306 0-0.566 0.107-0.78 0.32-0.213 0.2-0.32 0.447-0.32 0.74 0 0.307 0.107 0.567 0.32 0.78 0.214 0.2 0.474 0.3 0.78 0.3z" fill="#e6e6e6"/>
 <path d="m274.51 224.71-17.709-8.855v-21.796l17.709 8.855z" fill="#e664b9"/>
 <path d="m274.51 224.71 17.709-8.855v-21.796l-17.709 8.855z" fill="#e05cb3"/>
 <path d="m256.8 194.06 17.028-8.855 18.39 8.855-17.709 8.854z" fill="#e67bc2"/>
 <path d="m192.1 251.84-30.584 1.836-16.863-29.209 30.583-1.836z" fill="#015de2"/>
 <path d="m192.1 251.84 16.881-25.568-16.864-29.21-16.881 25.569z" fill="#1575ff"/>
 <path d="m144.65 224.47 15.969-25.042 31.496-2.362-16.882 25.568z" fill="#0168fc"/>
 <path d="m274.82 74.515-21.234 0.784-11.226-20.521 21.234-0.784z" fill="#923de2"/>
 <path d="m274.82 74.515 12.113-17.458-11.226-20.521-12.113 17.458z" fill="#9b51e0"/>
 <path d="m242.36 54.779 11.471-17.107 21.876-1.135-12.113 17.458z" fill="#b075e6"/>
</svg>
