<?xml version="1.0" encoding="UTF-8" standalone="no"?>
<svg
   xmlns:dc="http://purl.org/dc/elements/1.1/"
   xmlns:cc="http://creativecommons.org/ns#"
   xmlns:rdf="http://www.w3.org/1999/02/22-rdf-syntax-ns#"
   xmlns:svg="http://www.w3.org/2000/svg"
   xmlns="http://www.w3.org/2000/svg"
   xmlns:sodipodi="http://sodipodi.sourceforge.net/DTD/sodipodi-0.dtd"
   xmlns:inkscape="http://www.inkscape.org/namespaces/inkscape"
   viewBox="0 0 100 18"
   version="1.1"
   id="svg4550"
   sodipodi:docname="waves.svg"
   inkscape:version="0.92.4 (5da689c313, 2019-01-14)">
  <metadata
     id="metadata4556">
    <rdf:RDF>
      <cc:Work
         rdf:about="">
        <dc:format>image/svg+xml</dc:format>
        <dc:type
           rdf:resource="http://purl.org/dc/dcmitype/StillImage" />
      </cc:Work>
    </rdf:RDF>
  </metadata>
  <defs
     id="defs4554" />
  <sodipodi:namedview
     pagecolor="#ffffff"
     bordercolor="#666666"
     borderopacity="1"
     objecttolerance="10"
     gridtolerance="10"
     guidetolerance="10"
     inkscape:pageopacity="0"
     inkscape:pageshadow="2"
     inkscape:window-width="1920"
     inkscape:window-height="1051"
     id="namedview4552"
     showgrid="false"
     inkscape:zoom="3.39"
     inkscape:cx="1.4749263"
     inkscape:cy="9"
     inkscape:window-x="-9"
     inkscape:window-y="-9"
     inkscape:window-maximized="1"
     inkscape:current-layer="svg4550" />
  <path
     fill="#000000"
     d="M61.82 18c3.47-1.45 6.86-3.78 11.3-7.34C78 6.76 80.34 5.1 83.87 3.42 88.56 1.16 93.75 0 100 0v6.16C98.76 6.05 97.43 6 96 6c-9.59 0-14.23 2.23-23.13 9.34-1.28 1.03-2.39 1.9-3.4 2.66h-7.65zm-23.64 0H22.52c-1-.76-2.1-1.63-3.4-2.66C11.57 9.3 7.08 6.78 0 6.16V0c6.25 0 11.44 1.16 16.14 3.42 3.53 1.7 5.87 3.35 10.73 7.24 4.45 3.56 7.84 5.9 11.31 7.34zM61.82 0h7.66a39.57 39.57 0 0 1-7.34 4.58C57.44 6.84 52.25 8 46 8S34.56 6.84 29.86 4.58A39.57 39.57 0 0 1 22.52 0h15.66C41.65 1.44 45.21 2 50 2c4.8 0 8.35-.56 11.82-2z"
     id="path4548"
     style="opacity:0.03" />
</svg>
