<?xml version="1.0" encoding="UTF-8"?>
<svg width="294.7" height="223.52" fill="none" version="1.1" viewBox="0 0 294.7 223.52" xmlns="http://www.w3.org/2000/svg" xmlns:cc="http://creativecommons.org/ns#" xmlns:dc="http://purl.org/dc/elements/1.1/" xmlns:rdf="http://www.w3.org/1999/02/22-rdf-syntax-ns#" xmlns:xlink="http://www.w3.org/1999/xlink">
 <metadata>
  <rdf:RDF>
   <cc:Work rdf:about="">
    <dc:format>image/svg+xml</dc:format>
    <dc:type rdf:resource="http://purl.org/dc/dcmitype/StillImage"/>
    <dc:title/>
   </cc:Work>
  </rdf:RDF>
 </metadata>
 <path d="m98.362 195.8-8.04 27.2h-3.92l-5.84-20.8-5.72 20.8h-3.92l-8.12-26.92 4.48-0.64 5.68 21.44 5.44-21.08h4.44l5.6 21.08 5.44-21.08zm21.087 17.36c0-2.933-0.734-5.347-2.2-7.24-1.467-1.893-3.627-2.84-6.48-2.84-1.947 0-3.64 0.427-5.08 1.28-1.414 0.853-2.507 2.053-3.28 3.6-0.747 1.52-1.12 3.293-1.12 5.32 0 3.147 0.92 5.64 2.76 7.48 1.866 1.813 4.56 2.72 8.08 2.72 2.613 0 5-0.747 7.16-2.24l-1.36-3.28c-1.147 0.587-2.134 1.027-2.96 1.32-0.8 0.267-1.72 0.4-2.76 0.4-3.734 0-5.8-1.733-6.2-5.2h13.44zm-13.36-1.68c0.186-1.44 0.666-2.56 1.44-3.36 0.8-0.8 1.84-1.2 3.12-1.2 1.253 0 2.253 0.387 3 1.16 0.746 0.773 1.24 1.907 1.48 3.4zm23.031 11.52v-28.24l-4.48 0.44v27.8zm20.483-4.68c-0.96 0.453-1.84 0.787-2.64 1s-1.693 0.32-2.68 0.32c-1.627 0-2.933-0.587-3.92-1.76-0.96-1.173-1.44-2.707-1.44-4.6 0.027-1.84 0.533-3.36 1.52-4.56 1.013-1.2 2.32-1.8 3.92-1.8 0.933 0 1.787 0.107 2.56 0.32 0.8 0.213 1.72 0.547 2.76 1l1.28-3.2c-0.827-0.587-1.907-1.053-3.24-1.4-1.333-0.373-2.453-0.56-3.36-0.56-2.027 0-3.8 0.427-5.32 1.28s-2.693 2.053-3.52 3.6c-0.8 1.52-1.2 3.293-1.2 5.32 0 2.053 0.4 3.853 1.2 5.4 0.827 1.52 1.987 2.707 3.48 3.56s3.253 1.28 5.28 1.28c0.933 0 2.067-0.173 3.4-0.52s2.413-0.813 3.24-1.4zm24.871-5.04c0 2.027-0.413 3.813-1.24 5.36s-2 2.747-3.52 3.6-3.293 1.28-5.32 1.28-3.787-0.427-5.28-1.28-2.653-2.04-3.48-3.56c-0.8-1.547-1.2-3.347-1.2-5.4 0-2.027 0.4-3.8 1.2-5.32 0.827-1.547 2-2.747 3.52-3.6s3.293-1.28 5.32-1.28 3.787 0.427 5.28 1.28c1.52 0.827 2.68 2.013 3.48 3.56 0.827 1.547 1.24 3.333 1.24 5.36zm-10.08 6.36c1.627 0 2.933-0.6 3.92-1.8 1.013-1.2 1.52-2.707 1.52-4.52 0-1.893-0.493-3.427-1.48-4.6-0.96-1.2-2.253-1.8-3.88-1.8-1.6 0-2.907 0.6-3.92 1.8-0.987 1.2-1.493 2.72-1.52 4.56 0 1.893 0.48 3.427 1.44 4.6 0.987 1.173 2.293 1.76 3.92 1.76zm38.187-16.68c2.106 0 3.653 0.627 4.64 1.88 1.013 1.253 1.52 3.013 1.52 5.28v12.88h-4.52v-12.2c0-1.333-0.214-2.333-0.64-3-0.4-0.693-1.094-1.04-2.08-1.04-0.774 0-1.587 0.227-2.44 0.68-0.854 0.453-1.774 1.067-2.76 1.84 0.026 0.187 0.04 0.467 0.04 0.84v12.88h-4.52v-12.2c0-1.333-0.214-2.333-0.64-3-0.4-0.693-1.094-1.04-2.08-1.04-1.414 0-3.2 0.893-5.36 2.68v13.56h-4.48v-19.4h3l0.8 2.32c1.12-0.907 2.32-1.627 3.6-2.16s2.453-0.8 3.52-0.8c2.613 0 4.386 0.973 5.32 2.92 1.12-0.88 2.306-1.587 3.56-2.12 1.28-0.533 2.453-0.8 3.52-0.8zm28.946 10.2c0-2.933-0.733-5.347-2.2-7.24s-3.627-2.84-6.48-2.84c-1.947 0-3.64 0.427-5.08 1.28-1.413 0.853-2.507 2.053-3.28 3.6-0.747 1.52-1.12 3.293-1.12 5.32 0 3.147 0.92 5.64 2.76 7.48 1.867 1.813 4.56 2.72 8.08 2.72 2.613 0 5-0.747 7.16-2.24l-1.36-3.28c-1.147 0.587-2.133 1.027-2.96 1.32-0.8 0.267-1.72 0.4-2.76 0.4-3.733 0-5.8-1.733-6.2-5.2h13.44zm-13.36-1.68c0.187-1.44 0.667-2.56 1.44-3.36 0.8-0.8 1.84-1.2 3.12-1.2 1.253 0 2.253 0.387 3 1.16s1.24 1.907 1.48 3.4z" fill="#e6e6e6"/>
 <circle cx="147" cy="93" r="93" fill="#3d3b91"/>
 <path d="m148 34c-22.77 0-27.946 22.868-28.157 51.375-9e-3 1.186 0.688 2.254 1.756 2.753 4.024 1.88 11.174 3.334 16.729 4.197h19.344c5.555-0.863 12.705-2.317 16.729-4.197 1.068-0.499 1.765-1.567 1.756-2.753-0.211-28.507-5.386-51.375-28.157-51.375z" fill="#eee9b9"/>
 <path d="m119.84 85.375c-9e-3 1.186 0.688 2.254 1.756 2.753 4.024 1.88 11.174 3.334 16.729 4.197h9.672v-33.29s-11.311 0.552-9.103 0c9.103-2.276 27.31-13.656 16.721-24.027-2.29-0.658-4.82-1.008-7.618-1.008-22.77 0-27.946 22.868-28.157 51.375z" fill="#eee9b9"/>
 <path d="m182.19 145.52v-35.055c0-3.675-2.21-6.99-5.602-8.403l-16.057-6.691c-1.499-0.624-2.475-2.089-2.475-3.713v-4.86h-20.113v4.86c0 1.624-0.976 3.088-2.475 3.713l-16.057 6.691c-3.393 1.413-5.602 4.728-5.602 8.403v35.055z" fill="#d29b6e"/>
 <g fill="#fc5454">
  <path d="m176.59 102.06-11.288-4.704c-4.155 5.016-8.276 8.8-11.863 11.573h-10.875c-3.587-2.774-7.708-6.558-11.863-11.573l-11.288 4.704c-3.393 1.413-5.602 4.728-5.602 8.403v35.055h68.382v-35.055c-1e-3 -3.675-2.211-6.99-5.603-8.403z"/>
  <path d="m115.12 105.8c-0.826 1.382-1.306 2.976-1.306 4.656v35.056h13.708v-27.311z"/>
  <path d="m180.88 105.8c0.826 1.382 1.307 2.976 1.307 4.656v35.056h-13.709v-27.311z"/>
 </g>
 <path d="m167.96 61.797-1.476 16.236c-0.241 2.651-1.777 5.012-4.105 6.304l-10.474 5.819c-2.43 1.35-5.384 1.35-7.814 0l-10.474-5.819c-2.327-1.292-3.864-3.653-4.105-6.304l-1.425-15.678c-0.111-1.216 0.754-2.299 1.967-2.44 5.371-0.627 19.48-2.593 28.019-6.74 1.08-0.525 2.346-0.102 2.945 0.939 0.979 1.701 2.785 4.08 5.749 5.492 0.819 0.39 1.276 1.286 1.193 2.191z" fill="#d29b6e"/>
 <path d="m211.72 152.35h-127.45c-1.257 0-2.276-1.019-2.276-2.276v-4.552c0-1.257 1.019-2.276 2.276-2.276h127.45c1.257 0 2.276 1.019 2.276 2.276v4.552c0 1.257-1.019 2.276-2.276 2.276z" fill="#b8b7e1"/>
 <path d="m128.09 62.355 1.425 15.678c0.241 2.651 1.777 5.012 4.105 6.304l10.474 5.82c0.959 0.532 2.005 0.793 3.062 0.905l-2.947-7.368c-0.504-1.259-0.817-2.586-0.93-3.938l-1.253-15.033c-0.095-1.152 0.685-2.182 1.816-2.417 4.849-1.005 10.036-2.372 14.352-4.192 1.424 1.968 3.555 4.142 6.618 5.601 0.615 0.293 0.906 0.426 2.923 0.591l0.228-2.51c0.083-0.908-0.382-1.803-1.205-2.196-2.957-1.412-4.76-3.787-5.737-5.486-0.599-1.041-1.866-1.464-2.946-0.939-8.538 4.147-22.646 6.113-28.019 6.74-1.212 0.142-2.077 1.224-1.966 2.44z" fill="#d29b6e"/>
 <path d="m127.89 96.076c3.886 4.689 8.12 8.818 12.583 12.269l1.23 0.952h13.985l1.229-0.952c4.464-3.451 8.698-7.579 12.584-12.269l0.889-1.073-4.394-1.831c-4.156 5.015-8.276 8.799-11.863 11.573h-10.876c-3.587-2.774-7.707-6.558-11.863-11.573l-4.394 1.831z" fill="#fd8282"/>
 <path d="m168.48 143.24h-40.965c-2.514 0-4.552-2.038-4.552-4.552v-27.31c0-2.514 2.038-4.552 4.552-4.552h40.965c2.514 0 4.552 2.038 4.552 4.552v27.31c0 2.514-2.038 4.552-4.552 4.552z" fill="#ccc9ff"/>
 <path d="m148 129.59c2.514 0 4.552-2.038 4.552-4.552s-2.038-4.552-4.552-4.552-4.552 2.038-4.552 4.552 2.038 4.552 4.552 4.552z" fill="#fff"/>
 <path d="m275.87 76.148-11.142-9.88 4.243-15.834 11.142 9.88z" fill="#015de2"/>
 <path d="m275.87 76.146 14.589-2.985 4.243-15.835-14.59 2.986z" fill="#1575ff"/>
 <path d="m268.97 50.433 14.094-3.118 11.637 10.012-14.589 2.986z" fill="#0168fc"/>
 <path d="m258.47 168.62-16.331 0.603-8.634-15.783 16.331-0.603z" fill="#e04cae"/>
 <path d="m258.47 168.62 9.317-13.427-8.634-15.783-9.316 13.427z" fill="#e05cb3"/>
 <path d="m233.51 153.44 8.823-13.157 16.824-0.873-9.316 13.427z" fill="#e573be"/>
 <path d="m17.709 69.506-17.709-8.855v-21.796l17.709 8.855z" fill="#209953"/>
 <path d="m17.711 69.506 17.709-8.855v-21.796l-17.709 8.855z" fill="#27ae60"/>
 <path d="m0 38.855 17.028-8.855 18.39 8.855-17.709 8.854z" fill="#2bc16b"/>
</svg>
