<?xml version="1.0" encoding="UTF-8"?>
<svg width="294.7" height="223.52" fill="none" version="1.1" viewBox="0 0 294.7 223.52" xmlns="http://www.w3.org/2000/svg" xmlns:cc="http://creativecommons.org/ns#" xmlns:dc="http://purl.org/dc/elements/1.1/" xmlns:rdf="http://www.w3.org/1999/02/22-rdf-syntax-ns#" xmlns:xlink="http://www.w3.org/1999/xlink">
 <metadata>
  <rdf:RDF>
   <cc:Work rdf:about="">
    <dc:format>image/svg+xml</dc:format>
    <dc:type rdf:resource="http://purl.org/dc/dcmitype/StillImage"/>
    <dc:title/>
   </cc:Work>
  </rdf:RDF>
 </metadata>
 <path d="m50.057 195.8-8.04 27.2h-3.92l-5.84-20.8-5.72 20.8h-3.92l-8.12-26.92 4.48-0.64 5.68 21.44 5.44-21.08h4.44l5.6 21.08 5.44-21.08zm21.087 17.36c0-2.933-0.733-5.347-2.2-7.24s-3.627-2.84-6.48-2.84c-1.947 0-3.6399 0.427-5.0799 1.28-1.4134 0.853-2.5067 2.053-3.28 3.6-0.7467 1.52-1.12 3.293-1.12 5.32 0 3.147 0.92 5.64 2.76 7.48 1.8666 1.813 4.5599 2.72 8.0799 2.72 2.613 0 5-0.747 7.16-2.24l-1.36-3.28c-1.147 0.587-2.133 1.027-2.96 1.32-0.8 0.267-1.72 0.4-2.76 0.4-3.733 0-5.7999-1.733-6.1999-5.2h13.44zm-13.36-1.68c0.1866-1.44 0.6666-2.56 1.44-3.36 0.7999-0.8 1.8399-1.2 3.1199-1.2 1.253 0 2.253 0.387 3 1.16s1.24 1.907 1.48 3.4zm23.032 11.52v-28.24l-4.48 0.44v27.8zm20.482-4.68c-0.96 0.453-1.84 0.787-2.64 1s-1.693 0.32-2.68 0.32c-1.626 0-2.933-0.587-3.92-1.76-0.96-1.173-1.44-2.707-1.44-4.6 0.027-1.84 0.534-3.36 1.52-4.56 1.014-1.2 2.32-1.8 3.92-1.8 0.934 0 1.787 0.107 2.56 0.32 0.8 0.213 1.72 0.547 2.76 1l1.28-3.2c-0.826-0.587-1.906-1.053-3.24-1.4-1.333-0.373-2.453-0.56-3.36-0.56-2.026 0-3.8 0.427-5.32 1.28s-2.693 2.053-3.52 3.6c-0.8 1.52-1.2 3.293-1.2 5.32 0 2.053 0.4 3.853 1.2 5.4 0.827 1.52 1.987 2.707 3.48 3.56 1.494 0.853 3.254 1.28 5.28 1.28 0.934 0 2.067-0.173 3.4-0.52 1.334-0.347 2.414-0.813 3.24-1.4zm24.871-5.04c0 2.027-0.413 3.813-1.24 5.36-0.826 1.547-2 2.747-3.52 3.6s-3.293 1.28-5.32 1.28c-2.026 0-3.786-0.427-5.28-1.28-1.493-0.853-2.653-2.04-3.48-3.56-0.8-1.547-1.2-3.347-1.2-5.4 0-2.027 0.4-3.8 1.2-5.32 0.827-1.547 2-2.747 3.52-3.6s3.294-1.28 5.32-1.28c2.027 0 3.787 0.427 5.28 1.28 1.52 0.827 2.68 2.013 3.48 3.56 0.827 1.547 1.24 3.333 1.24 5.36zm-10.08 6.36c1.627 0 2.934-0.6 3.92-1.8 1.014-1.2 1.52-2.707 1.52-4.52 0-1.893-0.493-3.427-1.48-4.6-0.96-1.2-2.253-1.8-3.88-1.8-1.6 0-2.906 0.6-3.92 1.8-0.986 1.2-1.493 2.72-1.52 4.56 0 1.893 0.48 3.427 1.44 4.6 0.987 1.173 2.294 1.76 3.92 1.76zm38.187-16.68c2.107 0 3.653 0.627 4.64 1.88 1.013 1.253 1.52 3.013 1.52 5.28v12.88h-4.52v-12.2c0-1.333-0.213-2.333-0.64-3-0.4-0.693-1.093-1.04-2.08-1.04-0.773 0-1.587 0.227-2.44 0.68s-1.773 1.067-2.76 1.84c0.027 0.187 0.04 0.467 0.04 0.84v12.88h-4.52v-12.2c0-1.333-0.213-2.333-0.64-3-0.4-0.693-1.093-1.04-2.08-1.04-1.413 0-3.2 0.893-5.36 2.68v13.56h-4.48v-19.4h3l0.8 2.32c1.12-0.907 2.32-1.627 3.6-2.16s2.453-0.8 3.52-0.8c2.613 0 4.387 0.973 5.32 2.92 1.12-0.88 2.307-1.587 3.56-2.12 1.28-0.533 2.453-0.8 3.52-0.8zm28.946 10.2c0-2.933-0.733-5.347-2.2-7.24-1.466-1.893-3.626-2.84-6.48-2.84-1.946 0-3.64 0.427-5.08 1.28-1.413 0.853-2.506 2.053-3.28 3.6-0.746 1.52-1.12 3.293-1.12 5.32 0 3.147 0.92 5.64 2.76 7.48 1.867 1.813 4.56 2.72 8.08 2.72 2.614 0 5-0.747 7.16-2.24l-1.36-3.28c-1.146 0.587-2.133 1.027-2.96 1.32-0.8 0.267-1.72 0.4-2.76 0.4-3.733 0-5.8-1.733-6.2-5.2h13.44zm-13.36-1.68c0.187-1.44 0.667-2.56 1.44-3.36 0.8-0.8 1.84-1.2 3.12-1.2 1.254 0 2.254 0.387 3 1.16 0.747 0.773 1.24 1.907 1.48 3.4zm37.333-8.4c1.974 0 3.694 0.427 5.16 1.28 1.467 0.827 2.587 2.013 3.36 3.56 0.8 1.547 1.2 3.36 1.2 5.44 0 2-0.4 3.773-1.2 5.32-0.8 1.52-1.946 2.707-3.44 3.56-1.466 0.853-3.186 1.28-5.16 1.28-0.72 0-1.533-0.16-2.44-0.48-0.88-0.32-1.706-0.747-2.48-1.28l-0.92 1.24h-2.36v-27.8l4.48-0.44v9.36c1.307-0.693 2.574-1.04 3.8-1.04zm-0.08 16.56c1.6 0 2.854-0.587 3.76-1.76 0.934-1.173 1.4-2.68 1.4-4.52 0-1.92-0.453-3.467-1.36-4.64-0.906-1.2-2.173-1.8-3.8-1.8-0.693 0-1.346 0.107-1.96 0.32-0.586 0.213-1.173 0.533-1.76 0.96v10.24c1.094 0.8 2.334 1.2 3.72 1.2zm16.397-11.16c1.974-0.88 3.84-1.32 5.6-1.32 2.294 0 3.467 1.347 3.52 4.04h-4.24c-2.16 0-3.906 0.533-5.24 1.6-1.306 1.067-1.96 2.573-1.96 4.52 0 1.867 0.574 3.36 1.72 4.48 1.174 1.12 2.88 1.68 5.12 1.68 0.96 0 1.92-0.227 2.88-0.68s1.814-1.04 2.56-1.76l0.68 1.96h3v-12.96c0-1.307-0.36-2.48-1.08-3.52-0.72-1.067-1.706-1.907-2.96-2.52-1.226-0.613-2.586-0.92-4.08-0.92-0.906 0-2.093 0.173-3.56 0.52-1.44 0.347-2.506 0.747-3.2 1.2zm1.6 8.84c0-0.88 0.28-1.613 0.84-2.2 0.587-0.613 1.374-0.92 2.36-0.92h4.36v3.48c-0.666 0.693-1.413 1.24-2.24 1.64-0.826 0.4-1.653 0.6-2.48 0.6-0.88 0-1.573-0.253-2.08-0.76-0.506-0.533-0.76-1.147-0.76-1.84zm32.002 1c-0.96 0.453-1.84 0.787-2.64 1s-1.693 0.32-2.68 0.32c-1.627 0-2.933-0.587-3.92-1.76-0.96-1.173-1.44-2.707-1.44-4.6 0.027-1.84 0.533-3.36 1.52-4.56 1.013-1.2 2.32-1.8 3.92-1.8 0.933 0 1.787 0.107 2.56 0.32 0.8 0.213 1.72 0.547 2.76 1l1.28-3.2c-0.827-0.587-1.907-1.053-3.24-1.4-1.333-0.373-2.453-0.56-3.36-0.56-2.027 0-3.8 0.427-5.32 1.28s-2.693 2.053-3.52 3.6c-0.8 1.52-1.2 3.293-1.2 5.32 0 2.053 0.4 3.853 1.2 5.4 0.827 1.52 1.987 2.707 3.48 3.56s3.253 1.28 5.28 1.28c0.933 0 2.067-0.173 3.4-0.52s2.413-0.813 3.24-1.4zm10.911 4.68v-6.68l2.28-2.12 5.4 8.8h5.2l-7.44-11.68 5.6-5.16-2.56-3.08-8.48 8.04v-16.36l-4.48 0.44v27.8z" fill="#e6e6e6"/>
 <circle cx="147" cy="93" r="93" fill="#3d3b91"/>
 <g transform="translate(-40,-75)" clip-path="url(#clip1)">
  <path d="m151.5 158.9v10.511c0 1.598-1.042 3.01-2.571 3.48l-15.957 4.91c-3.056 0.941-5.141 3.764-5.141 6.961v26.483c0 5.028 4.076 9.103 9.103 9.103h52.345v-61.448z" fill="#f0c087"/>
  <path d="m164.24 186.21c-8.812 0-16.58-4.626-21.045-11.557l-10.228 3.147c-3.056 0.94-5.141 3.764-5.141 6.961v26.483c0 5.027 4.076 9.103 9.103 9.103h52.345v-59.172c0 13.769-11.265 25.035-25.034 25.035z" fill="#27ae60"/>
  <path d="m189.28 161.17c0 13.769-11.266 25.034-25.034 25.034-8.812 0-16.58-4.625-21.045-11.556l-4.508 1.387c5.129 8.794 14.638 14.721 25.553 14.721 10.557 0 19.798-5.547 25.034-13.869z" fill="#49db86"/>
  <path d="m166.52 208.96h-22.759c-1.257 0-2.276-1.019-2.276-2.276v-10.827c0-1.811-0.719-3.547-1.999-4.828l-10.374-10.374c-0.807 1.182-1.282 2.594-1.282 4.098v26.483c0 5.027 4.076 9.103 9.103 9.103h36.414v-4.551c0-3.771-3.056-6.828-6.827-6.828z" fill="#49db86"/>
  <path d="m183.59 142.97h-0.338l-0.8-15.931h-36.13v15.931h-1.422c-1.885 0-3.414 1.529-3.414 3.414v4.552c0 1.885 1.529 3.413 3.414 3.413h2.158l0.369 2.311c0.279 1.738 1.177 3.317 2.53 4.444l7.307 6.09c0.981 0.817 2.219 1.266 3.497 1.266h6.968c1.278 0 2.516-0.449 3.497-1.266l7.308-6.09c1.352-1.127 2.25-2.706 2.529-4.444l0.37-2.311h2.157c1.885 0 3.413-1.528 3.413-3.413v-4.552c0-1.886-1.528-3.414-3.413-3.414z" fill="#f0c087"/>
  <path d="m182.45 127.04h-36.13v15.931h-1.422c-1.885 0-3.414 1.529-3.414 3.414v4.552c0 1.885 1.529 3.413 3.414 3.413h2.158l0.369 2.311c0.279 1.738 1.177 3.317 2.53 4.444l7.307 6.089c0.981 0.818 2.219 1.266 3.496 1.266h2.878l-3.244-9.732c-0.464-1.392-0.701-2.85-0.701-4.318v-13.715c0-1.257 1.019-2.276 2.276-2.276 0 0 2.276 0 3.186-1.094 1.387 0.71 2.942 1.094 4.552 1.094s3.164-0.384 4.551-1.094c1.388 0.71 2.942 1.094 4.552 1.094 0.229 0 0.452-0.016 0.674-0.041l3.537 5e-3z" fill="#f0c087"/>
  <path d="m191.55 126.58c0-2.521-1.718-4.623-4.041-5.251 0.252-0.629 0.399-1.312 0.399-2.032 0-3.016-2.445-5.462-5.462-5.462-0.111 0-0.214 0.027-0.324 0.033-0.743-2.133-2.751-3.674-5.138-3.674-0.586 0-1.142 0.109-1.668 0.287-1.166-1.286-2.832-2.108-4.704-2.108-0.483 0-0.949 0.064-1.401 0.166-1.303-1.223-3.043-1.986-4.972-1.986-1.928 0-3.669 0.763-4.972 1.986-0.451-0.102-0.918-0.166-1.4-0.166-1.737 0-3.309 0.7-4.458 1.828-0.032-1e-3 -0.062-7e-3 -0.094-7e-3 -2.386 0-4.394 1.541-5.137 3.674-0.11-6e-3 -0.214-0.033-0.325-0.033-3.016 0-5.462 2.446-5.462 5.462 0 0.72 0.148 1.403 0.4 2.032-2.323 0.628-4.041 2.73-4.041 5.251 0 1.406 0.546 2.674 1.417 3.642-0.871 0.968-1.417 2.236-1.417 3.641 0 2.022 1.111 3.762 2.746 4.702 0.081 2.443 2.074 4.402 4.537 4.402h1.99c0.89 0 1.649-0.644 1.796-1.522l1.27-7.623c0.137 0.011 0.267 0.041 0.406 0.041 1.903 0 3.574-0.974 4.552-2.449 0.978 1.475 2.649 2.449 4.552 2.449 1.902 0 3.573-0.974 4.551-2.449 0.978 1.475 2.65 2.449 4.552 2.449s3.574-0.974 4.552-2.449c0.978 1.475 2.649 2.449 4.551 2.449 0.139 0 0.27-0.03 0.406-0.041l1.271 7.623c0.146 0.878 0.906 1.522 1.796 1.522h2.445c2.513 0 4.551-2.038 4.551-4.552 0-0.047-0.012-0.091-0.014-0.138 1.382-0.985 2.29-2.585 2.29-4.414 0-1.405-0.545-2.673-1.417-3.641 0.871-0.968 1.417-2.236 1.417-3.642z" fill="#5a4146"/>
  <path d="m162.91 129.9c-2.134-0.743-3.675-2.75-3.675-5.137 0-1.406 0.546-2.674 1.418-3.642-0.872-0.967-1.418-2.236-1.418-3.641 0-2.522 1.719-4.623 4.042-5.252-0.253-0.628-0.4-1.311-0.4-2.031 0-1.403 0.545-2.669 1.414-3.636-0.017 0-0.032-5e-3 -0.048-5e-3 -1.928 0-3.669 0.763-4.972 1.986-0.452-0.102-0.918-0.166-1.4-0.166-1.738 0-3.309 0.7-4.459 1.828-0.031-1e-3 -0.061-7e-3 -0.093-7e-3 -2.387 0-4.395 1.541-5.138 3.674-0.109-6e-3 -0.213-0.033-0.324-0.033-3.017 0-5.462 2.446-5.462 5.462 0 0.72 0.147 1.403 0.399 2.032-2.323 0.628-4.041 2.73-4.041 5.251 0 1.406 0.546 2.674 1.417 3.642-0.871 0.968-1.417 2.236-1.417 3.641 0 2.022 1.111 3.762 2.746 4.702 0.081 2.443 2.074 4.402 4.537 4.402h1.99c0.89 0 1.649-0.644 1.796-1.522l1.27-7.623c0.137 0.011 0.267 0.041 0.406 0.041 1.903 0 3.574-0.974 4.552-2.449 0.978 1.475 2.649 2.449 4.552 2.449 1.256 0 2.389-0.454 3.311-1.168-0.624-0.649-1.035-1.5-1.035-2.473-1e-3 -0.111 0.022-0.216 0.032-0.325z" fill="#5a4146"/>
  <path d="m159.69 208.96h6.828c3.771 0 6.828 3.057 6.828 6.827v4.552h-13.656z" fill="#e6af78"/>
  <path d="m246.17 204.41h-68.276c-3.771 0-6.828-3.057-6.828-6.828v-40.965c0-3.771 3.057-6.828 6.828-6.828h68.276c3.771 0 6.828 3.057 6.828 6.828v40.965c-1e-3 3.771-3.058 6.828-6.828 6.828z" fill="#ccc9ff"/>
  <path d="m225.69 220.34-4.026-30.188c-0.301-2.261-2.23-3.95-4.512-3.95h-10.236c-2.282 0-4.21 1.689-4.512 3.95l-4.025 30.188v4.551h27.31v-4.551z" fill="#e0deff"/>
  <path d="m212.04 177.1c2.514 0 4.552-2.037 4.552-4.551s-2.038-4.552-4.552-4.552-4.552 2.038-4.552 4.552 2.038 4.551 4.552 4.551z" fill="#fff"/>
  <path d="m250.72 229.45h-127.45c-1.257 0-2.276-1.019-2.276-2.276v-4.551c0-1.257 1.019-2.276 2.276-2.276h127.45c1.257 0 2.276 1.019 2.276 2.276v4.551c0 1.257-1.019 2.276-2.276 2.276z" fill="#ccc9ff"/>
 </g>
 <path d="m275.87 76.148-11.142-9.88 4.243-15.834 11.142 9.88z" fill="#015de2"/>
 <path d="m275.87 76.146 14.589-2.985 4.243-15.835-14.59 2.986z" fill="#1575ff"/>
 <path d="m268.97 50.433 14.094-3.118 11.637 10.012-14.589 2.986z" fill="#0168fc"/>
 <path d="m258.47 168.62-16.331 0.603-8.634-15.783 16.331-0.603z" fill="#e04cae"/>
 <path d="m258.47 168.62 9.317-13.427-8.634-15.783-9.316 13.427z" fill="#e05cb3"/>
 <path d="m233.51 153.44 8.823-13.157 16.824-0.873-9.316 13.427z" fill="#e573be"/>
 <path d="m17.709 69.506-17.709-8.855v-21.796l17.709 8.855z" fill="#209953"/>
 <path d="m17.711 69.506 17.709-8.855v-21.796l-17.709 8.855z" fill="#27ae60"/>
 <path d="m0 38.855 17.028-8.855 18.39 8.855-17.709 8.854z" fill="#2bc16b"/>
 <defs>
  <clipPath id="clip1">
   <rect x="121" y="102" width="132" height="132" fill="#fff"/>
  </clipPath>
 </defs>
</svg>
