<?xml version="1.0" encoding="UTF-8" standalone="no"?>
<svg xmlns="http://www.w3.org/2000/svg" 
    xmlns:xlink="http://www.w3.org/1999/xlink" style="isolation:isolate" viewBox="0 0 2000 2000">
    <switch>
        <g id="Group">
            <circle vector-effect="non-scaling-stroke" cx="600" cy="600.0090908962914" r="480.68181818181847" id="innerGauge" fill="none" stroke-width="3" stroke="rgb(154,185,229)" stroke-linejoin="miter" stroke-linecap="butt" stroke-miterlimit="4"/>
            <g id="hourglass-half-duotone" class="fa-group">
                <g opacity="0.4">
                    <path d=" M 670.779 697.5 L 529.206 697.5 C 523.586 713.137 520.735 729.634 520.781 746.25 L 679.219 746.25 C 679.261 729.633 676.405 713.136 670.779 697.5 L 670.779 697.5 Z  M 600 563.438 C 631.101 563.438 657.784 538.148 670.779 502.5 L 529.221 502.5 C 542.216 538.148 568.907 563.438 600 563.438 Z " id="Compound Path" class="fa-secondary" fill="rgb(255,255,255)"/>
                </g>
                <path d=" M 727.969 453.75 C 738.065 453.75 746.25 445.565 746.25 435.469 L 746.25 423.281 C 746.25 413.185 738.065 405 727.969 405 L 472.031 405 C 461.935 405 453.75 413.185 453.75 423.281 L 453.75 435.469 C 453.75 445.565 461.935 453.75 472.031 453.75 C 472.031 523.066 510.879 581.513 564.077 600 C 510.879 618.487 472.031 676.934 472.031 746.25 C 461.935 746.25 453.75 754.435 453.75 764.531 L 453.75 776.719 C 453.75 786.815 461.935 795 472.031 795 L 727.969 795 C 738.065 795 746.25 786.815 746.25 776.719 L 746.25 764.531 C 746.25 754.435 738.065 746.25 727.969 746.25 C 727.969 676.934 689.121 618.487 635.923 600 C 689.121 581.513 727.969 523.066 727.969 453.75 Z  M 679.219 746.25 L 520.781 746.25 C 520.781 687.247 555.973 636.563 600 636.563 C 644.027 636.563 679.219 687.232 679.219 746.25 Z  M 600 563.438 C 555.98 563.438 520.781 512.768 520.781 453.75 L 679.219 453.75 C 679.219 512.753 644.027 563.438 600 563.438 Z " id="Compound Path" class="fa-primary" fill="rgb(255,255,255)"/>
            </g>
        </g>
    </switch>
</svg>