<svg xmlns="http://www.w3.org/2000/svg" fill="none" viewBox="0 0 31 31"><defs/><g filter="url(#filter0_d)"><circle cx="15.5" cy="11.5" r="9.5" fill="#3D3B91"/></g><path fill="#E6E6E6" d="M16 11a1 1 0 00-1 1c0 .5.5 1 1 1s1-.5 1-1-.5-1-1-1z"/><path fill="#E6E6E6" d="M19.2 9.2h-1l-1.1-1a.4.4 0 00-.3-.2h-1.6a.4.4 0 00-.3.1l-1 1h-1.1c-.4 0-.8.4-.8.8v4.3c0 .5.4.8.8.8h6.4c.4 0 .8-.3.8-.8V10c0-.4-.4-.7-.8-.7zM16 13.8c-1 0-2-.9-2-2a2 2 0 014 0c0 1.1-1 2-2 2z"/><defs><filter id="filter0_d" width="31" height="31" x="0" y="0" color-interpolation-filters="sRGB" filterUnits="userSpaceOnUse"><feFlood flood-opacity="0" result="BackgroundImageFix"/><feColorMatrix in="SourceAlpha" values="0 0 0 0 0 0 0 0 0 0 0 0 0 0 0 0 0 0 127 0"/><feOffset dy="4"/><feGaussianBlur stdDeviation="3"/><feColorMatrix values="0 0 0 0 0 0 0 0 0 0 0 0 0 0 0 0 0 0 0.05 0"/><feBlend in2="BackgroundImageFix" mode="multiply" result="effect1_dropShadow"/><feBlend in="SourceGraphic" in2="effect1_dropShadow" result="shape"/></filter></defs></svg>