<svg fill="none" 
    xmlns="http://www.w3.org/2000/svg" viewBox="0 0 14 3">
    <path d="M7 0a1.8 1.8 0 00-1.2.4c-.1.2-.3.3-.3.5a1.4 1.4 0 000 1.2c0 .2.2.3.3.5l.6.3a1.8 1.8 0 001.8-.3c.3-.3.5-.7.5-1.1 0-.4-.2-.8-.5-1C7.9.1 7.4 0 7 0zM1.7 0A1.8 1.8 0 00.5.4L0 1a1.4 1.4 0 000 1.2l.4.5.5.3A1.8 1.8 0 003 2.6c.3-.3.4-.7.4-1.1 0-.4-.1-.8-.4-1C2.5.1 2 0 1.7 0zm10.6 0a1.8 1.8 0 00-1.2.4l-.3.5a1.4 1.4 0 000 1.2c0 .2.2.3.3.5l.6.3a1.8 1.8 0 001.8-.3c.3-.3.5-.7.5-1.1 0-.4-.2-.8-.5-1-.3-.3-.7-.5-1.2-.5z" fill="#3D3B91"/>
</svg>
