<svg style="isolation:isolate" viewBox="100 99.3 800 801.3" xmlns="http://www.w3.org/2000/svg" xmlns:bx="https://boxy-svg.com"><g bx:origin="0 0"><path d="M124.3 149c-9.1-14.3-24.3-8.4-24.3-8.4s21.7-20.3 36.3-6.6l-12 15z" fill="#A8AEB0"/><path d="M131.4 138.4l4.7-4.4c-14.4-13.7-36.1 6.6-36.1 6.6s19-12.7 31.4-2.2z" fill="#DADADA"/><path d="M135.4 159.4c15.3 8.6 9 22.8 9 22.8s21.6-20.3 7-34l-16 11.2z" fill="#A8AEB0"/><path d="M146.7 152.8l4.8-4.4c14.5 13.6-7.1 34-7.1 34s13.5-18 2.3-29.6z" fill="#DADADA"/><path d="M169 139.2c-17.3 16-36.3 24.8-42.9 18.6-6.6-6.3 2.6-24 19.8-40.2 20-18.8 42.3-18 42.3-18s.7 20.9-19.2 39.6z" fill="#C5D0D8"/><path d="M164.6 134.7c-17.1 16-34.2 26.5-38.2 22.8-4-3.8 7.2-19.8 24.3-35.8 20-18.8 37.8-22.4 37.8-22.4s-3.9 16.6-24 35.4z" fill="#DAE3EA"/><path d="M132.9 162.2a2 2 0 01-2.7 0l-8.8-8.3c-.8-.7-.8-2 0-2.6l2.6-2.5 11.5 10.7-2.6 2.7z" fill="#DADADA"/><path d="M130.4 159.7c-.8.7-1.7 1-2 .5l-5.1-4.7c-.4-.4-.2-1.2.6-1.9l2.6-2.5 6.5 6.1-2.6 2.5z" fill="#FFF"/><path d="M127.9 163.1c-.5.5-1.5.5-2 0l-5.7-5.3c-.4-.5-.3-1.3.1-1.7l1.8-1.7 7.5 7-1.7 1.7z" fill="#3E4347"/><path d="M126.7 162c-.5.4-1.3.6-1.6.3l-4-3.7c-.3-.3-.2-1 .4-1.4l1.8-1.7 5.2 4.9-1.8 1.6z" fill="#62727A"/><path d="M188.2 99.6s-8-.3-18.8 3.6l15 14c4-10.1 3.8-17.6 3.8-17.6z" fill="#DADADA"/><path d="M188.2 99.6s-6.4 1.3-16 6.4l9.2 8.5c5.4-9 6.8-14.9 6.8-14.9z" fill="#FFF"/><path d="M161.2 131.8c4 0 7.4-3.1 7.4-7 0-3.7-3.3-6.8-7.4-6.8-4 0-7.4 3-7.4 6.9 0 3.8 3.3 6.9 7.4 6.9z" fill="#EDF4F9"/><path d="M161.2 129.4c2.7 0 4.8-2 4.8-4.5s-2.1-4.6-4.8-4.6c-2.7 0-4.9 2-4.9 4.6 0 2.5 2.2 4.5 4.9 4.5z" fill="#FFF"/><path d="M146.4 145.6c4.1 0 7.4-3 7.4-6.9 0-3.8-3.3-7-7.4-7-4 0-7.3 3.2-7.3 7s3.3 6.9 7.3 6.9z" fill="#EDF4F9"/><path d="M146.4 143.3c2.7 0 5-2 5-4.6 0-2.5-2.3-4.6-5-4.6-2.6 0-4.8 2-4.8 4.6 0 2.5 2.2 4.6 4.8 4.6zM169.1 106.1c-.4.4-1.3.4-1.7 0-.5-.4-.5-1.2 0-1.7.4-.4 1.3-.4 1.7 0 .5.5.5 1.3 0 1.7zM171.7 109.6c.6 0 1.1-.5 1.1-1.1 0-.7-.5-1.2-1.1-1.2-.7 0-1.2.5-1.2 1.2 0 .6.5 1 1.2 1zM175.2 112.9c.6 0 1.2-.5 1.2-1.1 0-.6-.6-1.1-1.2-1.1-.7 0-1.2.5-1.2 1 0 .7.5 1.2 1.2 1.2zM178.6 116.2c.6 0 1.2-.5 1.2-1.1 0-.6-.6-1.1-1.2-1.1-.7 0-1.2.5-1.2 1 0 .7.5 1.2 1.2 1.2zM182.1 119.4c.7 0 1.2-.5 1.2-1.1 0-.7-.5-1.1-1.2-1.1-.6 0-1.2.4-1.2 1 0 .7.6 1.2 1.2 1.2z" fill="#FFF"/></g></svg>