<svg style="isolation:isolate" xmlns="http://www.w3.org/2000/svg" xmlns:bx="https://boxy-svg.com" viewBox="0 0 43 43"><g bx:origin="0 0"><path d="M21.5 43a21.5 21.5 0 100-43 21.5 21.5 0 000 43z" fill="#6762E3"/><path d="M21.6 30.7h-.1-.2.3zM38.8 34.2a21.5 21.5 0 01-34.7 0c3-3.3 7.2-5 10.7-5.9-.3 2.5 1 5.8 1 5.7 1.3-3 5.6-3.2 5.6-3.2s4.4.2 5.7 3.2c0 .1 1.3-3.2 1-5.7a22 22 0 0110.7 5.9z" fill="#373F3C"/><path d="M27 25.8c0 .5-.3 3.1-5.4 5.2h-.2c-5.1-2-5.4-4.7-5.4-5.2 0-1 .2-1.9.6-2.8 1.4 1.7 3 2.8 4.9 2.8 1.8 0 3.5-1 4.9-2.8.4.9.6 1.9.6 2.8z" fill="#EFE0BA"/><path d="M26.8 26s.3 2.7-5.3 4.8c0 0 4.3.2 5.7 3.2 0 .2 2.5-6.4-.4-8zM16.1 26c-2.9 1.6-.4 8.1-.3 8 1.3-3 5.7-3.2 5.7-3.2-5.6-2-5.4-4.8-5.4-4.8z" fill="#FFF"/><path d="M26 23.9c-1.4 1.9-3.1 3.1-5 3.1s-3.6-1.2-5-3.1l.3-.9c1.3 2 3 3.2 4.7 3.2 1.8 0 3.4-1.2 4.7-3.2l.3.9z" fill="#EFE0BA"/><path d="M30.4 19c-.7 1.3-1.7 2-2.5 1.8-1.6 3-3.9 5.2-6.4 5.2-2.5 0-4.8-2.2-6.4-5.2-.7.1-1.8-.5-2.5-1.7-.8-1.4-.8-2.9 0-3.4.2 0 .4-.2.6-.1a8.1 8.1 0 001.2 2.2c-.7-4.3 2.3-4.7 1.8-8.8 0 0 2 4.4 7.4 1.3l-.4.8c7.7-1.7 5.1 7.6 5 7.8 1-1.1 1.5-2.3 1.8-3.3l.4.1c.8.5.8 2 0 3.4z" fill="#EFE0BA"/><path d="M25.9 4.1c.6 0 1.6.5 1.6.5-2.7-3.3-7.3-1.2-7.3-1.2 1.6-1.4 3-1.2 3-1.2-6.5-1-7.6 3-7.6 3-.3-.4-.3-1.1-.3-1.5-.5.9 0 2.5 0 2.5-.4-1.2-2-1-2-1 1.3.3 1.6 1.2 1.6 1.2-3.4 1.3-2.9 5.1-2.9 5.1l.9-1a9.1 9.1 0 001.5 7.3c-.7-4.4 2.3-4.9 1.8-9.1 0 0 2 4.5 7.4 1.3l-.4.9c7.8-1.9 5 8.1 5 8.1 2.8-3.8 2.4-7.6 2.4-7.6l.3 1.4c.9-6.3-5-8.7-5-8.7z" fill="#CDC9A2"/></g></svg>