<?xml version="1.0" encoding="UTF-8" standalone="no"?>
<!-- Created with Inkscape (http://www.inkscape.org/) -->

<svg
   xmlns:dc="http://purl.org/dc/elements/1.1/"
   xmlns:cc="http://creativecommons.org/ns#"
   xmlns:rdf="http://www.w3.org/1999/02/22-rdf-syntax-ns#"
   xmlns:svg="http://www.w3.org/2000/svg"
   xmlns="http://www.w3.org/2000/svg"
   xmlns:sodipodi="http://sodipodi.sourceforge.net/DTD/sodipodi-0.dtd"
   xmlns:inkscape="http://www.inkscape.org/namespaces/inkscape"
   width="80.15213mm"
   height="59.054016mm"
   viewBox="0 0 80.15213 59.054016"
   version="1.1"
   id="svg8"
   inkscape:version="0.92.4 (5da689c313, 2019-01-14)"
   sodipodi:docname="refresh-yo-guy.svg">
  <defs
     id="defs2">
    <filter
       filterUnits="userSpaceOnUse"
       height="76"
       width="284"
       y="608"
       x="46"
       id="filter0_d"
       style="color-interpolation-filters:sRGB">
      <feFlood
         id="feFlood4019"
         result="BackgroundImageFix"
         flood-opacity="0" />
      <feColorMatrix
         id="feColorMatrix4021"
         values="0 0 0 0 0 0 0 0 0 0 0 0 0 0 0 0 0 0 127 0"
         type="matrix"
         in="SourceAlpha" />
      <feOffset
         id="feOffset4023"
         dy="4" />
      <feGaussianBlur
         id="feGaussianBlur4025"
         stdDeviation="5" />
      <feColorMatrix
         id="feColorMatrix4027"
         values="0 0 0 0 0.0833883 0 0 0 0 0.0595834 0 0 0 0 0.67375 0 0 0 0.1 0"
         type="matrix" />
      <feBlend
         id="feBlend4029"
         result="effect1_dropShadow"
         in2="BackgroundImageFix"
         mode="normal" />
      <feBlend
         id="feBlend4031"
         result="shape"
         in2="effect1_dropShadow"
         in="SourceGraphic"
         mode="normal" />
    </filter>
    <clipPath
       id="clip0">
      <rect
         id="rect4034"
         transform="rotate(-7.55368,875.76422,-434.39225)"
         height="44.669201"
         width="33.1255"
         x="0"
         y="0"
         style="fill:#ffffff" />
    </clipPath>
  </defs>
  <sodipodi:namedview
     id="base"
     pagecolor="#ffffff"
     bordercolor="#666666"
     borderopacity="1.0"
     inkscape:pageopacity="0.0"
     inkscape:pageshadow="2"
     inkscape:zoom="5.6"
     inkscape:cx="59.428593"
     inkscape:cy="62.551778"
     inkscape:document-units="mm"
     inkscape:current-layer="layer1"
     showgrid="false"
     fit-margin-top="0"
     fit-margin-left="0"
     fit-margin-right="0"
     fit-margin-bottom="0"
     inkscape:window-width="813"
     inkscape:window-height="748"
     inkscape:window-x="613"
     inkscape:window-y="109"
     inkscape:window-maximized="0" />
  <metadata
     id="metadata5">
    <rdf:RDF>
      <cc:Work
         rdf:about="">
        <dc:format>image/svg+xml</dc:format>
        <dc:type
           rdf:resource="http://purl.org/dc/dcmitype/StillImage" />
        <dc:title></dc:title>
      </cc:Work>
    </rdf:RDF>
  </metadata>
  <g
     inkscape:label="Layer 1"
     inkscape:groupmode="layer"
     id="layer1"
     transform="translate(-228.18134,25787.957)">
    <path
       style="fill:#2bbb68;stroke-width:0.26458332"
       inkscape:connector-curvature="0"
       d="m 297.67341,-25730.851 -10.6598,-5.33 v -13.12 l 10.6598,5.33 z"
       id="path3889" />
    <path
       style="fill:#2dcc70;stroke-width:0.26458332"
       inkscape:connector-curvature="0"
       d="m 297.67341,-25730.851 10.66006,-5.33 v -13.12 l -10.66006,5.33 z"
       id="path3891" />
    <path
       style="fill:#27ae60;stroke-width:0.26458332"
       inkscape:connector-curvature="0"
       d="m 287.01361,-25749.301 10.24996,-5.33 11.0699,5.33 -10.66006,5.33 z"
       id="path3893" />
    <path
       style="fill:#fc54eb;stroke-width:0.26458332"
       inkscape:connector-curvature="0"
       d="m 248.47228,-25737.472 -13.27359,0.49 -7.01735,-12.828 13.27353,-0.49 z"
       id="path3895" />
    <path
       style="fill:#fd73ef;stroke-width:0.26458332"
       inkscape:connector-curvature="0"
       d="m 248.47228,-25737.472 7.57185,-10.913 -7.01728,-12.828 -7.57198,10.913 z"
       id="path3897" />
    <path
       style="fill:#f295e9;stroke-width:0.26458332"
       inkscape:connector-curvature="0"
       d="m 228.18134,-25749.81 7.17102,-10.693 13.67449,-0.71 -7.572,10.913 z"
       id="path3899" />
    <path
       style="clip-rule:evenodd;fill:#b28b67;fill-rule:evenodd;stroke-width:0.26458332"
       inkscape:connector-curvature="0"
       d="m 259.33052,-25762.92 c 1.09405,-0.657 2.9292,0.187 2.92788,1.126 -0.004,2.81 -2.56884,16.057 -2.70272,16.894 -0.13388,0.837 -1.56845,1.059 -1.65206,0 -0.13282,-1.68 -0.37994,-7.496 -0.13282,-10.188 0.10213,-1.111 0.21193,-2.169 0.32015,-3.113 -1.34594,2.43 -3.42742,5.911 -6.2447,10.44 l -1.52929,-0.699 c 1.20094,-3.957 2.18572,-6.75 2.95434,-8.38 1.31603,-2.791 2.54979,-5.181 3.06916,-6.023 0.81704,-1.324 2.23891,-0.862 2.99006,-0.06 z"
       id="path3901" />
    <path
       style="clip-rule:evenodd;fill:#1f28cf;fill-rule:evenodd;stroke-width:0.26458332"
       inkscape:connector-curvature="0"
       d="m 250.42623,-25750.654 5.24907,-12.435 c 1.25757,-2.023 4.78314,0.412 4.35425,1.585 -0.9734,2.664 -5.92482,11.287 -6.2148,12.08 z"
       id="path3903" />
    <path
       style="clip-rule:evenodd;fill:#e4e4e4;fill-rule:evenodd;stroke-width:0.26458332"
       inkscape:connector-curvature="0"
       d="m 250.13466,-25749.241 c -0.32676,0.269 -0.53948,0.489 -0.63791,0.66 -0.11986,0.207 -0.26008,0.529 -0.42069,0.967 0.24077,0.139 2.40295,1.387 6.48653,3.745 0.49027,-0.46 0.56674,-0.817 0.22913,-1.071 -0.33761,-0.254 -0.61595,-0.468 -0.83556,-0.643 l -2.2389,-3.084 c -0.0431,-0.06 -0.12594,-0.07 -0.18547,-0.03 -0.001,0 -0.002,0 -0.003,0 l -0.46514,0.359 c -0.42677,-0.04 -0.74533,-0.117 -0.95541,-0.238 -0.17092,-0.1 -0.36698,-0.304 -0.58817,-0.616 v 0 c -0.0849,-0.119 -0.25083,-0.147 -0.37042,-0.06 -0.005,0 -0.0101,0 -0.0151,0.01 z"
       id="path3905" />
    <path
       style="clip-rule:evenodd;fill:#e4e4e4;fill-rule:evenodd;stroke-width:0.26458332"
       inkscape:connector-curvature="0"
       d="m 257.56787,-25745.571 c -0.1487,0.396 -0.22305,0.693 -0.22305,0.89 0,0.239 0.0399,0.589 0.11986,1.048 0.27781,0 2.77442,0 7.48982,0 0.19447,-0.643 0.0823,-0.991 -0.33708,-1.042 -0.41936,-0.05 -0.76782,-0.1 -1.0451,-0.139 l -3.48112,-1.552 c -0.0669,-0.03 -0.14552,0 -0.17542,0.07 -5.3e-4,0 -10e-4,0 -0.002,0 l -0.22357,0.543 c -0.38841,0.181 -0.70379,0.271 -0.94642,0.271 -0.19738,0 -0.46963,-0.08 -0.81703,-0.238 v 0 c -0.13335,-0.06 -0.29104,0 -0.35216,0.13 -0.003,0 -0.005,0.01 -0.007,0.02 z"
       id="path3907" />
    <path
       style="clip-rule:evenodd;fill:#2b44ff;fill-rule:evenodd;stroke-width:0.26458332"
       inkscape:connector-curvature="0"
       d="m 262.62617,-25760.839 c 0,3.528 -1.67534,11.758 -1.6764,12.535 h -3.60495 c 0.52785,-7.343 0.71491,-11.054 0.56145,-11.133 -0.23019,-0.118 -9.43531,0.919 -12.19597,0.919 -3.981,0 -5.62785,-2.51 -5.76149,-7.161 h 7.88609 c 1.60576,0.172 9.98141,1.861 13.09185,2.442 1.33165,0.249 1.69942,1.425 1.69942,2.396 z"
       id="path3909" />
    <g
       style="fill:none"
       clip-path="url(#clip0)"
       id="g3915"
       transform="matrix(0.26458333,0,0,0.26458333,219.50967,-25816.695)">
      <path
         style="clip-rule:evenodd;fill:#b28b67;fill-rule:evenodd"
         inkscape:connector-curvature="0"
         d="m 80.6031,134.809 c -2.6495,-2.387 -4.6385,-5.479 -4.8693,-9.209 -0.6648,-10.747 14.4678,-10.37 18.0636,-5.378 3.5958,4.991 5.0608,18.668 1.4619,20.123 -1.4352,0.58 -4.7253,0.062 -8.2047,-1.453 l 3.9195,14.039 -11.9411,1.583 z"
         id="path3911" />
      <path
         style="clip-rule:evenodd;fill:#191847;fill-rule:evenodd"
         inkscape:connector-curvature="0"
         d="m 70.0578,122.746 c -0.4364,-0.331 -0.7191,-0.849 -0.9698,-1.343 -0.2603,-0.513 -0.5161,-1.032 -0.7158,-1.576 -0.3991,-1.086 -0.5722,-2.372 0.1109,-3.347 0.5479,-0.782 1.4671,-1.222 2.3448,-1.407 0.5847,-0.124 1.2023,-0.122 1.7933,-0.01 0.5863,0.11 1.1194,0.414 1.6943,0.57 -0.1391,-1.209 -0.0999,-2.498 0.3754,-3.609 0.4573,-1.069 1.3223,-1.749 2.3718,-2.038 1.0772,-0.297 2.1947,-0.184 3.2474,0.217 0.2635,0.101 0.5256,0.208 0.7797,0.335 0.2127,0.106 0.4368,0.238 0.673,0.261 0.2633,0.026 0.3703,-0.138 0.5116,-0.346 0.1656,-0.244 0.3593,-0.466 0.5687,-0.667 0.9258,-0.89 2.2306,-1.379 3.479,-1.084 0.5752,0.135 1.1545,0.418 1.5906,0.856 0.3888,0.391 0.7164,1.049 1.2135,1.291 0.211,0.102 0.3254,-0.086 0.4853,-0.235 0.2402,-0.224 0.4655,-0.467 0.7096,-0.686 0.3428,-0.308 0.7254,-0.556 1.1492,-0.715 0.6204,-0.233 1.5095,-0.315 1.8037,0.499 0.1104,0.305 0.1024,0.649 0.1223,0.969 0.0273,0.44 0.0532,0.88 0.0731,1.32 0.0151,0.334 0.0211,0.658 0.0017,0.99 -0.0103,0.177 -0.0716,0.513 0.0255,0.677 0.1213,0.204 0.5326,0.024 0.7163,0.007 0.3628,-0.032 0.7335,-0.017 1.0876,0.093 0.2744,0.085 0.5695,0.225 0.718,0.507 0.0912,0.173 0.0983,0.362 0.0915,0.554 -0.0083,0.229 0.051,0.343 0.1095,0.566 0.4529,-0.303 2.0619,-1.056 2.3884,-0.216 0.1087,0.28 -0.0082,0.628 -0.0981,0.888 -0.1576,0.457 -0.3868,0.885 -0.6247,1.296 -0.4961,0.857 -1.1227,1.623 -1.8164,2.299 0.9551,0.281 1.3474,1.433 0.6599,2.241 -0.3035,0.357 -0.7579,0.487 -1.1955,0.525 -0.1601,0.014 -0.3977,-0.017 -0.5193,0.028 -0.0654,0.023 -0.13,0.09 -0.2226,0.109 -0.6082,0.123 -1.3207,0.067 -1.9387,0.011 -1.1014,-0.101 -2.1807,-0.474 -3.1095,-1.135 -0.2383,-0.17 -0.4286,-0.261 -0.7136,-0.22 -0.2497,0.036 -0.486,0.137 -0.735,0.176 -0.6589,0.105 -1.2978,-0.139 -1.9402,-0.273 0.0723,0.834 -0.0427,1.779 -0.283,2.57 -0.196,0.645 -0.762,0.81 -1.3226,0.939 -1.7926,0.411 -3.6396,0.462 -5.4569,0.706 1.8122,0.164 3.6521,0.087 5.458,0.324 0.8164,0.107 0.2849,0.718 -0.0033,1.131 -0.4746,0.68 -0.7876,1.486 -0.9689,2.316 -1.0095,-1.008 -2.6288,-1.546 -3.931,-1.022 -1.4387,0.578 -2.2203,2.731 -1.076,4.053 0.6643,0.767 1.7058,0.959 2.5844,1.21 -0.5587,0.759 -0.5835,1.775 -0.8624,2.665 -0.1376,0.439 -0.3457,0.943 -0.7568,1.144 -0.1521,0.074 -0.3382,0.103 -0.4466,0.25 -0.1342,0.181 -0.1475,0.366 -0.3278,0.53 -0.7196,0.656 -1.9635,0.778 -2.7615,0.152 -0.7217,-0.566 -0.6929,-1.617 -0.2496,-2.347 -0.8915,-0.24 -2.4905,-0.489 -2.3293,-1.85 -1.8465,0.122 -6.6844,-2.258 -4.5154,-4.753 -1.4493,-0.583 -2.9349,-2.281 -2.2865,-4.037 0.4992,-1.353 1.9752,-2.124 3.2388,-2.359 z"
         id="path3913" />
    </g>
    <path
       style="clip-rule:evenodd;fill:#b28b67;fill-rule:evenodd;stroke-width:0.26458332"
       inkscape:connector-curvature="0"
       d="m 250.47756,-25767.919 4.18783,2.578 c 1.09299,0.199 2.01612,0.484 2.76965,0.855 0.18283,0.141 0.41434,0.439 -0.29236,0.444 -0.70644,0 -1.44939,0.04 -1.52559,0.294 -0.0759,0.25 0.37359,0.502 0.20558,0.845 -0.11165,0.228 -0.77523,-0.264 -1.98993,-1.475 l -4.03913,-1.296 z m -15.10882,1.399 2.58035,-0.211 c -1.14739,5.322 -1.77093,8.147 -1.87063,8.475 -0.22431,0.739 0.47345,1.774 0.78211,2.336 -0.8092,0.452 -0.84034,-0.962 -1.85949,-0.373 -0.93025,0.538 -1.59684,1.426 -2.77657,0.825 -0.14504,-0.07 -0.32361,-0.384 0.0193,-0.667 0.85429,-0.706 2.06868,-1.917 2.21443,-2.295 0.19879,-0.514 0.50229,-3.21 0.91054,-8.09 z"
       id="path3917" />
    <path
       style="clip-rule:evenodd;fill:#e87613;fill-rule:evenodd;stroke-width:0.26458332"
       inkscape:connector-curvature="0"
       d="m 241.76176,-25778.065 1.05148,-0.276 c 4.25649,3.11 6.45227,9.598 11.6082,12.693 l -1.04299,1.561 c -8.51154,-0.329 -11.29313,-8.234 -11.61669,-13.978 z"
       id="path3919" />
    <path
       style="clip-rule:evenodd;fill:#dde3e9;fill-rule:evenodd;stroke-width:0.26458332"
       inkscape:connector-curvature="0"
       d="m 238.27059,-25764.138 c 4.27971,-0.367 7.42778,-0.638 9.44419,-0.811 0.43154,-0.04 0.29634,-0.658 0.20664,-0.97 -1.03425,-3.598 -4.18362,-7.302 -4.63103,-12.512 l -2.76114,-0.197 c -1.93936,3.849 -2.33214,8.415 -2.25866,14.49 z"
       id="path3921" />
    <path
       style="clip-rule:evenodd;fill:#ff903d;fill-rule:evenodd;stroke-width:0.26458332"
       inkscape:connector-curvature="0"
       d="m 237.43625,-25774.743 c -0.4055,-0.08 -0.74179,-0.322 -1.00886,-0.722 -1.15128,-1.726 -0.87736,-2.755 0.15854,-3.174 1.03592,-0.42 2.04285,0.174 3.73819,0.03 0.0922,0 0.17717,0 0.25488,0 l 0.85701,-0.02 c 3.165,8.153 4.31898,13.675 3.46197,16.565 l -7.43334,0.639 c -0.35147,1.073 -0.69808,1.981 -1.03981,2.723 l -2.02547,0.173 c -0.72443,-6.199 0.28787,-11.6 3.03689,-16.204 z"
       id="path3923" />
    <path
       style="clip-rule:evenodd;fill:#000000;fill-opacity:0.1;fill-rule:evenodd;stroke-width:0.26458332"
       inkscape:connector-curvature="0"
       d="m 238.71445,-25765.869 c 0.40317,1.952 0.90609,3.351 1.50876,4.197 l -2.75857,0.237 c 0.41,-1.252 0.82658,-2.73 1.24981,-4.434 z"
       id="path3925" />
    <path
       style="fill:#fcb451;stroke-width:0.26458332"
       inkscape:connector-curvature="0"
       d="m 262.10759,-25779.023 8.1108,4.714 6.17352,-3.566 -8.1108,-4.711 z"
       id="path3927" />
    <path
       style="fill:#f79820;stroke-width:0.26458332"
       inkscape:connector-curvature="0"
       d="m 270.21839,-25774.309 v 0.315 l 6.1767,-3.564 -0.003,-0.317 z"
       id="path3929" />
    <path
       style="fill:#55707a;stroke-width:0.26458332"
       inkscape:connector-curvature="0"
       d="m 262.10759,-25780.585 v 1.879 l 8.1108,4.712 v -1.877 z"
       id="path3931" />
    <path
       style="fill:#f79820;stroke-width:0.26458332"
       inkscape:connector-curvature="0"
       d="m 270.21839,-25775.871 v 0.315 l 6.1767,-3.567 -0.003,-0.314 z"
       id="path3933" />
    <path
       style="fill:#627f8d;stroke-width:0.26458332"
       inkscape:connector-curvature="0"
       d="m 262.10759,-25780.585 8.1108,4.714 0.62838,-0.362 -8.11053,-4.714 z"
       id="path3935" />
    <path
       style="fill:#fcb451;stroke-width:0.26458332"
       inkscape:connector-curvature="0"
       d="m 268.28111,-25784.151 -5.54487,3.204 8.11053,4.714 5.54514,-3.204 z"
       id="path3937" />
    <path
       style="fill:#455a66;stroke-width:0.26458332"
       inkscape:connector-curvature="0"
       d="m 270.21839,-25775.871 v 1.877 l 0.33337,-0.193 v -1.879 z"
       id="path3939" />
    <path
       style="fill:#455a66;stroke-width:0.26458332"
       inkscape:connector-curvature="0"
       d="m 270.84677,-25776.233 v 0.314 l -0.62838,0.363 v -0.315 z"
       id="path3941" />
    <path
       style="fill:#455a66;stroke-width:0.26458332"
       inkscape:connector-curvature="0"
       d="m 270.21839,-25773.994 0.68606,-0.395 v -0.314 l -0.68606,0.394 z"
       id="path3943" />
    <path
       style="fill:#e6e6e6;stroke-width:0.26458332"
       inkscape:connector-curvature="0"
       d="m 275.95244,-25778.767 v -0.1 l -5.39089,3.114 v 0.933 l 0.61251,-0.353 c 0.71517,-1 2.2995,-2.132 4.77838,-3.595 z"
       id="path3945" />
    <path
       style="fill:#f2f2f2;stroke-width:0.26458332"
       inkscape:connector-curvature="0"
       d="m 275.95244,-25778.766 c -2.47888,1.465 -4.06321,2.597 -4.77838,3.594 l 4.77838,-2.754 z"
       id="path3947" />
    <path
       style="fill:#e6e7e8;stroke-width:0.26458332"
       inkscape:connector-curvature="0"
       d="m 280.81283,-25760.599 v -0.534 l -3.10885,1.72 h 0.12515 z"
       id="path3949" />
    <path
       style="fill:#f1f2f2;stroke-width:0.26458332"
       inkscape:connector-curvature="0"
       d="m 281.3338,-25760.594 v -0.495 l -3.5941,1.676 h 0.47757 z"
       id="path3951" />
    <path
       style="fill:#e6e7e8;stroke-width:0.26458332"
       inkscape:connector-curvature="0"
       d="m 281.8881,-25760.519 v -0.506 l -4.05897,1.612 h 0.38814 z"
       id="path3953" />
    <path
       style="fill:#9280ad;stroke-width:0.26458332"
       inkscape:connector-curvature="0"
       d="m 277.0576,-25759.291 h 1.15967 v 6.89 h -1.15967 z"
       id="path3955" />
    <path
       style="fill:#b09dca;stroke-width:0.26458332"
       inkscape:connector-curvature="0"
       d="m 282.84854,-25754.172 -4.63127,1.36 v -6.632 l 4.63127,-1.361 z"
       id="path3957" />
    <path
       style="fill:#f1f2f2;stroke-width:0.26458332"
       inkscape:connector-curvature="0"
       d="m 282.39398,-25760.673 v -0.293 l -4.43203,1.553 h 0.25532 z"
       id="path3959" />
    <path
       style="fill:#cccccc;stroke-width:0.26458332"
       inkscape:connector-curvature="0"
       d="m 277.63757,-25759.413 h 0.5797 v 0.122 h -0.5797 z"
       id="path3961" />
    <path
       style="fill:#e6e7e8;stroke-width:0.26458332"
       inkscape:connector-curvature="0"
       d="m 274.46495,-25760.599 v -0.534 l 3.10859,1.72 h -0.12753 z"
       id="path3963" />
    <path
       style="fill:#f1f2f2;stroke-width:0.26458332"
       inkscape:connector-curvature="0"
       d="m 273.94372,-25760.594 v -0.495 l 3.5941,1.676 h -0.48022 z"
       id="path3965" />
    <path
       style="fill:#e6e7e8;stroke-width:0.26458332"
       inkscape:connector-curvature="0"
       d="m 273.38942,-25760.519 v -0.506 l 4.05659,1.612 h -0.38841 z"
       id="path3967" />
    <path
       style="fill:#b09dca;stroke-width:0.26458332"
       inkscape:connector-curvature="0"
       d="m 272.42634,-25754.172 4.63126,1.36 v -6.632 l -4.63126,-1.361 z"
       id="path3969" />
    <path
       style="fill:#f1f2f2;stroke-width:0.26458332"
       inkscape:connector-curvature="0"
       d="m 272.88115,-25760.673 v -0.293 l 4.43204,1.553 h -0.25559 z"
       id="path3971" />
    <path
       style="fill:#cccccc;stroke-width:0.26458332"
       inkscape:connector-curvature="0"
       d="m 277.0576,-25759.413 h 0.57997 v 0.122 h -0.57997 z"
       id="path3973" />
    <path
       style="fill:#86d3f5;stroke-width:0.26458332"
       inkscape:connector-curvature="0"
       d="m 275.91884,-25734.087 -8.14256,4.73 -6.19786,-3.577 8.14255,-4.733 z"
       id="path3975" />
    <path
       style="fill:#5dc2ee;stroke-width:0.26458332"
       inkscape:connector-curvature="0"
       d="m 275.91884,-25734.087 v 0.451 l -8.14256,4.733 v -0.454 z"
       id="path3977" />
    <path
       style="fill:#36a6dd;stroke-width:0.26458332"
       inkscape:connector-curvature="0"
       d="m 267.77628,-25729.357 v 0.454 l -6.19786,-3.58 v -0.451 z"
       id="path3979" />
    <path
       style="fill:#86d3f5;stroke-width:0.26458332"
       inkscape:connector-curvature="0"
       d="m 275.91884,-25736.385 -8.14256,4.732 -6.19786,-3.58 8.14255,-4.733 z"
       id="path3981" />
    <path
       style="fill:#5dc2ee;stroke-width:0.26458332"
       inkscape:connector-curvature="0"
       d="m 275.91884,-25736.385 v 0.45 l -8.14256,4.733 v -0.451 z"
       id="path3983" />
    <path
       style="fill:#36a6dd;stroke-width:0.26458332"
       inkscape:connector-curvature="0"
       d="m 267.77628,-25731.653 v 0.451 l -6.19786,-3.58 v -0.451 z"
       id="path3985" />
    <path
       style="fill:#36a6dd;stroke-width:0.26458332"
       inkscape:connector-curvature="0"
       d="m 261.57842,-25735.233 v 2.75 l 0.38629,0.222 v -2.75 z"
       id="path3987" />
    <path
       style="fill:#d1d3d4;stroke-width:0.26458332"
       inkscape:connector-curvature="0"
       d="m 262.38646,-25732.934 5.38982,3.117 v -1.385 l -5.38982,-3.113 z"
       id="path3989" />
    <path
       style="fill:#f2f2f2;stroke-width:0.26458332"
       inkscape:connector-curvature="0"
       d="m 275.49074,-25735.687 -7.71446,4.485 v 1.385 l 7.71446,-4.521 z"
       id="path3991" />
    <path
       style="fill:#2a95bf;stroke-width:0.26458332"
       inkscape:connector-curvature="0"
       d="m 261.96471,-25732.712 0.42175,-0.222 v -1.381 l -0.42175,-0.242 z"
       id="path3993" />
    <path
       style="fill:#f8c22c;stroke-width:0.26458332"
       inkscape:connector-curvature="0"
       d="m 273.10817,-25736.537 -1.25254,0.728 -3.70258,-2.138 1.25227,-0.728 z"
       id="path3995" />
    <path
       style="fill:#ffeeb3;stroke-width:0.26458332"
       inkscape:connector-curvature="0"
       d="m 268.37504,-25737.947 1.03028,-0.599 3.4806,2.009 -1.03029,0.599 z"
       id="path3997" />
    <path
       style="fill:#455a66;stroke-width:0.26458332"
       inkscape:connector-curvature="0"
       d="m 299.13761,-25774.13 -0.25294,0.11 v 9.16 l 0.25294,-0.11 c 0.17807,-0.08 0.35639,-0.153 0.5379,-0.221 v -9.189 c -0.18468,0.08 -0.36618,0.162 -0.5379,0.25 z"
       id="path3999" />
    <path
       style="fill:#46b6ac;stroke-width:0.26458332"
       inkscape:connector-curvature="0"
       d="m 305.60403,-25775.336 c -1.98041,-0.292 -4.21376,0.214 -5.92852,0.956 v 9.189 c 1.8833,-0.723 3.92536,-0.95 5.92852,-0.655 z"
       id="path4001" />
    <path
       style="fill:#55707a;stroke-width:0.26458332"
       inkscape:connector-curvature="0"
       d="m 298.88467,-25774.02 1.08902,1.112 v 9.163 l -1.08902,-1.115 z"
       id="path4003" />
    <path
       style="fill:#e6e6e6;stroke-width:0.26458332"
       inkscape:connector-curvature="0"
       d="m 305.60403,-25774.75 -0.28522,-0.33 c -1.61423,-0.24 -4.88474,0.561 -6.22353,1.274 l 0.87841,0.901 0.2593,-0.04 -0.63844,-0.645 c 1.74386,-0.791 3.86688,-1.287 6.00948,-1.164 z"
       id="path4005" />
    <path
       style="fill:#f2f2f2;stroke-width:0.26458332"
       inkscape:connector-curvature="0"
       d="m 305.60403,-25774.75 c -2.13942,-0.123 -4.26562,0.37 -6.00948,1.161 l 0.63844,0.645 6.18146,-0.862 z"
       id="path4007" />
    <path
       style="fill:#5f808e;stroke-width:0.26458332"
       inkscape:connector-curvature="0"
       d="m 300.22664,-25773.019 -0.25295,0.111 v 9.16 l 0.25295,-0.111 c 0.20743,-0.09 0.41804,-0.178 0.63209,-0.256 v -9.16 c -0.21405,0.08 -0.42466,0.166 -0.63209,0.256 z"
       id="path4009" />
    <path
       style="fill:#73c7c0;stroke-width:0.26458332"
       inkscape:connector-curvature="0"
       d="m 306.68988,-25773.894 c -1.96744,-0.288 -3.97404,-0.07 -5.83115,0.619 v 9.16 c 1.85711,-0.693 3.86371,-0.907 5.83115,-0.619 z"
       id="path4011" />
  </g>
</svg>
