<svg xmlns="http://www.w3.org/2000/svg" fill="none" viewBox="0 0 235 235"><defs/><g clip-path="url(#clip0)"><path fill="#FF9D27" d="M116.6 187.7c-1.5-14.7-3-17.2 6.3-18.1 9.1-1 8.1 1.5 9.8 16.4a22 22 0 01-6.3 17.7s-8.7-5-9.8-16z"/><path fill="#FF9D27" d="M137.4 179c-5.9-10.1-6-12-12.5-9.4-6.4 2.5-4.6 4 1.5 13.9 4.3 7.5 12.2 9.3 12.2 9.3s3.5-6.3-1.2-13.8z"/><path fill="#FDF516" d="M125.7 177.3c-3.2-5.7-4.2-6.5-.8-7.8 3.6-1.4 3.7-.3 6.9 5.3 2.4 4 .8 7.7.8 7.7s-4.2-1-6.9-5.2z"/><path fill="#FF9D27" d="M120.7 170.2c-6.8-1.2-6.6.7-10.3 11.8a15.4 15.4 0 001.6 13.7s7.5-3.3 10.2-11.6c3.6-11.1 5.1-13-1.5-14z"/><path fill="#FDF516" d="M121.5 177.9c2-6.2 2.8-7.2-.8-7.7-3.8-.7-3.7.4-5.6 6.5-1.6 4.4.8 7.7.8 7.7s4-2 5.6-6.5z"/><path fill="#FDF516" d="M119.3 179.8c-.8-8.1-1.7-9.5 3.4-10 5.1-.6 4.6 1 5.4 9 .6 6.3-3.6 9.9-3.6 9.9s-4.4-2.9-5.2-9z"/><path fill="#3BAACF" d="M107.4 154.7A34.7 34.7 0 0068 178s-5.6-54 30.7-57.8l8.8 34.4z"/><path fill="#428BC1" d="M99.7 132.3l-1.2-11.8c-36.2 3.6-30.6 57.6-30.6 57.6s2.6-41.3 31.8-45.8z"/><path fill="#3BAACF" d="M135 151.8a34.7 34.7 0 0143.4 14.8s-5.6-54-42-50.2l-1.5 35.4z"/><path fill="#428BC1" d="M137.9 128.3l-1.2-11.7c36.3-3.8 41.9 50.2 41.9 50.2s-11.2-40-40.7-38.5z"/><path fill="#C5D0D8" d="M142.9 81.6c4.2 42.8-4.2 79.3-20.8 81-16.5 1.7-32.2-32.3-36.9-75-5.2-50 20.9-79.5 20.9-79.5s31.4 23.8 36.8 73.5z"/><path fill="#DAE3EA" d="M131.2 82.3c4.5 42.5.8 78.5-9.1 79.6-10 1-21-33.5-25.4-76-5.1-50 9.3-78.6 9.3-78.6s20 25 25.2 75z"/><path fill="#C94747" d="M136.2 158.5a3.3 3.3 0 01-3 3.7l-22 2.3a3.6 3.6 0 01-3.8-3.1l-.7-6.7 28.6-3 .9 6.8z"/><path fill="#F15744" d="M129.7 159c.2 1.9-.3 3.4-1.4 3.5l-12.5 1.3c-1.1.1-2-1.3-2.2-3.1l-.7-6.6 16.2-1.7.6 6.6z"/><path fill="#3E4347" d="M132 166.6c.1 1-1 2.5-2.1 2.6l-14.3 1.5c-1.1.1-2.2-1-2.3-2.2l-.5-4.4 18.8-2 .4 4.5z"/><path fill="#62727A" d="M129 166.9c.2 1-.6 2.5-1.3 2.5l-10 1c-.7.2-1.5-.9-1.5-2.2l-.4-4.4 12.8-1.3.5 4.4z"/><path fill="#C94747" d="M106.1 8s-9.3 10.7-15.6 30l37-3.8c-10.1-17.6-21.4-26.1-21.4-26.1z"/><path fill="#F15744" d="M106.1 8s-5.3 10.3-8.4 29.5l22.7-2.3C113.4 17 106.1 8 106.1 8z"/><path fill="#EDF4F9" d="M123.2 83.5A13 13 0 10102.9 67a13 13 0 0020.3 16.5z"/><path fill="#3BAACF" d="M119.8 80.7a8.6 8.6 0 10-13.4-10.9 8.6 8.6 0 0013.4 10.9z"/><path fill="#EDF4F9" d="M127 120.2a13 13 0 10-20.2-16.5 13 13 0 0020.2 16.5z"/><path fill="#3BAACF" d="M123.6 117.4a8.6 8.6 0 10-13.4-10.9 8.6 8.6 0 0013.4 10.9z"/><path fill="#fff" d="M94.4 42c.1 1-.9 2.3-2 2.4-1 0-2.3-.9-2.4-2-.1-1.1.9-2.3 2-2.4 1-.2 2.3.8 2.4 2zM102.3 42.6A2 2 0 1099 40a2 2 0 003.3 2.6zM111 41.7a2 2 0 10-3.2-2.6 2 2 0 003.3 2.6zM119.7 41a2 2 0 10-3.2-2.7 2 2 0 003.2 2.7zM128.3 39.9a2 2 0 10-3.2-2.6 2 2 0 003.2 2.6z"/></g><defs><clipPath id="clip0"><path fill="#fff" d="M0 129.6h167v167H0z" transform="rotate(-51 0 129.6)"/></clipPath></defs></svg>