<?xml version="1.0" encoding="UTF-8" standalone="no"?>
<svg xmlns="http://www.w3.org/2000/svg" 
    xmlns:xlink="http://www.w3.org/1999/xlink" style="isolation:isolate" viewBox="0 0 2000 2000">
    <switch>
        <g id="Group">
            <circle vector-effect="non-scaling-stroke" cx="600" cy="600" r="480.68181818181847" id="innerGauge" fill="none" stroke-width="3" stroke="rgb(154,185,229)" stroke-linejoin="miter" stroke-linecap="butt" stroke-miterlimit="4"/>
            <path d=" M 645.14 477.558 C 664.613 477.558 680.544 461.233 680.544 441.279 C 680.544 421.326 664.613 405 645.14 405 C 625.668 405 609.737 421.326 609.737 441.279 C 609.737 461.233 625.668 477.558 645.14 477.558 Z  M 581.413 729.698 L 599.115 649.884 L 636.29 686.163 L 636.29 795 L 671.693 795 L 671.693 658.953 L 634.518 622.674 L 645.14 568.256 C 668.153 595.466 703.555 613.605 742.5 613.605 L 742.5 577.326 C 708.867 577.326 680.544 559.187 666.382 533.791 L 648.68 504.767 C 641.6 493.884 630.978 486.628 618.587 486.628 C 613.277 486.628 609.737 488.442 604.425 488.442 L 512.376 528.349 L 512.376 613.605 L 547.779 613.605 L 547.779 551.93 L 579.643 539.233 L 551.32 686.163 L 464.581 668.024 L 457.5 704.303 L 581.413 729.698 Z " id="Compound Path" fill="rgb(255,255,255)"/>
            <circle vector-effect="non-scaling-stroke" cx="599.4625156614181" cy="599.3181813943916" r="479.99999957741056" id="outerGauge" fill="none" stroke-width="6" stroke="rgb(255,255,255)" stroke-linejoin="miter" stroke-linecap="butt" stroke-miterlimit="4"/>
        </g>
    </switch>
</svg>