<?xml version="1.0" encoding="UTF-8" standalone="no"?>
<svg xmlns="http://www.w3.org/2000/svg" 
    xmlns:xlink="http://www.w3.org/1999/xlink" style="isolation:isolate" viewBox="0 0 2000 2000">
    <switch>
        <g id="Group">
            <circle vector-effect="non-scaling-stroke" cx="600" cy="600" r="480.68181818181847" id="innerGauge" fill="none" stroke-width="3" stroke="rgb(154,185,229)" stroke-linejoin="miter" stroke-linecap="butt" stroke-miterlimit="4"/>
            <path d=" M 600 119.318 C 747.386 119.318 879.369 185.795 967.573 290.376" id="outerGauge" fill="none" vector-effect="non-scaling-stroke" stroke-width="6" stroke="rgb(255,255,255)" stroke-linejoin="miter" stroke-linecap="butt" stroke-miterlimit="4"/>
            <path d=" M 758.888 477.188 L 784.219 477.188 C 787.546 477.188 790.424 478.403 792.854 480.833 C 795.285 483.264 796.5 486.143 796.5 489.469 C 796.5 492.795 795.285 495.673 792.854 498.104 C 790.424 500.535 787.546 501.75 784.219 501.75 L 735.094 501.75 C 731.767 501.75 728.889 500.535 726.458 498.104 C 724.028 495.673 722.813 492.795 722.813 489.469 C 722.813 486.143 724.091 483.2 726.65 480.642 L 760.424 428.063 L 735.094 428.063 C 731.767 428.063 728.889 426.911 726.458 424.608 C 724.028 422.306 722.813 419.427 722.813 415.973 C 722.813 412.519 724.028 409.577 726.458 407.146 C 728.889 404.715 731.767 403.5 735.094 403.5 L 784.219 403.5 C 787.289 403.5 790.103 404.971 792.662 407.914 C 795.221 410.856 796.5 413.479 796.5 415.781 C 796.5 418.084 795.477 420.898 793.43 424.225 L 758.888 477.188 Z  M 698.25 501.75 C 698.25 508.147 700.744 513.839 705.734 518.829 C 710.723 523.818 716.416 526.313 722.813 526.313 L 781.917 526.313 C 791.639 550.107 796.5 574.67 796.5 600 C 796.5 626.609 791.318 652.068 780.957 676.374 C 770.594 700.681 756.65 721.597 739.124 739.124 C 721.597 756.65 700.681 770.594 676.374 780.957 C 652.068 791.318 626.609 796.5 600 796.5 C 573.391 796.5 547.933 791.318 523.626 780.957 C 499.319 770.594 478.403 756.65 460.876 739.124 C 443.35 721.597 429.406 700.681 419.043 676.374 C 408.681 652.068 403.5 626.609 403.5 600 C 403.5 573.391 408.681 547.933 419.043 523.626 C 429.406 499.319 443.35 478.403 460.876 460.876 C 478.403 443.35 499.319 429.406 523.626 419.043 C 547.933 408.681 573.391 403.5 600 403.5 C 645.287 403.5 685.84 417.7 721.661 446.101 L 710.531 464.906 C 707.717 467.721 704.966 472.518 702.28 479.298 C 699.594 486.079 698.25 493.562 698.25 501.75 Z  M 526.313 575.438 C 512.752 575.438 501.174 579.02 491.58 586.183 C 481.985 593.348 477.188 602.047 477.188 612.281 C 477.188 616.119 478.211 620.212 480.258 624.563 C 483.584 617.398 489.469 611.513 497.912 606.908 C 506.356 602.302 515.822 600 526.313 600 C 536.803 600 546.269 602.302 554.713 606.908 C 563.156 611.513 569.041 617.398 572.368 624.563 C 574.414 620.469 575.438 616.374 575.438 612.281 C 575.438 602.047 570.64 593.348 561.046 586.183 C 551.451 579.02 539.873 575.438 526.313 575.438 Z  M 550.875 723.004 C 550.875 729.785 555.673 735.541 565.266 740.275 C 574.862 745.008 586.44 747.375 600 747.375 C 613.56 747.375 625.138 745.008 634.734 740.275 C 644.327 735.541 649.125 729.785 649.125 723.004 C 649.125 716.224 644.327 710.403 634.734 705.542 C 625.138 700.681 613.56 698.25 600 698.25 C 586.44 698.25 574.862 700.681 565.266 705.542 C 555.673 710.403 550.875 716.224 550.875 723.004 Z  M 624.563 612.281 C 624.563 616.374 625.586 620.469 627.632 624.563 C 630.959 617.398 636.844 611.513 645.287 606.908 C 653.731 602.302 663.197 600 673.688 600 C 684.178 600 693.644 602.302 702.088 606.908 C 710.531 611.513 716.416 617.398 719.743 624.563 C 721.789 620.469 722.813 616.374 722.813 612.281 C 722.813 602.047 718.015 593.348 708.421 586.183 C 698.826 579.02 687.248 575.438 673.688 575.438 C 660.127 575.438 648.549 579.02 638.954 586.183 C 629.36 593.348 624.563 602.047 624.563 612.281 Z " id="Compound Path" fill="rgb(255,255,255)"/>
        </g>
    </switch>
</svg>