<?xml version="1.0" encoding="UTF-8" standalone="no"?><!-- Generator: Gravit.io --><svg xmlns="http://www.w3.org/2000/svg" xmlns:xlink="http://www.w3.org/1999/xlink" style="isolation:isolate" viewBox="0 0 1000 1000" width="1000pt" height="1000pt"><path d=" M 499.423 499.432 L 50.005 498.865 C 50.309 375.34 100.491 263.444 181.475 182.285 L 499.423 499.432 L 499.423 499.432 Z " fill="rgb(153,0,255)" vector-effect="non-scaling-stroke" stroke-width="1" stroke="rgb(153,0,255)" stroke-linejoin="miter" stroke-linecap="square" stroke-miterlimit="3"/><path d=" M 500.724 499.886 L 500.723 499.891 L 50.163 497.266 L 50.163 497.266 C 49.594 622.346 100.22 735.807 182.355 817.763 L 500.723 499.891 L 500.724 499.886 Z " fill="rgb(153,0,255)" vector-effect="non-scaling-stroke" stroke-width="1" stroke="rgb(153,0,255)" stroke-linejoin="miter" stroke-linecap="square" stroke-miterlimit="3"/><path d=" M 499.433 499.998 L 499.999 950 L 499.999 950 C 375.572 950 262.872 899.39 181.394 817.635 L 499.433 499.998 L 499.433 499.998 Z " fill="rgb(153,0,255)" vector-effect="non-scaling-stroke" stroke-width="1" stroke="rgb(153,0,255)" stroke-linejoin="miter" stroke-linecap="square" stroke-miterlimit="3"/><path d=" M 499.712 499.72 L 818.519 817.722 L 818.519 817.722 C 737.047 899.426 624.383 950 500 950 L 499.999 950 C 499.999 950 500 950 499.999 950 L 499.433 499.998 L 499.712 499.72 L 499.712 499.72 Z " fill="rgb(153,0,255)" vector-effect="non-scaling-stroke" stroke-width="1" stroke="rgb(153,0,255)" stroke-linejoin="miter" stroke-linecap="square" stroke-miterlimit="3"/><path d=" M 499.999 499.433 L 950 500 L 950 500 C 950 623.979 899.755 736.314 818.519 817.722 L 818.519 817.722 L 499.716 499.715 L 499.999 499.433 L 499.999 499.433 Z " fill="rgb(153,0,255)" vector-effect="non-scaling-stroke" stroke-width="1" stroke="rgb(153,0,255)" stroke-linejoin="miter" stroke-linecap="square" stroke-miterlimit="3"/><path d=" M 499.433 499.432 L 499.433 499.427 L 950 500 L 950 500 C 950 374.919 898.857 261.689 816.35 180.109 L 499.433 499.427 L 499.433 499.432 Z " fill="rgb(153,0,255)" vector-effect="non-scaling-stroke" stroke-width="1" stroke="rgb(153,0,255)" stroke-linejoin="miter" stroke-linecap="square" stroke-miterlimit="3"/><path d=" M 499.433 499.427 L 498.868 50.005 C 499.245 50 499.622 50 500 50 C 623.281 50 735.05 99.682 816.35 180.109 L 499.433 499.427 L 499.433 499.427 Z " fill="rgb(153,0,255)" vector-effect="non-scaling-stroke" stroke-width="1" stroke="rgb(153,0,255)" stroke-linejoin="miter" stroke-linecap="square" stroke-miterlimit="3"/></svg>