<svg xmlns="http://www.w3.org/2000/svg" fill="none" viewBox="0 0 22 58"><defs/><path fill="#84dbff" d="M20.9 41.2c-.2-2.7-.9-5.2-1.8-7.7-1.2-3-.9-7.2.8-9.5a6.8 6.8 0 001.2-4c-.1-9.3-5-11.5-6.4-11.9-.2-.1-.5-.3-.6-.6-.4-.6-.5-1.3-.6-2-.1-.7-.7-1.1-1.3-1.1l-1.2.1-1.2-.1c-.6 0-1.2.4-1.3 1.1-.1.7-.2 1.4-.6 2-.1.3-.4.5-.6.6C5.9 8.5 1 10.7.9 20c0 1.5.4 2.9 1.2 4 1.7 2.3 2 6.5.8 9.5-.9 2.5-1.6 5-1.8 7.7a86 86 0 00-.3 14.3c0 1.9 2.8 3.5 9.6 3.5 6.9 0 10.8-1.6 10.8-3.5.4-4 .1-10-.3-14.3z"/><path fill="#003879" d="M11 1c-1.7 0-3.2.5-3.2 1.1v3.2c0 .6 1.5 1.1 3.2 1.1 1.7 0 3.2-.5 3.2-1.1V2.1c0-.6-1.5-1.1-3.2-1.1z"/></svg>