<svg xmlns="http://www.w3.org/2000/svg" fill="none" viewBox="0 0 22 58"><defs/><path fill="#FFF" d="M20.9 41.2c-.2-2.7-.9-5.2-1.8-7.7-1.2-3-.9-7.2.8-9.5a6.8 6.8 0 001.2-4c-.1-9.3-5-11.5-6.4-11.9-.2-.1-.5-.3-.6-.6-.4-.6-.5-1.3-.6-2-.1-.7-.7-1.1-1.3-1.1l-1.2.1-1.2-.1c-.6 0-1.2.4-1.3 1.1-.1.7-.2 1.4-.6 2-.1.3-.4.5-.6.6C5.9 8.5 1 10.7.9 20c0 1.5.4 2.9 1.2 4 1.7 2.3 2 6.5.8 9.5-.9 2.5-1.6 5-1.8 7.7a86 86 0 00-.3 14.3c0 1.9 2.8 3.5 9.6 3.5 6.9 0 10.8-1.6 10.8-3.5.4-4 .1-10-.3-14.3z"/><path fill="#84DBFF" d="M20.9 41.2a26.3 26.3 0 00-1.8-7.7 12 12 0 01-.7-5c.1-1.7.6-3.3 1.5-4.5a6 6 0 00.9-1.8c.2-.7.3-1.4.3-2.2-.1-4.6-.3-3.7-.4-3.7-.3.1-17.2.9-19.3.2-.2-.1-.4-1.1-.5 3.5 0 .8.1 1.5.3 2.2.2.6.5 1.3.9 1.8a8.3 8.3 0 011.5 4.5 12 12 0 01-.7 5l-1.2 3.8-.6 3.9a80.3 80.3 0 00-.3 14.3c0 1 .7 1.8 2.3 2.5 1.5.6 3.9 1 7.3 1 3.5 0 6.2-.4 8-1 1.8-.7 2.8-1.5 2.8-2.5a80.3 80.3 0 00-.3-14.3z"/><path fill="#003879" d="M11 1c-1.7 0-3.2.5-3.2 1.1v3.2c0 .6 1.5 1.1 3.2 1.1 1.7 0 3.2-.5 3.2-1.1V2.1c0-.6-1.5-1.1-3.2-1.1z"/></svg>