<svg viewBox=".6 1 20.8 58" xmlns="http://www.w3.org/2000/svg"><path d="M20.9 41.2c-.2-2.7-.9-5.2-1.8-7.7-1.2-3-.9-7.2.8-9.5.8-1.1 1.2-2.5 1.2-4-.1-9.3-5-11.5-6.4-11.9-.2-.1-.5-.3-.6-.6-.4-.6-.5-1.3-.6-2-.1-.7-.7-1.1-1.3-1.1-.4.1-.8.1-1.2.1-.4 0-.8 0-1.2-.1-.6 0-1.2.4-1.3 1.1-.1.7-.2 1.4-.6 2-.1.3-.4.5-.6.6C5.9 8.5 1 10.7.9 20c0 1.5.4 2.9 1.2 4 1.7 2.3 2 6.5.8 9.5-.9 2.5-1.6 5-1.8 7.7C.7 45.5.4 51.5.8 55.5c0 1.9 2.8 3.5 9.6 3.5 6.9 0 10.8-1.6 10.8-3.5.4-4 .1-10-.3-14.3z" fill="#FFF"/><path d="M20.9 41.2c-.1-1.3-.3-2.6-.6-3.9-.3-1.3-.7-2.5-1.2-3.8-.6-1.5-.8-3.3-.7-5 .1-1.7.6-3.3 1.5-4.5.4-.5-18.7-1.7-17.8 0 .7 1.3 1.4 2.8 1.5 4.5.1 1.7-.1 3.5-.7 5-.4 1.3-.8 2.5-1.2 3.8-.3 1.3-.5 2.6-.6 3.9-.2 2.2-.4 4.7-.4 7.3-.1 2.5-.1 5 .1 7 0 1 .7 1.8 2.3 2.5 1.5.6 3.9 1 7.3 1 3.5 0 6.2-.4 8-1 1.8-.7 2.8-1.5 2.8-2.5.2-2 .2-4.5.1-7 0-2.6-.2-5.1-.4-7.3z" fill="#84DBFF"/><path d="M11 1c-1.7 0-3.2.5-3.2 1.1v3.2c0 .6 1.5 1.1 3.2 1.1 1.7 0 3.2-.5 3.2-1.1V2.1c0-.6-1.5-1.1-3.2-1.1z" fill="#003879"/></svg>