<?xml version="1.0" encoding="UTF-8" standalone="no"?>
<svg
   xmlns:dc="http://purl.org/dc/elements/1.1/"
   xmlns:cc="http://creativecommons.org/ns#"
   xmlns:rdf="http://www.w3.org/1999/02/22-rdf-syntax-ns#"
   xmlns:svg="http://www.w3.org/2000/svg"
   xmlns="http://www.w3.org/2000/svg"
   xmlns:sodipodi="http://sodipodi.sourceforge.net/DTD/sodipodi-0.dtd"
   xmlns:inkscape="http://www.inkscape.org/namespaces/inkscape"
   id="aaa444b1-ec30-4a51-a2af-6b879f86a07d"
   data-name="Layer 1"
   width="487.82031"
   height="719.1228"
   viewBox="0 0 487.82031 719.12281"
   version="1.1"
   sodipodi:docname="water.svg"
   inkscape:version="0.92.4 (5da689c313, 2019-01-14)">
  <metadata
     id="metadata113">
    <rdf:RDF>
      <cc:Work
         rdf:about="">
        <dc:format>image/svg+xml</dc:format>
        <dc:type
           rdf:resource="http://purl.org/dc/dcmitype/StillImage" />
        <dc:title>energizer</dc:title>
      </cc:Work>
    </rdf:RDF>
  </metadata>
  <defs
     id="defs111" />
  <sodipodi:namedview
     pagecolor="#ffffff"
     bordercolor="#666666"
     borderopacity="1"
     objecttolerance="10"
     gridtolerance="10"
     guidetolerance="10"
     inkscape:pageopacity="0"
     inkscape:pageshadow="2"
     inkscape:window-width="1920"
     inkscape:window-height="1057"
     id="namedview109"
     showgrid="false"
     fit-margin-top="0"
     fit-margin-left="0"
     fit-margin-right="0"
     fit-margin-bottom="0"
     inkscape:zoom="0.86825505"
     inkscape:cx="454.62562"
     inkscape:cy="432.38197"
     inkscape:window-x="-8"
     inkscape:window-y="-8"
     inkscape:window-maximized="1"
     inkscape:current-layer="aaa444b1-ec30-4a51-a2af-6b879f86a07d" />
  <title
     id="title2">energizer</title>
  <path
     d="m 237.05338,109.96084 c 0,0 5.94383,27.34161 -14.26519,38.0405 0,0 4.75506,60.627 35.663,61.81581 30.90794,1.18881 30.9079,-32.09667 30.9079,-32.09667 l -4.75506,-17.83149 c 0,0 -22.58654,-13.07642 -8.32136,-38.0405 z"
     id="path6"
     inkscape:connector-curvature="0"
     style="fill:#a0616a" />
  <circle
     cx="262.61185"
     cy="68.948418"
     r="55.871979"
     id="circle8"
     style="fill:#2f2e41" />
  <polygon
     points="361.323,286.829 361.323,353.4 459.99,349.834 452.857,284.452 "
     id="polygon10"
     style="fill:#a0616a"
     transform="translate(-157.5546,-49.67068)" />
  <circle
     cx="263.20624"
     cy="93.3181"
     r="35.662971"
     id="circle12"
     style="fill:#a0616a" />
  <path
     d="m 219.22189,148.00134 c 0,0 -20.209,-3.5663 -27.3416,0 -7.1326,3.5663 -15.454,2.37753 -23.77532,36.85173 l -15.454,71.32594 c 0,0 -2.37753,21.39778 15.454,19.02024 17.83153,-2.37754 16.64272,-33.28543 16.64272,-33.28543 l 11.88766,-27.34161 21.39778,-23.77531 z"
     id="path14"
     inkscape:connector-curvature="0"
     style="fill:#a0616a" />
  <path
     d="m 286.98153,162.26652 c 0,0 28.53038,3.5663 30.90791,19.02025 2.37753,15.45395 -10.69889,78.45853 -10.69889,78.45853 l -20.209,-20.209 10.69887,-39.22924 z"
     id="path16"
     inkscape:connector-curvature="0"
     style="fill:#a0616a" />
  <path
     d="m 213.87245,147.40695 0.59438,21.99217 -16.6427,35.66294 3.5663,43.98433 95.38867,0.28742 -0.28742,-20.49643 c 0,0 13.07642,-16.64272 5.94383,-30.90791 -7.13259,-14.26519 -12.482,-36.25735 -12.482,-36.25735 l -9.51013,-5.94383 c 0,0 16.04834,37.44612 -17.2371,31.50229 -33.28544,-5.94383 -35.06858,-43.38994 -35.06858,-43.38994 z"
     id="path18"
     inkscape:connector-curvature="0"
     style="fill:#d0cde1" />
  <path
     d="m 185.93646,386.94322 -16.64272,93.91248 -19.02025,136.708 -8.32136,15.454 7.13259,15.45395 20.209,-9.51012 8.32141,-36.85174 c 0,0 28.53037,-34.4742 23.77531,-78.45853 l 51.11689,-122.44285 z"
     id="path20"
     inkscape:connector-curvature="0"
     style="fill:#a0616a" />
  <path
     d="m 267.96128,396.45335 11.88766,116.499 c 0,0 -2.37753,32.09667 4.75506,60.627 7.13259,28.53033 11.88766,78.45853 11.88766,78.45853 h 23.77531 l -4.75506,-146.21817 15.454,-118.87656 z"
     id="path22"
     inkscape:connector-curvature="0"
     style="fill:#a0616a" />
  <path
     d="m 251.31857,289.46444 c 0,0 -49.92816,-3.56629 -49.92816,2.37753 v 11.88766 c 0,0 -9.51012,15.45395 -8.32136,29.71914 1.18876,14.26519 -45.17309,46.36186 -15.45395,60.627 29.71914,14.26514 68.9484,19.02025 74.89223,14.26519 5.94383,-4.75506 9.51013,-23.77531 9.51013,-23.77531 0,0 0,21.39778 10.69889,22.58655 10.69889,1.18877 74.89223,-11.88766 74.89223,-22.58655 0,-10.69889 -47.57226,-106.39471 -47.57226,-106.39471 0,0 -34.45257,12.48227 -48.71775,11.2935 z"
     id="path24"
     inkscape:connector-curvature="0"
     style="fill:#2f2e41" />
  <path
     d="m 147.89596,634.20646 c 0,0 -4.75506,-8.32135 -9.51013,-2.37753 -4.75507,5.94382 -22.58654,20.209 -22.58654,20.209 0,0 -43.984326,11.88767 -14.26516,29.71913 0,0 26.15284,0 36.85173,-8.32136 10.69889,-8.32136 21.39778,-4.75506 21.39778,-4.75506 0,0 16.64272,-1.18877 17.83149,-8.32136 1.18877,-7.13259 -6.22745,-30.67081 -6.22745,-30.67081 0,0 -8.03777,10.46182 -23.49172,4.51799 z"
     id="path26"
     inkscape:connector-curvature="0"
     style="fill:#2f2e41" />
  <path
     d="m 306.00178,641.33906 c 0,0 -14.26518,-3.5663 -14.26518,0 0,3.5663 -20.209,24.96408 -3.5663,34.4742 16.6427,9.51012 19.02025,7.13259 20.209,16.64272 1.18875,9.51013 32.09667,16.64272 36.85174,10.69889 4.75507,-5.94383 8.32136,-16.64272 2.37753,-21.39778 -5.94383,-4.75506 -24.96408,-34.4742 -24.96408,-40.418 0,-5.9438 -16.64271,-3e-5 -16.64271,-3e-5 z"
     id="path28"
     inkscape:connector-curvature="0"
     style="fill:#2f2e41" />
  <ellipse
     cx="277.18686"
     cy="177.80583"
     rx="4.1733298"
     ry="2.0866599"
     id="ellipse30"
     style="fill:#3f3d56" />
  <ellipse
     cx="277.6611"
     cy="182.2637"
     rx="8.5363503"
     ry="4.3630199"
     id="ellipse32"
     style="fill:#00ffff" />
  <rect
     x="267.22778"
     y="184.91945"
     width="20.48724"
     height="14.98603"
     id="rect34"
     style="fill:#00ffff" />
  <rect
     x="253.0954"
     y="208.34698"
     width="48.56234"
     height="73.412598"
     id="rect36"
     style="fill:#00ffff" />
  <path
     d="m 303.83924,207.49336 c 0,7.2289 -11.91005,4.74242 -26.36783,4.74242 -14.45778,0 -26.74723,2.29678 -26.74723,-4.93211 0,-7.22889 12.28944,-14.79634 26.74723,-14.79634 14.45779,0 26.36783,7.75714 26.36783,14.98603 z"
     id="path38"
     inkscape:connector-curvature="0"
     style="fill:#00ffff" />
  <rect
     x="251.29327"
     y="215.2709"
     width="52.545971"
     height="5.6908998"
     id="rect40"
     style="fill:#3f3d56" />
  <rect
     x="251.67267"
     y="270.28296"
     width="52.545971"
     height="5.6908998"
     id="rect42"
     style="fill:#3f3d56" />
  <rect
     x="251.29327"
     y="245.62238"
     width="52.545971"
     height="11.3818"
     id="rect44"
     style="fill:#3f3d56" />
  <path
     d="m 303.45985,279.19869 c 0,2.40963 0.765,9.29514 -25.41935,9.29514 -29.59268,0 -27.12662,-7.2649 -27.12662,-9.67453 0,-2.40963 13.0879,0.94848 27.12662,0.94848 14.03872,0 25.41935,-2.97872 25.41935,-0.56909 z"
     id="path46"
     inkscape:connector-curvature="0"
     style="fill:#00ffff" />
  <rect
     x="265.14111"
     y="182.2637"
     width="24.28117"
     height="8.1569595"
     id="rect48"
     style="fill:#3f3d56" />
  <rect
     x="255.37177"
     y="225.79907"
     width="3.2248399"
     height="17.83148"
     id="rect50"
     style="opacity:0.1;fill:#ffffff" />
  <rect
     x="255.37177"
     y="259.75476"
     width="3.2248399"
     height="6.63938"
     id="rect52"
     style="opacity:0.1;fill:#ffffff" />
  <path
     d="m 311.94561,245.48011 c 0,0 -22.58655,-29.71913 -21.39778,-8.32135 1.18877,21.39778 14.26519,32.09667 16.64272,32.09667 2.37753,0 11.88765,-2.37753 4.75506,-23.77532 z"
     id="path54"
     inkscape:connector-curvature="0"
     style="fill:#a0616a" />
  <path
     d="m 203.76794,268.37334 c 1.78315,0.2877 30.31352,-10.41119 30.31352,-10.41119 l 17.83149,-2.37753 -48.145,20.13413 z"
     id="path56"
     inkscape:connector-curvature="0"
     style="opacity:0.1" />
  <path
     d="m 166.91621,247.85765 c 0,0 9.51012,-5.94383 28.53037,-3.5663 l 36.85174,-9.51013 c 0,0 34.4742,-20.209 47.55062,4.75507 13.07642,24.96407 -48.73939,16.64277 -48.73939,16.64277 0,0 -41.6068,33.28543 -66.57087,15.454 z"
     id="path58"
     inkscape:connector-curvature="0"
     style="fill:#a0616a" />
  <path
     d="m 262.61184,42.79558 c -19.69611,0 -35.663,9.314 -35.663,20.803397 0,5.14084 3.20946,9.83924 8.50725,13.469 l 6.86551,-4.97454 -1.867,7.79322 c 0.77468,0.359 1.5657,0.70648 2.39074,1.02761 l 10.25636,-11.9658 v 14.7 a 59.86944,59.86944 0 0 0 9.51013,0.75394 c 19.69611,0 35.663,-9.314 35.663,-20.8034 0,-11.489397 -15.96688,-20.803427 -35.66299,-20.803427 z"
     id="path68"
     inkscape:connector-curvature="0"
     style="fill:#2f2e41" />
  <circle
     cx="53.361221"
     cy="541.51074"
     r="18.564421"
     id="circle88"
     style="fill:#3f3d56" />
  <ellipse
     cx="-508.94623"
     cy="179.84283"
     rx="9.2822371"
     ry="4.2192025"
     transform="rotate(-74.909807)"
     id="ellipse90"
     style="fill:#ffffff;stroke-width:1.00000286" />
  <circle
     cx="141.76001"
     cy="112.88808"
     r="29.789061"
     id="circle92"
     style="fill:#3f3d56" />
  <ellipse
     cx="121.44928"
     cy="112.88808"
     rx="6.7702398"
     ry="14.89453"
     id="ellipse94"
     style="fill:#ffffff" />
  <circle
     cx="369.26028"
     cy="238.69452"
     r="29.789061"
     id="circle96"
     style="fill:#000000" />
  <ellipse
     cx="159.01971"
     cy="389.61728"
     rx="14.89453"
     ry="6.7702398"
     transform="rotate(-35.91853)"
     id="ellipse98"
     style="fill:#ffffff" />
  <circle
     cx="408.83096"
     cy="460.31158"
     r="18.564421"
     id="circle104"
     style="fill:#3f3d56" />
  <ellipse
     cx="61.057941"
     cy="599.961"
     rx="9.2822104"
     ry="4.2191901"
     transform="rotate(-35.91853)"
     id="ellipse106"
     style="fill:#ffffff" />
</svg>
