<?xml version="1.0" encoding="UTF-8" standalone="no"?><!-- Generator: Gravit.io --><svg xmlns="http://www.w3.org/2000/svg" xmlns:xlink="http://www.w3.org/1999/xlink" style="isolation:isolate" viewBox="0 0 59 59" width="59pt" height="59pt"><circle vector-effect="non-scaling-stroke" cx="29.5" cy="29.5" r="29.5" fill="rgb(196,196,196)"/><path d=" M 29.5 12.643 C 20.19 12.643 12.643 20.19 12.643 29.5 C 12.643 38.81 20.19 46.357 29.5 46.357 C 38.81 46.357 46.357 38.81 46.357 29.5 C 46.357 20.19 38.81 12.643 29.5 12.643 Z  M 29.5 15.906 C 37.013 15.906 43.094 21.986 43.094 29.5 C 43.094 31.844 42.503 34.048 41.46 35.972 C 40.549 34.178 38.91 32.74 36.88 32.127 C 37.806 30.711 38.302 29.056 38.302 27.325 C 38.302 22.46 34.365 18.522 29.5 18.522 C 24.635 18.522 20.698 22.459 20.698 27.325 C 20.698 29.056 21.194 30.711 22.12 32.127 C 20.093 32.74 18.452 34.175 17.539 35.972 C 16.497 34.048 15.906 31.844 15.906 29.5 C 15.906 21.987 21.986 15.906 29.5 15.906 Z  M 24.062 27.325 C 24.062 24.322 26.497 21.887 29.5 21.887 C 32.503 21.887 34.938 24.322 34.938 27.325 C 34.938 30.328 32.503 32.763 29.5 32.763 C 26.497 32.763 24.062 30.328 24.062 27.325 Z  M 19.989 39.216 C 20.092 36.905 21.998 35.063 24.334 35.063 L 25.297 35.063 C 27.903 36.483 31.098 36.483 33.703 35.063 L 34.666 35.063 C 37.002 35.063 38.908 36.905 39.011 39.216 C 33.727 44.39 25.27 44.387 19.989 39.216 Z " fill="rgb(82,82,82)"/></svg>