<?xml version="1.0" encoding="UTF-8" standalone="no"?>
<svg
   xmlns:dc="http://purl.org/dc/elements/1.1/"
   xmlns:cc="http://creativecommons.org/ns#"
   xmlns:rdf="http://www.w3.org/1999/02/22-rdf-syntax-ns#"
   xmlns:svg="http://www.w3.org/2000/svg"
   xmlns="http://www.w3.org/2000/svg"
   xmlns:sodipodi="http://sodipodi.sourceforge.net/DTD/sodipodi-0.dtd"
   xmlns:inkscape="http://www.inkscape.org/namespaces/inkscape"
   id="ae078c60-54bd-436d-9521-059685d2198b"
   data-name="Layer 1"
   width="1030.47472"
   height="865.22829"
   viewBox="0 0 1030.47472 865.22829"
   version="1.1"
   sodipodi:docname="refresh.svg"
   inkscape:version="0.92.4 (5da689c313, 2019-01-14)">
  <metadata
     id="metadata83">
    <rdf:RDF>
      <cc:Work
         rdf:about="">
        <dc:format>image/svg+xml</dc:format>
        <dc:type
           rdf:resource="http://purl.org/dc/dcmitype/StillImage" />
      </cc:Work>
    </rdf:RDF>
  </metadata>
  <defs
     id="defs81">
    <clipPath
       clipPathUnits="userSpaceOnUse"
       id="clipPath913">
      <rect
         style="opacity:1;fill:#63b7ff;fill-opacity:1;stroke:#000000;stroke-width:0.12030853;stroke-linecap:butt;stroke-miterlimit:1;stroke-dasharray:none;stroke-dashoffset:0;stroke-opacity:1"
         id="rect915"
         width="52.085472"
         height="42.105022"
         x="386.31451"
         y="501.50497"
         ry="0" />
    </clipPath>
  </defs>
  <sodipodi:namedview
     pagecolor="#ffffff"
     bordercolor="#666666"
     borderopacity="1"
     objecttolerance="10"
     gridtolerance="10"
     guidetolerance="10"
     inkscape:pageopacity="0"
     inkscape:pageshadow="2"
     inkscape:window-width="1920"
     inkscape:window-height="1057"
     id="namedview79"
     showgrid="false"
     inkscape:zoom="0.77148288"
     inkscape:cx="254.40372"
     inkscape:cy="552.01849"
     inkscape:window-x="-8"
     inkscape:window-y="-8"
     inkscape:window-maximized="1"
     inkscape:current-layer="ae078c60-54bd-436d-9521-059685d2198b" />
  <title
     id="title2">healthy_options</title>
  <path
     d="m 359.22545,543.38585 c -2.77441,0 -5.57715,-0.0439 -8.32812,-0.12988 l 0.0625,-1.99805 c 3.95019,0.12305 7.98144,0.15723 11.95019,0.10254 l 0.0273,2 c -1.23535,0.0166 -2.47266,0.0251 -3.71191,0.0254 z m 15.74512,-0.46386 -0.11719,-1.9961 c 3.95605,-0.2334 7.96289,-0.56152 11.90918,-0.97461 l 0.209,1.98829 c -3.97656,0.41699 -8.01369,0.74804 -12.00099,0.98243 z m -36.09571,-0.31153 c -3.98925,-0.30566 -8.0205,-0.70605 -11.98242,-1.19238 l 0.24414,-1.98437 c 3.93164,0.48144 7.93164,0.87988 11.89063,1.18261 z m 60.03907,-2.19922 -0.29981,-1.97656 c 3.93067,-0.59668 7.8916,-1.28906 11.76953,-2.05957 l 0.38965,1.96094 c -3.9082,0.77637 -7.89844,1.47461 -11.85937,2.07519 z m -83.93506,-0.73144 c -3.94092,-0.668 -7.91895,-1.43555 -11.82324,-2.2832 l 0.42431,-1.95508 c 3.87451,0.8418 7.82178,1.60351 11.73291,2.26562 z m 107.54834,-3.96191 -0.48047,-1.94141 c 3.8584,-0.9541 7.73828,-2.00879 11.53223,-3.13379 l 0.56836,1.918 c -3.82325,1.13376 -7.73243,2.19631 -11.62012,3.1572 z M 291.451,534.5714 c -3.86573,-1.02832 -7.75586,-2.15918 -11.5625,-3.36328 l 0.60254,-1.90625 c 3.77783,1.19434 7.63818,2.31641 11.47363,3.33594 z m 154.1582,-5.70117 -0.65625,-1.88867 c 3.74414,-1.30176 7.50977,-2.709 11.19434,-4.1836 l 0.74218,1.85743 c -3.71187,1.48535 -7.50679,2.90332 -11.28023,4.21484 z m -177.14551,-1.56641 c -3.75439,-1.37988 -7.53222,-2.86914 -11.22754,-4.42578 l 0.77637,-1.84375 c 3.667,1.54492 7.41553,3.02246 11.1416,4.39258 z m 199.47461,-7.36816 -0.82812,-1.82031 c 3.5957,-1.63379 7.21,-3.37793 10.74218,-5.1836 l 0.91016,1.78125 c -3.55952,1.81934 -7.20113,3.57617 -10.82418,5.22266 z m 21.39844,-10.93848 -0.99024,-1.73633 c 3.44825,-1.96777 6.89063,-4.03613 10.2295,-6.14843 l 1.06836,1.68945 c -3.36422,2.12891 -6.832,4.21387 -10.30758,6.19531 z m 20.32326,-12.85742 -1.14453,-1.63867 c 3.24707,-2.26856 6.4873,-4.64453 9.63086,-7.06055 l 1.21875,1.58594 c -3.16697,2.43457 -6.4326,4.82812 -9.70508,7.11328 z m -304.82568,-2.81641 c -3.228,-2.34472 -6.45264,-4.80078 -9.585,-7.30175 l 1.248,-1.5625 c 3.1084,2.48144 6.3086,4.91894 9.51172,7.24511 z m 323.90283,-11.8457 -1.28906,-1.5293 c 3.02636,-2.55371 6.03808,-5.21484 8.95312,-7.91015 l 1.35742,1.46875 c -2.9365,2.71582 -5.97163,5.39746 -9.02146,7.9707 z m -342.728,-3.18555 c -3.00635,-2.63281 -5.99316,-5.37109 -8.87695,-8.13964 l 1.38476,-1.44336 c 2.86231,2.748 5.82618,5.46582 8.80957,8.0791 z M 546.41,465.131 l -1.42383,-1.4043 c 2.79,-2.82714 5.54981,-5.75293 8.20117,-8.69531 l 1.48633,1.33789 c -2.67185,2.96579 -5.45213,5.91306 -8.26367,8.76172 z m -377.773,-3.51172 c -2.7583,-2.90039 -5.48242,-5.89843 -8.09668,-8.91015 l 1.51074,-1.31055 c 2.59424,2.98926 5.29737,5.96387 8.03516,8.8418 z m 393.89307,-14.37988 -1.54492,-1.26953 c 2.5205,-3.06738 5.00195,-6.23242 7.37793,-9.40918 l 1.60156,1.19726 c -2.39349,3.20115 -4.89446,6.39158 -7.4345,9.48142 z m -409.6709,-3.79688 c -2.477,-3.12988 -4.916,-6.36132 -7.24951,-9.60449 l 1.623,-1.168 c 2.31592,3.21778 4.73633,6.42481 7.19483,9.53223 z m 424.09961,-15.49707 -1.6543,-1.123 c 2.23047,-3.28418 4.415,-6.66406 6.49219,-10.04785 l 1.70508,1.04687 c -2.09466,3.40911 -4.29583,6.81536 -6.5429,10.12395 z M 138.808,423.91613 c -2.1792,-3.34082 -4.312,-6.77832 -6.33984,-10.21973 l 1.72265,-1.01562 c 2.0127,3.415 4.1294,6.82714 6.292,10.1416 z m 450.76611,-16.51074 -1.75,-0.9668 c 1.91993,-3.47461 3.78516,-7.043 5.5459,-10.60645 l 1.793,0.88672 c -1.7735,3.58985 -3.65436,7.18555 -5.58893,10.68653 z m 10.68067,-21.6211 -1.832,-0.80273 c 1.59375,-3.63965 3.124,-7.36719 4.54882,-11.07813 l 1.86719,0.7168 c -1.43561,3.74023 -2.97857,7.49609 -4.58404,11.16406 z M 116.3524,381.46886 c -1.5332,-3.67969 -3.00146,-7.44433 -4.36377,-11.19043 l 1.87989,-0.68359 c 1.35156,3.71777 2.80859,7.45312 4.32959,11.10449 z m 492.55078,-18.21586 -1.89843,-0.6289 c 1.248,-3.76075 2.42578,-7.6045 3.5,-11.42579 l 1.92578,0.541 C 611.34752,355.59 610.16,359.464 608.90318,363.253 Z m -500.76709,-4.38281 c -1.18994,-3.81152 -2.3081,-7.70508 -3.32324,-11.57422 l 1.93457,-0.50781 c 1.00733,3.83984 2.11719,7.7041 3.29785,11.48633 z m 507.28565,-18.79492 -1.94824,-0.45313 c 0.89551,-3.85449 1.71386,-7.791 2.43359,-11.69824 l 1.9668,0.36133 c -0.72461,3.93851 -1.54981,7.90434 -2.45215,11.79008 z m -513.394,-4.49414 c -0.834,-3.90625 -1.58887,-7.88575 -2.24317,-11.83008 l 1.97266,-0.32813 c 0.6499,3.915 1.39892,7.86426 2.22656,11.74024 z m 517.75244,-19.1836 -1.98242,-0.27148 c 0.53808,-3.917 0.99218,-7.91113 1.35058,-11.87207 l 1.99219,0.17969 c -0.36137,3.99222 -0.81938,8.01664 -1.36039,11.9639 z m -521.69385,-4.5664 c -0.47168,-3.959 -0.85889,-7.99121 -1.15137,-11.98438 l 1.99512,-0.14648 c 0.28955,3.96386 0.67432,7.96484 1.14258,11.89453 z m 523.86861,-19.40913 -1.998,-0.0899 c 0.17773,-3.96289 0.26855,-7.98242 0.26855,-11.94629 h 2 c -4e-5,3.99414 -0.0909,8.04394 -0.27055,12.03614 z M 96.329,287.82042 c -0.06836,-2.45214 -0.103,-4.9541 -0.10352,-7.43457 0,-1.53906 0.01318,-3.07519 0.03955,-4.60839 l 2,0.0351 c -0.02637,1.52149 -0.03955,3.0459 -0.03955,4.57324 4.9e-4,2.46192 0.03516,4.94532 0.10254,7.37989 z m 2.41064,-23.94775 -1.99609,-0.125 c 0.24951,-3.99609 0.59424,-8.03223 1.02343,-11.99658 l 1.98829,0.21533 c -0.42627,3.93458 -0.76761,7.93994 -1.01566,11.90625 z M 618.9341,251.67108 c -0.39942,-3.94287 -0.94885,-5.8653 -1.52893,-9.79109 l 1.97851,-0.292 c 0.584,3.95557 1.085,6.9751 1.48828,10.94776 z M 101.31236,240.11974 99.3358,239.81408 c 0.61279,-3.95655 1.32471,-7.94434 2.11621,-11.854 l 1.96,0.39649 c -0.78519,3.87987 -1.49174,7.83743 -2.09965,11.76317 z m 514.07422,-10.01562 c -0.76269,-3.90137 -1.623,-7.82862 -2.55859,-11.67237 l 1.94336,-0.47265 c 0.94238,3.873 1.80957,7.83056 2.57812,11.76123 z m -509.33691,-13.40137 -1.93994,-0.48633 c 0.97119,-3.87353 2.04687,-7.7793 3.19726,-11.60937 l 1.915,0.57519 c -1.14107,3.80076 -2.20845,7.67676 -3.17232,11.52051 z m 503.68457,-9.81348 c -1.11523,-3.8081 -2.334,-7.63867 -3.62207,-11.38672 l 1.89062,-0.65039 c 1.29883,3.77686 2.52735,7.6377 3.65137,11.47461 z m -496.79981,-13.1001 -1.88671,-0.66308 c 1.3291,-3.78076 2.76416,-7.57959 4.26513,-11.291 l 1.85449,0.75 c -1.48974,3.6826 -2.91406,7.45262 -4.23291,11.20408 z m 489.03321,-9.49462 c -1.459,-3.68067 -3.02149,-7.37452 -4.64453,-10.9795 l 1.82422,-0.82129 c 1.63574,3.63282 3.21,7.355 4.67968,11.06348 z M 121.911,171.59191 l -1.81739,-0.835 c 1.67041,-3.6377 3.44825,-7.28565 5.28418,-10.84229 l 1.77735,0.917 c -1.82227,3.52982 -3.58643,7.14994 -5.24414,10.76029 z m 470.26855,-9.03565 c -1.79,-3.53076 -3.68652,-7.06884 -5.63672,-10.51464 l 1.74024,-0.98536 c 1.96582,3.47266 3.876,7.0376 5.67969,10.59571 z m -459.2915,-12.22949 -1.7334,-0.998 c 1.99512,-3.46436 4.09912,-6.93213 6.25391,-10.30616 l 1.68554,1.07617 c -2.13818,3.3486 -4.22656,6.79 -6.20605,10.22799 z m 447.5415,-8.53515 c -2.11328,-3.36426 -4.32617,-6.71582 -6.57715,-9.96192 l 1.64258,-1.13965 c 2.26856,3.271 4.499,6.64795 6.62793,10.03809 z m -434.66846,-11.62354 -1.63476,-1.15234 c 2.30566,-3.27 4.71631,-6.5293 7.1665,-9.6875 l 1.58008,1.22558 c -2.43115,3.13477 -4.82422,6.36918 -7.11182,9.61426 z m 421.064,-7.99219 c -2.41016,-3.15674 -4.91992,-6.29492 -7.46191,-9.32715 l 1.5332,-1.28466 c 2.56055,3.05566 5.08984,6.21728 7.51855,9.39795 z M 160.41442,111.277 l -1.52247,-1.29688 c 2.58741,-3.03906 5.28418,-6.064 8.01514,-8.99072 l 1.46192,1.36426 c -2.71001,2.90475 -5.38624,5.90719 -7.95459,8.92334 z m 16.30468,-17.4722 -1.39843,-1.42969 c 2.85986,-2.79785 5.81933,-5.564 8.79541,-8.22119 l 1.332,1.49219 c -2.95359,2.63672 -5.8906,5.38183 -8.72898,8.15869 z m 17.81836,-15.91162 -1.26269,-1.55078 c 3.09326,-2.519 6.29,-5.00342 9.502,-7.38428 l 1.19141,1.60645 c -3.18804,2.36328 -6.36089,4.82861 -9.43072,7.32861 z m 19.18213,-14.21729 -1.11621,-1.65918 c 3.31055,-2.22754 6.71875,-4.40869 10.13037,-6.48437 l 1.03906,1.709 c -3.38525,2.05955 -6.76757,4.22459 -10.05322,6.43455 z m 20.3877,-12.40136 -0.96,-1.75489 c 3.50244,-1.9165 7.09375,-3.77588 10.67382,-5.52734 l 0.87891,1.79687 c -3.55269,1.73783 -7.11666,3.58301 -10.59273,5.48536 z M 475.4774,46.64074 c -3.55859,-1.773 -7.2041,-3.48584 -10.835,-5.09082 l 0.8086,-1.8291 c 3.65918,1.61718 7.333,3.34326 10.91894,5.12988 z m -219.94824,-5.84424 -0.79492,-1.835 c 3.66016,-1.58643 7.4043,-3.10791 11.12793,-4.52246 l 0.71,1.87011 c -3.69535,1.40336 -7.41068,2.91313 -11.04301,4.48735 z M 453.58092,36.962 c -3.70313,-1.436 -7.49316,-2.80616 -11.26563,-4.07178 l 0.63672,-1.89649 c 3.80078,1.27588 7.62012,2.65625 11.35157,4.104 z m -175.74316,-4.63669 -0.623,-1.90039 c 3.80078,-1.2461 7.67871,-2.41944 11.52539,-3.48633 l 0.53467,1.92676 c -3.81744,1.05908 -7.66558,2.22314 -11.43706,3.45996 z m 153.06347,-2.97364 c -3.81445,-1.0874 -7.70508,-2.10009 -11.56347,-3.00976 l 0.459,-1.94629 c 3.88867,0.9165 7.80859,1.937 11.65332,3.03223 z m -130.0415,-3.41552 -0.44531,-1.94971 c 3.89648,-0.89014 7.86572,-1.70117 11.79687,-2.41016 l 0.35547,1.96778 c -3.90186,0.7041 -7.84033,1.50879 -11.70703,2.39209 z m 106.7876,-2.0669 c -3.89454,-0.73095 -7.86133,-1.38135 -11.791,-1.9331 l 0.27734,-1.98047 c 3.96,0.55615 7.958,1.21142 11.88282,1.94775 z m -83.2754,-2.17625 -0.26464,-1.98242 c 3.959,-0.52832 7.98535,-0.97266 11.96679,-1.31933 l 0.17383,1.99218 c -3.95117,0.34471 -7.94629,0.78514 -11.87598,1.30957 z m 59.61622,-1.14746 c -3.93946,-0.37109 -7.94922,-0.65722 -11.91895,-0.84912 l 0.0977,-1.998 c 3.999,0.19385 8.03906,0.48194 12.00879,0.856 z m -35.81446,-0.9292 -0.084,-1.998 c 3.67578,-0.15332 7.42187,-0.23145 11.13574,-0.23243 l 0.90527,0.0015 -0.006,2 -0.89941,-0.0015 c -3.68553,9.2e-4 -7.40428,0.07856 -11.05174,0.23041 z"
     transform="translate(-84.76264,-17.38585)"
     id="path4"
     inkscape:connector-curvature="0"
     style="fill:#3f3d56"
     sodipodi:nodetypes="ccccccccccccccccccccccccccccccccccccccccccccccccccccccccccccccccccccccccccccccccccccccccccccccccccccccccccccccccccccccccccccccccccccccccccccccccccccccccccccccccccccccccccccccccccccccccccccccccccccccccccccccccccccccccccccccccccccccccccccccccccccccccccccccccccccccccccccccccccccccccccccccccccccccccccccccccccccccccccccccccccc" />
  <path
     d="M681.00382,111.59193V759.79188a29.13911,29.13911,0,0,1-29.13,29.11005h-263.15a29.0791,29.0791,0,0,1-29.13-29.11V111.59193a29.12749,29.12749,0,0,1,29.13-29.13h39.38v5.05a23.987,23.987,0,0,0,23.98,23.99h133.84a23.78923,23.78923,0,0,0,14.22-4.68,22.28455,22.28455,0,0,0,2.36-1.98,23.917,23.917,0,0,0,7.4-17.33v-5.05h41.97A29.12108,29.12108,0,0,1,681.00382,111.59193Z"
     transform="translate(-84.76264 -17.38585)"
     fill="#3f3d56"
     id="path6" />
  <rect
     x="313.30389"
     y="298.74611"
     width="244.46459"
     height="186"
     fill="#63b7ff"
     id="rect8" />
  <path
     d="M269.334,284.79264c21.7658.4669,39.08024,16.24012,39.08024,16.24012s-17.97491,15.01622-39.74071,14.54931S229.59331,299.342,229.59331,299.342,247.56821,284.32574,269.334,284.79264Z"
     transform="translate(-84.76264 -17.38585)"
     fill="#63b7ff"
     id="path10" />
  <path
     d="M159.90668,210.49465c19.66446,9.34222,42.21331,3.00713,42.21331,3.00713s-9.33355-21.48183-28.998-30.824-42.21331-3.00713-42.21331-3.00713S140.24221,201.15243,159.90668,210.49465Z"
     transform="translate(-84.76264 -17.38585)"
     fill="#63b7ff"
     id="path12" />
  <path
     d="M161.90562,201.21087c21.68046-1.98136,40.65734,11.74679,40.65734,11.74679s-16.17409,16.94056-37.85456,18.92192-40.65734-11.74679-40.65734-11.74679S140.22516,203.19223,161.90562,201.21087Z"
     transform="translate(-84.76264 -17.38585)"
     fill="#3f3d56"
     id="path14" />
  <path
     d="M241.37942,204.96448c-2.07806,21.67141,11.56528,40.70935,11.56528,40.70935s17.01256-16.09836,19.09062-37.76977S260.47,167.19472,260.47,167.19472,243.45749,183.29307,241.37942,204.96448Z"
     transform="translate(-84.76264 -17.38585)"
     fill="#3f3d56"
     id="path16" />
  <path
     d="M343.48367,337.87457c-11.37151,18.56494-7.45916,41.65774-7.45916,41.65774s22.34921-7.00691,33.72072-25.57185,7.45917-41.65774,7.45917-41.65774S354.85519,319.30963,343.48367,337.87457Z"
     transform="translate(-84.76264 -17.38585)"
     fill="#3f3d56"
     id="path18" />
  <path
     d="M310.49346,539.72316l1.65722-1.12011a51.91882,51.91882,0,0,1-9.16308-28.79249C303.034,494.753,310.43,480.8257,317.58281,467.357c1.32764-2.5,2.65088-4.99219,3.92383-7.48242a163.33418,163.33418,0,0,0,12.7041-31.89258c11.09473-41.23.17139-89.87353-29.21924-130.12207-23.31543-31.92871-58.07177-59.84863-106.2539-85.35547l-.93555,1.76758c47.90772,25.36133,82.44141,53.08936,105.57422,84.76758,29.03711,39.76367,39.8418,87.77246,28.90283,128.42285a161.39429,161.39429,0,0,1-12.55273,31.50195c-1.269,2.481-2.58741,4.96338-3.91016,7.45459-7.2666,13.6836-14.78076,27.833-14.82861,43.38575A53.937,53.937,0,0,0,310.49346,539.72316Z"
     transform="translate(-84.76264 -17.38585)"
     fill="#3f3d56"
     id="path20" />
  <circle
     cx="19.00039"
     cy="178.74651"
     r="19"
     fill="#3f3d56"
     id="circle22" />
  <polygon
     points="286.462 487.161 167.193 477.222 167.193 302.294 286.462 296.331 286.462 487.161"
     fill="#63b7ff"
     id="polygon24" />
  <polygon
     points="584.61 487.161 703.879 477.222 703.879 302.294 584.61 296.331 584.61 487.161"
     fill="#63b7ff"
     id="polygon26" />
  <path
     d="M561.75659,385.94545a23.83091,23.83091,0,0,0-26.1499-3.32422,35.29319,35.29319,0,0,1-11.6073,3.32074,67.1811,67.1811,0,0,1,4.71862-25.51606l.52735-1.36132h-7.00977l-.20117.73584a77.58937,77.58937,0,0,0-1.843,8.725,22.62232,22.62232,0,0,0-1.46655-3.70257c-4.917-9.74854-16.27783-13.73584-16.75928-13.90039l-.96875-.332-.30908.97608c-.15332.48535-3.70068,11.99072,1.21582,21.73975,3.5202,6.97991,10.34271,11.00531,14.11151,12.78973a36.26579,36.26579,0,0,1-13.71844-3.66962,15.99952,15.99952,0,0,0-16.938,1.42969c-13.08838,9.9458-20.59522,24.5249-20.59522,39.99951,0,20.32813,13.16456,38.94434,33.53858,47.42676a15.08751,15.08751,0,0,0,5.79834,1.15137,15.37923,15.37923,0,0,0,7.85107-2.15332,20.76632,20.76632,0,0,1,20.8086-.042,15.34188,15.34188,0,0,0,13.66015.96192c20.25537-8.51563,33.34326-27.09961,33.34326-47.34473C579.76342,409.36488,573.36792,395.9015,561.75659,385.94545Zm-37.99072-24.88086h2.57373a68.95677,68.95677,0,0,0-4.356,24.24121h-.45947A72.747,72.747,0,0,1,523.76587,361.06459Zm-20.07618,11.3413c-3.73291-7.40087-2.0957-16.22216-1.37207-19.19873,2.82276,1.18457,10.88135,5.10157,14.6211,12.51612,3.73193,7.3999,2.0957,16.21972,1.37207,19.19775C515.48608,383.73255,507.42114,379.80531,503.68969,372.40589Zm41.95508,96.95069a13.32227,13.32227,0,0,1-11.8706-.84278,22.76607,22.76607,0,0,0-22.84424.04786,13.31121,13.31121,0,0,1-11.85938.875c-19.626-8.1709-32.30713-26.0625-32.30713-45.58106,0-14.84375,7.21875-28.84277,19.80518-38.40674a13.85584,13.85584,0,0,1,8.38574-2.7998,14.01605,14.01605,0,0,1,6.4253,1.55469,41.28479,41.28479,0,0,0,35.11669.20849,21.83042,21.83042,0,0,1,23.95752,3.05176c11.16211,9.56982,17.30957,22.49365,17.30957,36.3916C577.76342,443.29408,565.156,461.15345,545.64477,469.35658Z"
     transform="translate(-84.76264 -17.38585)"
     id="path28"
     fill="#fff" />
  <path
     d="M311.26342,367.046v-2.34766h.93311v-7.314a2.95838,2.95838,0,0,0-1.58057-2.63721c-4.12744-2.15332-8.563-2.15088-13.18359.01026a2.98091,2.98091,0,0,0-1.70215,2.69726v7.24365h.93311v2.12549a16.2982,16.2982,0,0,0-11.89991,15.75782v15.82617l1.77735.59277-1.77735,1.18457v4.75586l1.77735.59277-1.77735,1.18506v4.75586l1.77735.59229-1.77735,1.18506v36.22265A10.66945,10.66945,0,0,0,295.42016,460.132h15.71045a10.64474,10.64474,0,0,0,10.63281-10.63281V413.25209l-1.77734-1.18506,1.77734-.59229v-4.75586l-1.77734-1.18506,1.77734-.59277v-4.75586l-1.77734-1.18457,1.77734-.59277V381.76429A15.64615,15.64615,0,0,0,311.26342,367.046Zm-12.98437-10.477c4.08447-1.90771,7.81787-1.92383,11.41113-.04834a.9755.9755,0,0,1,.50635.86377v3.91406H297.73022v-3.84375A.97494.97494,0,0,1,298.27905,356.569Zm21.48437,40.39746-4.28906,1.42969,4.28906,2.85937v2.24414l-4.28906,1.42969,4.28906,2.85987v2.24414l-4.28906,1.4292,4.28906,2.85986v35.17676a8.64276,8.64276,0,0,1-8.63281,8.63281H295.42016a8.66684,8.66684,0,0,1-8.65674-8.65723V414.3224l4.28907-2.85986-4.28907-1.4292V407.7892l4.28907-2.85987-4.28907-1.42969V401.2555l4.28907-2.85937-4.28907-1.42969V382.58168a14.31179,14.31179,0,0,1,11.12549-14.00831l.77442-.17919v-3.69581h10.60009v3.83008l.7212.20948a13.62951,13.62951,0,0,1,9.7788,13.02636Z"
     transform="translate(-84.76264 -17.38585)"
     fill="#fff"
     id="path30" />
  <path
     d="M781.3269,394.43373l-5.03515-1.00635,1.18554-2.37109-2.30957-.46241.39942-2.40136-2.52149-.4209v-2.27783l-2.0459-.58448,1.94239-2.42724H769.572l.7041-1.75782-2.49219-.415.84571-2.96386h-2.69629v-2.76563h-1c-3.15039,0-4.90723,3.74219-5.48438,5.24073-17.39258,3.0332-67.8916,38.01171-73.65527,42.03417-2.39453-.77685-5.94629,1.04395-6.6875,1.44825l-1.17383.64013,1.69336,1.69287-.50488,1.51368,3.10742,1.165-.68067,1.70117,1.957,1.63183-1.75782,1.31934,2.64551,1.58789-.46484,2.32031,2.95508.42285v2.32227l1.71582.34375-.85547,2.998h1.90527v2.37109h1.85938l.84277,2.52539.86523-.17383c2.01172-.40234,3.73438-3.18554,4.40821-4.41992,16.75-2.98926,68.46386-39.373,73.498-42.936,5.876.7041,8.03516-.86621,8.2666-1.05079l.95606-.76513-2.2832-1.90186Zm-10.334,3.86279-.38965-.05225-.32129.228c-.57129.40576-57.28516,40.58545-73.45313,42.895l-.51855.07422-.23438.46875a12.00459,12.00459,0,0,1-2.47363,3.38183l-.65332-1.959h-1.30078v-2.37109h-1.25488l.72461-2.53321-2.23535-.44726v-2.418l-2.57813-.36816.32617-1.63086-1.30566-.78321,1.40234-1.05176-2.7832-2.31933.89941-2.25-3.21484-1.20606.28613-.85742-.62109-.62207c1.502-.624,3.31836-1.08838,4.09863-.62158l.55762.33447.53125-.373c.56738-.398,56.89648-39.79639,73.8457-42.10743l.63281-.08642.18848-.61035c.291-.94532,1.32617-3.3335,2.78516-4.15088v2.48584h2.0459l-.73438,2.56836,2.25.375-.87793,2.19336H768.78l-1.21973,1.5249,3.48535.9956V389.466l2.2207.37012-.38964,2.33984,1.6416.32764-1.18555,2.37109,2.86719.57373-1.47656.98389,2.123,1.76953A15.9767,15.9767,0,0,1,770.99292,398.29652Z"
     transform="translate(-84.76264 -17.38585)"
     fill="#fff"
     id="path32" />
  <circle
     cx="435.53619"
     cy="540.74611"
     r="29"
     fill="#63b7ff"
     id="circle34" />
  <polygon
     points="453.795 537.882 438.4 537.882 438.4 522.487 432.672 522.487 432.672 537.882 417.277 537.882 417.277 543.61 432.672 543.61 432.672 559.005 438.4 559.005 438.4 543.61 453.795 543.61 453.795 537.882"
     fill="#fff"
     id="polygon36" />
  <polygon
     points="527.001 541.746 512.001 534.746 512.001 538.746 477.001 538.746 477.001 544.746 512.001 544.746 512.001 548.746 527.001 541.746"
     fill="#fff"
     id="polygon38" />
  <polygon
     points="344.072 541.746 359.072 534.746 359.072 538.746 394.072 538.746 394.072 544.746 359.072 544.746 359.072 548.746 344.072 541.746"
     fill="#fff"
     id="polygon40" />
  <rect
     x="339.53643"
     y="159.74611"
     width="191.99951"
     height="2"
     fill="#fff"
     id="rect44" />
  <rect
     x="340.00079"
     y="705.74611"
     width="192"
     height="2"
     fill="#fff"
     id="rect46" />
  <polygon
     transform="matrix(2.8827261,-0.77242414,0.77242414,2.8827261,-1260.5591,-1182.9646)"
     style="fill:#63b7ff;fill-opacity:1"
     points="432.672,522.487 432.672,537.882 417.277,537.882 417.277,543.61 432.672,543.61 432.672,559.005 438.4,559.005 438.4,543.61 453.795,543.61 453.795,537.882 438.4,537.882 438.4,522.487 "
     id="polygon36-3"
     clip-path="url(#clipPath913)" />
</svg>
